Aykiz-Thin.ufo
<glyph name="exclam" format="2">
  <advance width="242"/>
  <unicode hex="0021"/>
  <outline>
    <contour>
      <point x="113.95349119976214" y="193.953126430446" type="line"/>
      <point x="113.97923586582044" y="190.65780917498418"/>
      <point x="116.65789028364571" y="188.0"/>
      <point x="119.95330810267487" y="188.0" type="curve"/>
      <point x="122.04669189732513" y="188.0" type="line"/>
      <point x="125.34210971635429" y="188.0"/>
      <point x="128.02076413417956" y="190.65780917498418"/>
      <point x="128.04650880023786" y="193.953126430446" type="curve"/>
      <point x="131.95275880023786" y="693.953126430446" type="line"/>
      <point x="131.97878948083363" y="697.2850535467059"/>
      <point x="129.28497069437955" y="700.0"/>
      <point x="125.95294189732513" y="700.0" type="curve"/>
      <point x="116.04705810267487" y="700.0" type="line"/>
      <point x="112.71502930562045" y="700.0"/>
      <point x="110.02121051916636" y="697.2850535467059"/>
      <point x="110.04724119976214" y="693.953126430446" type="curve"/>
    </contour>
    <contour>
      <point x="121" y="-3" type="curve" smooth="yes"/>
      <point x="135" y="-3"/>
      <point x="147" y="9"/>
      <point x="147" y="23" type="curve" smooth="yes"/>
      <point x="147" y="37"/>
      <point x="135" y="49"/>
      <point x="121" y="49" type="curve" smooth="yes"/>
      <point x="107" y="49"/>
      <point x="95" y="37"/>
      <point x="95" y="23" type="curve" smooth="yes"/>
      <point x="95" y="9"/>
      <point x="107" y="-3"/>
    </contour>
  </outline>
</glyph>
<glyph name="numbersign" format="2">
  <advance width="682"/>
  <unicode hex="0023"/>
  <outline>
    <contour>
      <point x="418.82703028819867" y="6.731641880686804" type="line"/>
      <point x="418.3875684638145" y="3.154627031047951"/>
      <point x="421.17834564186495" y="0.0"/>
      <point x="424.7822548984401" y="0.0" type="curve"/>
      <point x="432.6920308158456" y="0.0" type="line"/>
      <point x="435.7227961527489" y="0.0"/>
      <point x="438.27768295091835" y="2.2602100656143684"/>
      <point x="438.64725542608704" y="5.268358119313197" type="curve"/>
      <point x="523.1729697118013" y="693.2683581193132" type="line"/>
      <point x="523.6124315361856" y="696.845372968952"/>
      <point x="520.8216543581351" y="700.0"/>
      <point x="517.2177451015599" y="700.0" type="curve"/>
      <point x="509.3079691841544" y="700.0" type="line"/>
      <point x="506.2772038472511" y="700.0"/>
      <point x="503.72231704908165" y="697.7397899343856"/>
      <point x="503.35274457391296" y="694.7316418806868" type="curve"/>
    </contour>
    <contour>
      <point x="35.0" y="216.0" type="line"/>
      <point x="35.0" y="212.68629150101523"/>
      <point x="37.68629150101524" y="210.0"/>
      <point x="41.0" y="210.0" type="curve"/>
      <point x="609.0" y="210.0" type="line"/>
      <point x="612.3137084989847" y="210.0"/>
      <point x="615.0" y="212.68629150101523"/>
      <point x="615.0" y="216.0" type="curve"/>
      <point x="615.0" y="223.0" type="line"/>
      <point x="615.0" y="226.31370849898477"/>
      <point x="612.3137084989847" y="229.0"/>
      <point x="609.0" y="229.0" type="curve"/>
      <point x="41.0" y="229.0" type="line"/>
      <point x="37.68629150101524" y="229.0"/>
      <point x="35.0" y="226.31370849898477"/>
      <point x="35.0" y="223.0" type="curve"/>
    </contour>
    <contour>
      <point x="158.82703028819867" y="6.731641880686804" type="line"/>
      <point x="158.38756846381446" y="3.154627031047951"/>
      <point x="161.17834564186495" y="0.0"/>
      <point x="164.78225489844007" y="0.0" type="curve"/>
      <point x="172.69203081584564" y="0.0" type="line"/>
      <point x="175.72279615274888" y="0.0"/>
      <point x="178.27768295091835" y="2.2602100656143684"/>
      <point x="178.64725542608704" y="5.268358119313197" type="curve"/>
      <point x="263.17296971180133" y="693.2683581193132" type="line"/>
      <point x="263.6124315361855" y="696.845372968952"/>
      <point x="260.82165435813505" y="700.0"/>
      <point x="257.2177451015599" y="700.0" type="curve"/>
      <point x="249.30796918415436" y="700.0" type="line"/>
      <point x="246.27720384725112" y="700.0"/>
      <point x="243.72231704908165" y="697.7397899343856"/>
      <point x="243.35274457391296" y="694.7316418806868" type="curve"/>
    </contour>
    <contour>
      <point x="66.0" y="477.0" type="line"/>
      <point x="66.0" y="473.68629150101526"/>
      <point x="68.68629150101523" y="471.0"/>
      <point x="72.0" y="471.0" type="curve"/>
      <point x="640.0" y="471.0" type="line"/>
      <point x="643.3137084989847" y="471.0"/>
      <point x="646.0" y="473.68629150101526"/>
      <point x="646.0" y="477.0" type="curve"/>
      <point x="646.0" y="484.0" type="line"/>
      <point x="646.0" y="487.31370849898474"/>
      <point x="643.3137084989847" y="490.0"/>
      <point x="640.0" y="490.0" type="curve"/>
      <point x="72.0" y="490.0" type="line"/>
      <point x="68.68629150101523" y="490.0"/>
      <point x="66.0" y="487.31370849898474"/>
      <point x="66.0" y="484.0" type="curve"/>
    </contour>
  </outline>
</glyph>
<glyph name="dollar" format="2">
  <advance width="601"/>
  <unicode hex="0024"/>
  <outline>
    <contour>
      <point x="292.0" y="-114.0" type="line"/>
      <point x="292.0" y="-117.31370849898477"/>
      <point x="294.68629150101526" y="-120.0"/>
      <point x="298.0" y="-120.0" type="curve"/>
      <point x="305.0" y="-120.0" type="line"/>
      <point x="308.31370849898474" y="-120.0"/>
      <point x="311.0" y="-117.31370849898477"/>
      <point x="311.0" y="-114.0" type="curve"/>
      <point x="311.0" y="814.0" type="line"/>
      <point x="311.0" y="817.3137084989847"/>
      <point x="308.31370849898474" y="820.0"/>
      <point x="305.0" y="820.0" type="curve"/>
      <point x="298.0" y="820.0" type="line"/>
      <point x="294.68629150101526" y="820.0"/>
      <point x="292.0" y="817.3137084989847"/>
      <point x="292.0" y="814.0" type="curve"/>
    </contour>
    <contour>
      <point x="304" y="-3" type="curve" smooth="yes"/>
      <point x="470" y="-3"/>
      <point x="543" y="79"/>
      <point x="543" y="172" type="curve" smooth="yes"/>
      <point x="543" y="425"/>
      <point x="98" y="290"/>
      <point x="98" y="526" type="curve" smooth="yes"/>
      <point x="98" y="613"/>
      <point x="166" y="684"/>
      <point x="313" y="684" type="curve" smooth="yes"/>
      <point x="374.13021375340895" y="684.0"/>
      <point x="443.7341305307124" y="665.16954883579"/>
      <point x="498.97227603148804" y="626.5950675353531" type="curve"/>
      <point x="501.746308975884" y="624.6578757456886"/>
      <point x="505.58477012119226" y="625.3051201762796"/>
      <point x="507.5016119006314" y="628.0932536736457" type="curve"/>
      <point x="511.7684842187653" y="634.2996134091132" type="line"/>
      <point x="513.5790262066779" y="636.9331290278951"/>
      <point x="513.0119538781054" y="640.5301803372319"/>
      <point x="510.42685511912305" y="642.4092043420468" type="curve"/>
      <point x="459.466082469509" y="679.4509284850117"/>
      <point x="384.79107837415495" y="703.0"/>
      <point x="312" y="703" type="curve" smooth="yes"/>
      <point x="148" y="703"/>
      <point x="78" y="619"/>
      <point x="78" y="527" type="curve" smooth="yes"/>
      <point x="78" y="269"/>
      <point x="523" y="407"/>
      <point x="523" y="172" type="curve" smooth="yes"/>
      <point x="523" y="86"/>
      <point x="455" y="16"/>
      <point x="303" y="16" type="curve" smooth="yes"/>
      <point x="207.98575977976634" y="16.0"/>
      <point x="121.43146881001731" y="54.53976880776332"/>
      <point x="76.14592914530527" y="104.27863804449635" type="curve"/>
      <point x="73.84193645841444" y="106.80920280808579"/>
      <point x="69.90347066357023" y="107.0532227590295"/>
      <point x="67.39563117235636" y="104.72451466004519" type="curve"/>
      <point x="62.11013586534446" y="99.81655473210557" type="line"/>
      <point x="59.796743149520346" y="97.66840435312604"/>
      <point x="59.535918990385646" y="94.08756411100916"/>
      <point x="61.602096525882466" y="91.7006736023879" type="curve"/>
      <point x="109.83224663365966" y="35.984218678318875"/>
      <point x="204.5390368120543" y="-3.0"/>
    </contour>
  </outline>
</glyph>
<glyph name="ampersand" format="2">
  <advance width="634"/>
  <unicode hex="0026"/>
  <outline>
    <contour>
      <point x="273" y="-3" type="curve" smooth="yes"/>
      <point x="430" y="-3"/>
      <point x="537" y="88"/>
      <point x="575" y="286" type="curve"/>
      <point x="558" y="290" type="line"/>
      <point x="522" y="102"/>
      <point x="422" y="14"/>
      <point x="273" y="14" type="curve" smooth="yes"/>
      <point x="157" y="14"/>
      <point x="76" y="75"/>
      <point x="76" y="168" type="curve" smooth="yes"/>
      <point x="76" y="241"/>
      <point x="117" y="293"/>
      <point x="260" y="379" type="curve" smooth="yes"/>
      <point x="398" y="462"/>
      <point x="441" y="508"/>
      <point x="441" y="578" type="curve" smooth="yes"/>
      <point x="441" y="656"/>
      <point x="386" y="703"/>
      <point x="300" y="703" type="curve" smooth="yes"/>
      <point x="207" y="703"/>
      <point x="149" y="649"/>
      <point x="149" y="568" type="curve" smooth="yes"/>
      <point x="149" y="515"/>
      <point x="166" y="477"/>
      <point x="237" y="400" type="curve" smooth="yes"/>
      <point x="608.0574480313524" y="-5.689476514278555" type="line"/>
      <point x="610.2517124276249" y="-8.088538920869839"/>
      <point x="613.9575400242059" y="-8.303465312354927"/>
      <point x="616.4144358159879" y="-6.174155626143822" type="curve"/>
      <point x="622.3388081001981" y="-1.0396996464949595" type="line"/>
      <point x="624.892012909587" y="1.1730778549754057"/>
      <point x="625.1155317840012" y="5.056704558321259"/>
      <point x="622.8330541852954" y="7.547795700994752" type="curve"/>
      <point x="255" y="409" type="line" smooth="yes"/>
      <point x="186" y="485"/>
      <point x="169" y="520"/>
      <point x="169" y="568" type="curve" smooth="yes"/>
      <point x="169" y="637"/>
      <point x="217" y="684"/>
      <point x="300" y="684" type="curve" smooth="yes"/>
      <point x="378" y="684"/>
      <point x="422" y="642"/>
      <point x="422" y="578" type="curve" smooth="yes"/>
      <point x="422" y="512"/>
      <point x="380" y="472"/>
      <point x="247" y="393" type="curve" smooth="yes"/>
      <point x="103" y="307"/>
      <point x="56" y="245"/>
      <point x="56" y="168" type="curve" smooth="yes"/>
      <point x="56" y="65"/>
      <point x="146" y="-3"/>
    </contour>
  </outline>
</glyph>
<glyph name="parenleft" format="2">
  <advance width="311"/>
  <unicode hex="0028"/>
  <outline>
    <contour>
      <point x="232.26927010259155" y="-191.03172932981343" type="curve"/>
      <point x="233.33635022056387" y="-192.87343610200656"/>
      <point x="235.30748687378548" y="-194.0"/>
      <point x="237.43599428812865" y="-194.0" type="curve"/>
      <point x="244.45" y="-194.0" type="line"/>
      <point x="248.22306451150973" y="-194.0"/>
      <point x="250.56668043717113" y="-189.88911314994758"/>
      <point x="248.68210662101956" y="-186.6204135094957" type="curve"/>
      <point x="175.71091281166113" y="-60.05550375442437"/>
      <point x="143.0" y="92.54096305881967"/>
      <point x="143" y="274" type="curve" smooth="yes"/>
      <point x="143.0" y="455.45903694118033"/>
      <point x="175.71091281166113" y="608.0555037544243"/>
      <point x="248.68210662101956" y="734.6204135094957" type="curve"/>
      <point x="250.56668043717113" y="737.8891131499475"/>
      <point x="248.22306451150973" y="742.0"/>
      <point x="244.45" y="742.0" type="curve"/>
      <point x="237.39221037231664" y="742.0" type="line"/>
      <point x="235.28729656254163" y="742.0"/>
      <point x="233.33420823550122" y="740.8982203422388"/>
      <point x="232.25988328522848" y="739.0881131498871" type="curve"/>
      <point x="162.3467740203937" y="621.2930066620268"/>
      <point x="123.0" y="457.4831968361118"/>
      <point x="123" y="274" type="curve" smooth="yes"/>
      <point x="123.0" y="90.50859159204401"/>
      <point x="162.3502959351764" y="-70.35639665318556"/>
    </contour>
  </outline>
</glyph>
<glyph name="parenright" format="2">
  <advance width="311"/>
  <unicode hex="0029"/>
  <outline>
    <contour>
      <point x="73.56400571187135" y="-194.0" type="line"/>
      <point x="75.69251312621452" y="-194.0"/>
      <point x="77.66364977943613" y="-192.87343610200656"/>
      <point x="78.73072989740845" y="-191.03172932981343" type="curve"/>
      <point x="148.6497040648236" y="-70.35639665318554"/>
      <point x="188.0" y="90.50859159204401"/>
      <point x="188" y="274" type="curve" smooth="yes"/>
      <point x="188.0" y="457.4831968361118"/>
      <point x="148.6532259796063" y="621.2930066620268"/>
      <point x="78.74011671477153" y="739.0881131498871" type="curve"/>
      <point x="77.6657917644988" y="740.8982203422388"/>
      <point x="75.71270343745836" y="742.0"/>
      <point x="73.60778962768335" y="742.0" type="curve"/>
      <point x="66.55" y="742.0" type="line"/>
      <point x="62.77693548849026" y="742.0"/>
      <point x="60.433319562828885" y="737.8891131499475"/>
      <point x="62.31789337898045" y="734.6204135094957" type="curve"/>
      <point x="135.28908718833887" y="608.0555037544244"/>
      <point x="168.0" y="455.45903694118033"/>
      <point x="168" y="274" type="curve" smooth="yes"/>
      <point x="168.0" y="92.54096305881967"/>
      <point x="135.28908718833887" y="-60.055503754424365"/>
      <point x="62.31789337898044" y="-186.62041350949568" type="curve"/>
      <point x="60.43331956282888" y="-189.88911314994755"/>
      <point x="62.77693548849026" y="-194.0"/>
      <point x="66.55" y="-194.0" type="curve"/>
    </contour>
  </outline>
</glyph>
<glyph name="asterisk" format="2">
  <advance width="358"/>
  <unicode hex="002A"/>
  <outline>
    <contour>
      <point x="325.86246495475933" y="646.0332544104948" type="line"/>
      <point x="328.7091857483031" y="647.6771354321187"/>
      <point x="329.7030944742929" y="651.3056098234791"/>
      <point x="328.091471914953" y="654.1707165956391" type="curve"/>
      <point x="324.974982100253" y="659.7111429328836" type="line"/>
      <point x="323.337408632882" y="662.6223846526542"/>
      <point x="319.63764229867223" y="663.6358216090924"/>
      <point x="316.7450826149521" y="661.9654702424372" type="curve"/>
      <point x="180" y="583" type="line"/>
      <point x="188" y="579" type="line"/>
      <point x="188.0" y="736.0" type="line"/>
      <point x="188.0" y="739.3137084989847"/>
      <point x="185.31370849898477" y="742.0"/>
      <point x="182.0" y="742.0" type="curve"/>
      <point x="176.0" y="742.0" type="line"/>
      <point x="172.68629150101523" y="742.0"/>
      <point x="170.0" y="739.3137084989847"/>
      <point x="170.0" y="736.0" type="curve"/>
      <point x="170" y="579" type="line"/>
      <point x="178" y="583" type="line"/>
      <point x="41.254917385047904" y="661.9654702424372" type="line"/>
      <point x="38.36235770132776" y="663.6358216090924"/>
      <point x="34.662591367117976" y="662.6223846526542"/>
      <point x="33.025017899747" y="659.7111429328836" type="curve"/>
      <point x="29.91736538537695" y="654.1864273517813" type="line"/>
      <point x="28.3022649276571" y="651.3151376491682"/>
      <point x="29.30430004573498" y="647.6786531206275"/>
      <point x="32.162148690469735" y="646.0398867649054" type="curve"/>
      <point x="170" y="567" type="line"/>
      <point x="170" y="577" type="line"/>
      <point x="32.162148690469735" y="497.9601132350945" type="line"/>
      <point x="29.30430004573498" y="496.32134687937247"/>
      <point x="28.3022649276571" y="492.68486235083185"/>
      <point x="29.91736538537695" y="489.8135726482188" type="curve"/>
      <point x="33.034029732967475" y="484.27283603028" type="line"/>
      <point x="34.668111186705396" y="481.36780233474593"/>
      <point x="38.356718197817266" y="480.35140484070644"/>
      <point x="41.24815287336928" y="482.009430318995" type="curve"/>
      <point x="179" y="561" type="line"/>
      <point x="170" y="565" type="line"/>
      <point x="170.0" y="408.0" type="line"/>
      <point x="170.0" y="404.68629150101526"/>
      <point x="172.68629150101523" y="402.0"/>
      <point x="176.0" y="402.0" type="curve"/>
      <point x="182.0" y="402.0" type="line"/>
      <point x="185.31370849898477" y="402.0"/>
      <point x="188.0" y="404.68629150101526"/>
      <point x="188.0" y="408.0" type="curve"/>
      <point x="188" y="565" type="line"/>
      <point x="180" y="561" type="line"/>
      <point x="316.7450826149521" y="482.0345297575629" type="line"/>
      <point x="319.63764229867223" y="480.3641783909076"/>
      <point x="323.337408632882" y="481.37761534734585"/>
      <point x="324.974982100253" y="484.28885706711645" type="curve"/>
      <point x="328.091471914953" y="489.8292834043609" type="line"/>
      <point x="329.7030944742929" y="492.6943901765208"/>
      <point x="328.7091857483031" y="496.3228645678813"/>
      <point x="325.86246495475933" y="497.9667455895052" type="curve"/>
      <point x="189" y="577" type="line"/>
      <point x="189" y="567" type="line"/>
    </contour>
  </outline>
</glyph>
<glyph name="plus" format="2">
  <advance width="560"/>
  <unicode hex="002B"/>
  <outline>
    <contour>
      <point x="270.0" y="156.0" type="line"/>
      <point x="270.0" y="152.68629150101523"/>
      <point x="272.68629150101526" y="150.0"/>
      <point x="276.0" y="150.0" type="curve"/>
      <point x="284.0" y="150.0" type="line"/>
      <point x="287.31370849898474" y="150.0"/>
      <point x="290.0" y="152.68629150101523"/>
      <point x="290.0" y="156.0" type="curve"/>
      <point x="290.0" y="544.0" type="line"/>
      <point x="290.0" y="547.3137084989847"/>
      <point x="287.31370849898474" y="550.0"/>
      <point x="284.0" y="550.0" type="curve"/>
      <point x="276.0" y="550.0" type="line"/>
      <point x="272.68629150101526" y="550.0"/>
      <point x="270.0" y="547.3137084989847"/>
      <point x="270.0" y="544.0" type="curve"/>
    </contour>
    <contour>
      <point x="75.0" y="346.0" type="line"/>
      <point x="75.0" y="342.68629150101526"/>
      <point x="77.68629150101523" y="340.0"/>
      <point x="81.0" y="340.0" type="curve"/>
      <point x="479.0" y="340.0" type="line"/>
      <point x="482.31370849898474" y="340.0"/>
      <point x="485.0" y="342.68629150101526"/>
      <point x="485.0" y="346.0" type="curve"/>
      <point x="485.0" y="353.0" type="line"/>
      <point x="485.0" y="356.31370849898474"/>
      <point x="482.31370849898474" y="359.0"/>
      <point x="479.0" y="359.0" type="curve"/>
      <point x="81.0" y="359.0" type="line"/>
      <point x="77.68629150101523" y="359.0"/>
      <point x="75.0" y="356.31370849898474"/>
      <point x="75.0" y="353.0" type="curve"/>
    </contour>
  </outline>
</glyph>
<glyph name="comma" format="2">
  <advance width="182"/>
  <unicode hex="002C"/>
  <outline>
    <contour>
      <point x="63.51440507961429" y="-132.7699370392608" type="line"/>
      <point x="62.73361697264532" y="-136.49757058220945"/>
      <point x="65.5784362072221" y="-140.0"/>
      <point x="69.38696373088526" y="-140.0" type="curve"/>
      <point x="75.29834523249954" y="-140.0" type="line"/>
      <point x="78.05941592554855" y="-140.0"/>
      <point x="80.46404053023696" y="-138.11571421055297"/>
      <point x="81.12427923119937" y="-135.43474493997832" type="curve"/>
      <point x="113" y="-6" type="line"/>
      <point x="115" y="5"/>
      <point x="117" y="12"/>
      <point x="117" y="23" type="curve" smooth="yes"/>
      <point x="117" y="35"/>
      <point x="107" y="49"/>
      <point x="91" y="49" type="curve" smooth="yes"/>
      <point x="76" y="49"/>
      <point x="65" y="37"/>
      <point x="65" y="23" type="curve" smooth="yes"/>
      <point x="65" y="9"/>
      <point x="77" y="-3"/>
      <point x="93" y="-3" type="curve"/>
      <point x="93.0" y="3.05" type="line"/>
      <point x="93.0" y="3.6666116785067056"/>
      <point x="92.11160992187189" y="3.75865382054966"/>
      <point x="91.98519805739016" y="3.1551391127014483" type="curve"/>
    </contour>
  </outline>
</glyph>
<glyph name="hyphen" format="2">
  <advance width="380"/>
  <unicode hex="002D"/>
  <outline>
    <contour>
      <point x="65.0" y="261.0" type="line"/>
      <point x="65.0" y="257.68629150101526"/>
      <point x="67.68629150101523" y="255.0"/>
      <point x="71.0" y="255.0" type="curve"/>
      <point x="309.0" y="255.0" type="line"/>
      <point x="312.31370849898474" y="255.0"/>
      <point x="315.0" y="257.68629150101526"/>
      <point x="315.0" y="261.0" type="curve"/>
      <point x="315.0" y="268.0" type="line"/>
      <point x="315.0" y="271.31370849898474"/>
      <point x="312.31370849898474" y="274.0"/>
      <point x="309.0" y="274.0" type="curve"/>
      <point x="71.0" y="274.0" type="line"/>
      <point x="67.68629150101523" y="274.0"/>
      <point x="65.0" y="271.31370849898474"/>
      <point x="65.0" y="268.0" type="curve"/>
    </contour>
  </outline>
</glyph>
<glyph name="one" format="2">
  <advance width="342"/>
  <unicode hex="0031"/>
  <outline>
    <contour>
      <point x="190.0" y="5.999999999999999" type="line"/>
      <point x="190.0" y="2.6862915010152384"/>
      <point x="192.68629150101523" y="0.0"/>
      <point x="196.0" y="0.0" type="curve"/>
      <point x="203.0" y="0.0" type="line"/>
      <point x="206.31370849898477" y="0.0"/>
      <point x="209.0" y="2.6862915010152384"/>
      <point x="209.0" y="5.999999999999999" type="curve"/>
      <point x="209.0" y="694.0" type="line"/>
      <point x="209.0" y="697.3137084989847"/>
      <point x="206.31370849898477" y="700.0"/>
      <point x="203.0" y="700.0" type="curve"/>
      <point x="16.0" y="700.0" type="line"/>
      <point x="12.686291501015239" y="700.0"/>
      <point x="10.0" y="697.3137084989847"/>
      <point x="10.0" y="694.0" type="curve"/>
      <point x="10.0" y="687.0" type="line"/>
      <point x="10.0" y="683.6862915010153"/>
      <point x="12.686291501015239" y="681.0"/>
      <point x="16.0" y="681.0" type="curve"/>
      <point x="199" y="681" type="line"/>
      <point x="190" y="689" type="line"/>
    </contour>
  </outline>
</glyph>
<glyph name="two" format="2">
  <advance width="555"/>
  <unicode hex="0032"/>
  <outline>
    <contour>
      <point x="43.0" y="5.999999999999999" type="line"/>
      <point x="43.0" y="2.6862915010152384"/>
      <point x="45.68629150101524" y="0.0"/>
      <point x="49.0" y="0.0" type="curve"/>
      <point x="505.0" y="0.0" type="line"/>
      <point x="508.31370849898474" y="0.0"/>
      <point x="511.0" y="2.6862915010152384"/>
      <point x="511.0" y="5.999999999999999" type="curve"/>
      <point x="511.0" y="13.0" type="line"/>
      <point x="511.0" y="16.31370849898476"/>
      <point x="508.31370849898474" y="19.0"/>
      <point x="505.0" y="19.0" type="curve"/>
      <point x="54" y="19" type="line"/>
      <point x="66" y="11" type="line"/>
      <point x="360" y="309" type="line" smooth="yes"/>
      <point x="451" y="401"/>
      <point x="473" y="458"/>
      <point x="473" y="524" type="curve" smooth="yes"/>
      <point x="473" y="635"/>
      <point x="390" y="703"/>
      <point x="258" y="703" type="curve" smooth="yes"/>
      <point x="158.48233538664226" y="703.0"/>
      <point x="83.71456550824374" y="672.5385910954349"/>
      <point x="31.839185294329624" y="617.1882884977289" type="curve"/>
      <point x="29.65999288971055" y="614.8631207877883"/>
      <point x="29.764168178585845" y="611.2358318214142"/>
      <point x="32.0175306012445" y="608.9824693987555" type="curve"/>
      <point x="37.515114811610495" y="603.4848851883895" type="line"/>
      <point x="39.95075097924274" y="601.0492490207573"/>
      <point x="43.927668231123064" y="601.1647410515616"/>
      <point x="46.28532717743265" y="603.6759342689471" type="curve"/>
      <point x="96.84832594363579" y="657.5316710162451"/>
      <point x="164.66264721179323" y="684.0"/>
      <point x="258" y="684" type="curve" smooth="yes"/>
      <point x="385" y="684"/>
      <point x="453" y="621"/>
      <point x="453" y="523" type="curve" smooth="yes"/>
      <point x="453" y="464"/>
      <point x="435" y="412"/>
      <point x="346" y="322" type="curve" smooth="yes"/>
      <point x="44.72963052844633" y="16.75246393476245" type="line"/>
      <point x="43.621388547384235" y="15.62959169652462"/>
      <point x="43.0" y="14.115404368565478"/>
      <point x="43.0" y="12.537734456323484" type="curve"/>
    </contour>
  </outline>
</glyph>
<glyph name="three" format="2">
  <advance width="548"/>
  <unicode hex="0033"/>
  <outline>
    <contour>
      <point x="259" y="-3" type="curve" smooth="yes"/>
      <point x="409" y="-3"/>
      <point x="490" y="76"/>
      <point x="490" y="192" type="curve" smooth="yes"/>
      <point x="490" y="308"/>
      <point x="410" y="387"/>
      <point x="245" y="387" type="curve" smooth="yes"/>
      <point x="233.27604945017623" y="387.0" type="line"/>
      <point x="231.6342837076474" y="387.0"/>
      <point x="230.44897226346922" y="385.4285970778578"/>
      <point x="230.9" y="383.85" type="curve"/>
      <point x="231.1" y="383.15" type="line"/>
      <point x="231.47115085177572" y="381.85097201878494"/>
      <point x="233.16544621702167" y="381.53215989737765"/>
      <point x="233.98336633204653" y="382.60744280721633" type="curve"/>
      <point x="462.77546419284255" y="683.3901576673145" type="line"/>
      <point x="463.5698595595656" y="684.4345136451185"/>
      <point x="464.0" y="685.7104897015821"/>
      <point x="464.0" y="687.0226419058046" type="curve"/>
      <point x="464.0" y="694.0" type="line"/>
      <point x="464.0" y="697.3137084989847"/>
      <point x="461.31370849898474" y="700.0"/>
      <point x="458.0" y="700.0" type="curve"/>
      <point x="47.0" y="700.0" type="line"/>
      <point x="43.68629150101524" y="700.0"/>
      <point x="41.0" y="697.3137084989847"/>
      <point x="41.0" y="694.0" type="curve"/>
      <point x="41.0" y="687.0" type="line"/>
      <point x="41.0" y="683.6862915010153"/>
      <point x="43.68629150101524" y="681.0"/>
      <point x="47.0" y="681.0" type="curve"/>
      <point x="440.72395054982377" y="681.0" type="line"/>
      <point x="442.3657162923526" y="681.0"/>
      <point x="443.5510277365308" y="682.5714029221422"/>
      <point x="443.1" y="684.15" type="curve"/>
      <point x="442.9" y="684.85" type="line"/>
      <point x="442.52884914822425" y="686.149027981215"/>
      <point x="440.83455378297833" y="686.4678401026224"/>
      <point x="440.01663366795344" y="685.3925571927837" type="curve"/>
      <point x="211.22453580715745" y="384.60984233268545" type="line"/>
      <point x="210.43014044043443" y="383.56548635488144"/>
      <point x="210.0" y="382.2895102984179"/>
      <point x="210.0" y="380.9773580941954" type="curve"/>
      <point x="210.0" y="374.0" type="line"/>
      <point x="210.0" y="370.68629150101526"/>
      <point x="212.68629150101523" y="368.0"/>
      <point x="216.0" y="368.0" type="curve"/>
      <point x="246" y="368" type="line" smooth="yes"/>
      <point x="399" y="368"/>
      <point x="470" y="299"/>
      <point x="470" y="192" type="curve" smooth="yes"/>
      <point x="470" y="85"/>
      <point x="398" y="16"/>
      <point x="259" y="16" type="curve" smooth="yes"/>
      <point x="156" y="16"/>
      <point x="71" y="57"/>
      <point x="32" y="109" type="curve"/>
      <point x="19" y="96" type="line"/>
      <point x="61" y="38"/>
      <point x="154" y="-3"/>
    </contour>
  </outline>
</glyph>
<glyph name="four" format="2">
  <advance width="644"/>
  <unicode hex="0034"/>
  <guideline x="437" y="228" angle="90"/>
  <outline>
    <contour>
      <point x="46.0" y="214.0" type="line"/>
      <point x="46.0" y="210.68629150101523"/>
      <point x="48.68629150101524" y="208.0"/>
      <point x="52.0" y="208.0" type="curve"/>
      <point x="621.0" y="208.0" type="line"/>
      <point x="624.3137084989847" y="208.0"/>
      <point x="627.0" y="210.68629150101523"/>
      <point x="627.0" y="214.0" type="curve"/>
      <point x="627.0" y="221.0" type="line"/>
      <point x="627.0" y="224.31370849898477"/>
      <point x="624.3137084989847" y="227.0"/>
      <point x="621.0" y="227.0" type="curve"/>
      <point x="63.12066172893095" y="227.0" type="line"/>
      <point x="62.06425477605417" y="227.0"/>
      <point x="61.840308409772454" y="225.51067433545464"/>
      <point x="62.85" y="225.2" type="curve"/>
      <point x="66.16487061504925" y="224.18003981075407" type="line"/>
      <point x="68.48601179888283" y="223.46584252342066"/>
      <point x="71.0087768675677" y="224.22128570007564"/>
      <point x="72.55536324841417" y="226.09367581089737" type="curve"/>
      <point x="457.12213150606084" y="691.6732404273884" type="line"/>
      <point x="459.8622544685074" y="694.9905974149189"/>
      <point x="457.50268883746475" y="700.0"/>
      <point x="453.2" y="700.0" type="curve"/>
      <point x="442.8261641075562" y="700.0" type="line"/>
      <point x="441.03636020725" y="700.0"/>
      <point x="439.340004702054" y="699.2009701595932"/>
      <point x="438.2001865672164" y="697.8210380521884" type="curve"/>
      <point x="47.37402245966021" y="224.66347389151755" type="line"/>
      <point x="46.48584689577332" y="223.58819535351236"/>
      <point x="46.0" y="222.2370970048387"/>
      <point x="46.0" y="220.84243583932914" type="curve"/>
    </contour>
    <contour>
      <point x="451.0" y="5.999999999999999" type="line"/>
      <point x="451.0" y="2.6862915010152384"/>
      <point x="453.68629150101526" y="0.0"/>
      <point x="457.0" y="0.0" type="curve"/>
      <point x="465.0" y="0.0" type="line"/>
      <point x="468.31370849898474" y="0.0"/>
      <point x="471.0" y="2.6862915010152384"/>
      <point x="471.0" y="5.999999999999999" type="curve"/>
      <point x="471.0" y="404.0" type="line"/>
      <point x="471.0" y="407.31370849898474"/>
      <point x="468.31370849898474" y="410.0"/>
      <point x="465.0" y="410.0" type="curve"/>
      <point x="457.0" y="410.0" type="line"/>
      <point x="453.68629150101526" y="410.0"/>
      <point x="451.0" y="407.31370849898474"/>
      <point x="451.0" y="404.0" type="curve"/>
      <point x="451" y="227" type="line"/>
      <point x="451" y="208" type="line"/>
    </contour>
  </outline>
</glyph>
<glyph name="five" format="2">
  <advance width="548"/>
  <unicode hex="0035"/>
  <outline>
    <contour>
      <point x="270" y="-3" type="curve" smooth="yes"/>
      <point x="425" y="-3"/>
      <point x="503" y="83"/>
      <point x="503" y="196" type="curve" smooth="yes"/>
      <point x="503" y="320"/>
      <point x="427" y="397"/>
      <point x="212" y="397" type="curve" smooth="yes"/>
      <point x="90" y="397" type="line"/>
      <point x="96" y="387" type="line"/>
      <point x="131" y="689" type="line"/>
      <point x="124" y="681" type="line"/>
      <point x="462.0" y="681.0" type="line"/>
      <point x="465.31370849898474" y="681.0"/>
      <point x="468.0" y="683.6862915010153"/>
      <point x="468.0" y="687.0" type="curve"/>
      <point x="468.0" y="694.0" type="line"/>
      <point x="468.0" y="697.3137084989847"/>
      <point x="465.31370849898474" y="700.0"/>
      <point x="462.0" y="700.0" type="curve"/>
      <point x="118.3500398517737" y="700.0" type="line"/>
      <point x="115.30133190933921" y="700.0"/>
      <point x="112.7372899096487" y="697.7137121866724"/>
      <point x="112.3892626060853" y="694.6849340313369" type="curve"/>
      <point x="76.76814459366292" y="384.68493403133687" type="line"/>
      <point x="76.35888908650513" y="381.12330502309874"/>
      <point x="79.143856810309" y="378.0"/>
      <point x="82.72892183935133" y="378.0" type="curve"/>
      <point x="208" y="378" type="line" smooth="yes"/>
      <point x="416" y="378"/>
      <point x="483" y="310"/>
      <point x="483" y="196" type="curve" smooth="yes"/>
      <point x="483" y="92"/>
      <point x="414" y="16"/>
      <point x="270" y="16" type="curve" smooth="yes"/>
      <point x="172.54714778678635" y="16.0"/>
      <point x="89.99018170942678" y="54.17070822312605"/>
      <point x="49.27798648665106" y="103.56323995064837" type="curve"/>
      <point x="46.955607873882236" y="106.38077800495431"/>
      <point x="42.69005041016906" y="106.69005041016906"/>
      <point x="40.10819418755439" y="104.10819418755439" type="curve"/>
      <point x="35.617780799653275" y="99.61778079965327" type="line"/>
      <point x="33.53338826873114" y="97.53338826873113"/>
      <point x="33.26235039797642" y="94.23557842619175"/>
      <point x="35.07005424995265" y="91.9071473601135" type="curve"/>
      <point x="78.41166273325564" y="36.08055411808604"/>
      <point x="169.43991013271489" y="-3.0"/>
    </contour>
  </outline>
</glyph>
<glyph name="six" format="2">
  <advance width="592"/>
  <unicode hex="0036"/>
  <outline>
    <contour>
      <point x="332" y="-3" type="curve" smooth="yes"/>
      <point x="462" y="-3"/>
      <point x="555" y="78"/>
      <point x="555" y="202" type="curve" smooth="yes"/>
      <point x="555" y="326"/>
      <point x="465" y="406"/>
      <point x="325" y="406" type="curve" smooth="yes"/>
      <point x="196" y="406"/>
      <point x="94" y="327"/>
      <point x="90" y="195" type="curve"/>
      <point x="98" y="210" type="line"/>
      <point x="82" y="261"/>
      <point x="79" y="318"/>
      <point x="79" y="352" type="curve" smooth="yes"/>
      <point x="79" y="573"/>
      <point x="189" y="684"/>
      <point x="357" y="684" type="curve" smooth="yes"/>
      <point x="408.32823914561686" y="684.0"/>
      <point x="456.0425027990669" y="675.8685551426246"/>
      <point x="490.6960827121476" y="656.1704987921637" type="curve"/>
      <point x="493.637057774771" y="654.4987669637592"/>
      <point x="497.41782434813797" y="655.4103013918344"/>
      <point x="499.13302342485457" y="658.3261398222527" type="curve"/>
      <point x="503.00568329729714" y="664.9096616054052" type="line"/>
      <point x="504.6670148178017" y="667.733925190263"/>
      <point x="503.7599327138398" y="671.3782657691406"/>
      <point x="500.90580420386283" y="672.9877494336469" type="curve"/>
      <point x="460.73242631265134" y="695.6420886611618"/>
      <point x="410.7056909910352" y="703.0"/>
      <point x="357" y="703" type="curve" smooth="yes"/>
      <point x="179" y="703"/>
      <point x="59" y="585"/>
      <point x="59" y="350" type="curve" smooth="yes"/>
      <point x="59" y="133"/>
      <point x="150" y="-3"/>
    </contour>
    <contour>
      <point x="332" y="16" type="curve" smooth="yes"/>
      <point x="185" y="16"/>
      <point x="110" y="112"/>
      <point x="110" y="200" type="curve" smooth="yes"/>
      <point x="110" y="304"/>
      <point x="197" y="387"/>
      <point x="325" y="387" type="curve" smooth="yes"/>
      <point x="455" y="387"/>
      <point x="535" y="314"/>
      <point x="535" y="202" type="curve" smooth="yes"/>
      <point x="535" y="90"/>
      <point x="452" y="16"/>
    </contour>
  </outline>
</glyph>
<glyph name="seven" format="2">
  <advance width="570"/>
  <unicode hex="0037"/>
  <outline>
    <contour>
      <point x="189.89068211553345" y="8.497743795196854" type="line"/>
      <point x="188.0711462744411" y="4.523646466080901"/>
      <point x="190.9752411238268" y="0.0"/>
      <point x="195.34607173805864" y="0.0" type="curve"/>
      <point x="205.1449095011934" y="0.0" type="line"/>
      <point x="207.4934728129953" y="0.0"/>
      <point x="209.62611700180884" y="1.3702560582717034"/>
      <point x="210.60218662207714" y="3.5063828630122513" type="curve"/>
      <point x="521.4572771208838" y="683.8122518460235" type="line"/>
      <point x="521.8149062163742" y="684.5949225502118"/>
      <point x="522.0" y="685.4453621549524"/>
      <point x="522.0" y="686.3058689830112" type="curve"/>
      <point x="522.0" y="694.0" type="line"/>
      <point x="522.0" y="697.3137084989847"/>
      <point x="519.3137084989847" y="700.0"/>
      <point x="516.0" y="700.0" type="curve"/>
      <point x="42.0" y="700.0" type="line"/>
      <point x="38.68629150101524" y="700.0"/>
      <point x="36.0" y="697.3137084989847"/>
      <point x="36.0" y="694.0" type="curve"/>
      <point x="36.0" y="546.0" type="line"/>
      <point x="36.0" y="542.6862915010153"/>
      <point x="38.68629150101524" y="540.0"/>
      <point x="42.0" y="540.0" type="curve"/>
      <point x="50.0" y="540.0" type="line"/>
      <point x="53.31370849898476" y="540.0"/>
      <point x="56.0" y="542.6862915010153"/>
      <point x="56.0" y="546.0" type="curve"/>
      <point x="56" y="689" type="line"/>
      <point x="47" y="681" type="line"/>
      <point x="513" y="681" type="line"/>
      <point x="501" y="688" type="line"/>
    </contour>
  </outline>
</glyph>
<glyph name="nine" format="2">
  <advance width="592"/>
  <unicode hex="0039"/>
  <outline>
    <contour>
      <point x="260" y="703" type="curve" smooth="yes"/>
      <point x="130" y="703"/>
      <point x="37" y="622"/>
      <point x="37" y="498" type="curve" smooth="yes"/>
      <point x="37" y="374"/>
      <point x="127" y="294"/>
      <point x="267" y="294" type="curve" smooth="yes"/>
      <point x="396" y="294"/>
      <point x="498" y="373"/>
      <point x="502" y="505" type="curve"/>
      <point x="494" y="490" type="line"/>
      <point x="510" y="439"/>
      <point x="513" y="382"/>
      <point x="513" y="348" type="curve" smooth="yes"/>
      <point x="513" y="127"/>
      <point x="403" y="16"/>
      <point x="235" y="16" type="curve" smooth="yes"/>
      <point x="183.67176085438314" y="16.0"/>
      <point x="135.95749720093312" y="24.131444857375417"/>
      <point x="101.30391728785239" y="43.82950120783623" type="curve"/>
      <point x="98.36294222522899" y="45.50123303624073"/>
      <point x="94.58217565186206" y="44.589698608165506"/>
      <point x="92.86697657514546" y="41.67386017774727" type="curve"/>
      <point x="88.99431670270286" y="35.09033839459486" type="line"/>
      <point x="87.33298518219827" y="32.266074809737056"/>
      <point x="88.24006728616015" y="28.62173423085934"/>
      <point x="91.09419579613716" y="27.012250566353107" type="curve"/>
      <point x="131.26757368734863" y="4.357911338838169"/>
      <point x="181.29430900896477" y="-3.0"/>
      <point x="235" y="-3" type="curve" smooth="yes"/>
      <point x="413" y="-3"/>
      <point x="533" y="115"/>
      <point x="533" y="350" type="curve" smooth="yes"/>
      <point x="533" y="567"/>
      <point x="442" y="703"/>
    </contour>
    <contour>
      <point x="260" y="684" type="curve" smooth="yes"/>
      <point x="407" y="684"/>
      <point x="482" y="588"/>
      <point x="482" y="500" type="curve" smooth="yes"/>
      <point x="482" y="396"/>
      <point x="395" y="313"/>
      <point x="267" y="313" type="curve" smooth="yes"/>
      <point x="137" y="313"/>
      <point x="57" y="386"/>
      <point x="57" y="498" type="curve" smooth="yes"/>
      <point x="57" y="610"/>
      <point x="140" y="684"/>
    </contour>
  </outline>
</glyph>
<glyph name="less" format="2">
  <advance width="560"/>
  <unicode hex="003C"/>
  <outline>
    <contour>
      <point x="476.69038974889435" y="171.46571549497332" type="line"/>
      <point x="480.6427678427815" y="169.81728463142528"/>
      <point x="485.0" y="172.72101636340244"/>
      <point x="485.0" y="177.00337750054823" type="curve"/>
      <point x="485.0" y="185.98679417463995" type="line"/>
      <point x="485.0" y="188.41564779596465"/>
      <point x="483.53567266619393" y="190.60491103965794"/>
      <point x="481.29082032940863" y="191.532255581806" type="curve"/>
      <point x="91.32727684429963" y="352.62550780235483" type="line"/>
      <point x="89.74210680433151" y="353.2803387508555"/>
      <point x="88.0" y="352.11509988826504"/>
      <point x="88.0" y="350.4" type="curve"/>
      <point x="88.0" y="349.6" type="line"/>
      <point x="88.0" y="347.88490011173496"/>
      <point x="89.74210680433151" y="346.7196612491445"/>
      <point x="91.32727684429963" y="347.37449219764517" type="curve"/>
      <point x="481.29082032940863" y="508.467744418194" type="line"/>
      <point x="483.53567266619393" y="509.3950889603421"/>
      <point x="485.0" y="511.5843522040353"/>
      <point x="485.0" y="514.01320582536" type="curve"/>
      <point x="485.0" y="522.9966224994517" type="line"/>
      <point x="485.0" y="527.2789836365976"/>
      <point x="480.6427678427815" y="530.1827153685747"/>
      <point x="476.69038974889435" y="528.5342845050267" type="curve"/>
      <point x="78.69038974889438" y="362.53916255380716" type="line"/>
      <point x="76.45552874224153" y="361.6070619876178"/>
      <point x="75.0" y="359.4229495327347"/>
      <point x="75.0" y="357.0015005482323" type="curve"/>
      <point x="75.0" y="342.9984994517677" type="line"/>
      <point x="75.0" y="340.5770504672653"/>
      <point x="76.45552874224153" y="338.3929380123822"/>
      <point x="78.69038974889438" y="337.46083744619284" type="curve"/>
    </contour>
  </outline>
</glyph>
<glyph name="equal" format="2">
  <advance width="560"/>
  <unicode hex="003D"/>
  <outline>
    <contour>
      <point x="75.0" y="456.0" type="line"/>
      <point x="75.0" y="452.68629150101526"/>
      <point x="77.68629150101523" y="450.0"/>
      <point x="81.0" y="450.0" type="curve"/>
      <point x="479.0" y="450.0" type="line"/>
      <point x="482.31370849898474" y="450.0"/>
      <point x="485.0" y="452.68629150101526"/>
      <point x="485.0" y="456.0" type="curve"/>
      <point x="485.0" y="463.0" type="line"/>
      <point x="485.0" y="466.31370849898474"/>
      <point x="482.31370849898474" y="469.0"/>
      <point x="479.0" y="469.0" type="curve"/>
      <point x="81.0" y="469.0" type="line"/>
      <point x="77.68629150101523" y="469.0"/>
      <point x="75.0" y="466.31370849898474"/>
      <point x="75.0" y="463.0" type="curve"/>
    </contour>
    <contour>
      <point x="75.0" y="237.0" type="line"/>
      <point x="75.0" y="233.68629150101523"/>
      <point x="77.68629150101523" y="231.0"/>
      <point x="81.0" y="231.0" type="curve"/>
      <point x="479.0" y="231.0" type="line"/>
      <point x="482.31370849898474" y="231.0"/>
      <point x="485.0" y="233.68629150101523"/>
      <point x="485.0" y="237.0" type="curve"/>
      <point x="485.0" y="244.0" type="line"/>
      <point x="485.0" y="247.31370849898477"/>
      <point x="482.31370849898474" y="250.0"/>
      <point x="479.0" y="250.0" type="curve"/>
      <point x="81.0" y="250.0" type="line"/>
      <point x="77.68629150101523" y="250.0"/>
      <point x="75.0" y="247.31370849898477"/>
      <point x="75.0" y="244.0" type="curve"/>
    </contour>
  </outline>
</glyph>
<glyph name="greater" format="2">
  <advance width="560"/>
  <unicode hex="003E"/>
  <outline>
    <contour>
      <point x="75.0" y="177.00337750054823" type="line"/>
      <point x="75.0" y="172.72101636340244"/>
      <point x="79.35723215721852" y="169.81728463142528"/>
      <point x="83.30961025110562" y="171.46571549497332" type="curve"/>
      <point x="481.30961025110565" y="337.46083744619284" type="line"/>
      <point x="483.54447125775846" y="338.3929380123822"/>
      <point x="485.0" y="340.5770504672653"/>
      <point x="485.0" y="342.9984994517677" type="curve"/>
      <point x="485.0" y="357.0015005482323" type="line"/>
      <point x="485.0" y="359.4229495327347"/>
      <point x="483.54447125775846" y="361.6070619876178"/>
      <point x="481.30961025110565" y="362.53916255380716" type="curve"/>
      <point x="83.30961025110562" y="528.5342845050267" type="line"/>
      <point x="79.35723215721852" y="530.1827153685747"/>
      <point x="75.0" y="527.2789836365976"/>
      <point x="75.0" y="522.9966224994517" type="curve"/>
      <point x="75.0" y="514.01320582536" type="line"/>
      <point x="75.0" y="511.5843522040353"/>
      <point x="76.46432733380608" y="509.3950889603421"/>
      <point x="78.70917967059135" y="508.467744418194" type="curve"/>
      <point x="468.6727231557004" y="347.37449219764517" type="line"/>
      <point x="470.2578931956685" y="346.7196612491445"/>
      <point x="472.0" y="347.88490011173496"/>
      <point x="472.0" y="349.6" type="curve"/>
      <point x="472.0" y="350.4" type="line"/>
      <point x="472.0" y="352.11509988826504"/>
      <point x="470.2578931956685" y="353.2803387508555"/>
      <point x="468.6727231557004" y="352.62550780235483" type="curve"/>
      <point x="78.70917967059135" y="191.532255581806" type="line"/>
      <point x="76.46432733380608" y="190.60491103965794"/>
      <point x="75.0" y="188.41564779596465"/>
      <point x="75.0" y="185.98679417463995" type="curve"/>
    </contour>
  </outline>
</glyph>
<glyph name="question" format="2">
  <advance width="554"/>
  <unicode hex="003F"/>
  <outline>
    <contour>
      <point x="250.07170094082798" y="193.99957156614803" type="curve"/>
      <point x="249.99192155928293" y="190.68682357293693"/>
      <point x="252.68629150101523" y="188.0"/>
      <point x="256.0" y="188.0" type="curve"/>
      <point x="264.0" y="188.0" type="line"/>
      <point x="267.31370849898474" y="188.0"/>
      <point x="269.9904811454683" y="190.68702642545463"/>
      <point x="270.08421443555017" y="193.99940896474178" type="curve"/>
      <point x="274.6698949375255" y="356.0499249791689"/>
      <point x="465.0" y="359.15635043542943"/>
      <point x="465" y="536" type="curve" smooth="yes"/>
      <point x="465" y="635"/>
      <point x="382" y="703"/>
      <point x="250" y="703" type="curve" smooth="yes"/>
      <point x="150.48233538664226" y="703.0"/>
      <point x="75.71456550824374" y="672.5385910954349"/>
      <point x="23.839185294329624" y="617.1882884977289" type="curve"/>
      <point x="21.65999288971055" y="614.8631207877883"/>
      <point x="21.764168178585845" y="611.2358318214142"/>
      <point x="24.017530601244502" y="608.9824693987555" type="curve"/>
      <point x="29.515114811610495" y="603.4848851883895" type="line"/>
      <point x="31.950750979242738" y="601.0492490207573"/>
      <point x="35.927668231123064" y="601.1647410515616"/>
      <point x="38.28532717743265" y="603.6759342689471" type="curve"/>
      <point x="88.84832594363579" y="657.5316710162451"/>
      <point x="156.66264721179323" y="684.0"/>
      <point x="250" y="684" type="curve" smooth="yes"/>
      <point x="377" y="684"/>
      <point x="445" y="621"/>
      <point x="445" y="535" type="curve" smooth="yes"/>
      <point x="445.0" y="369.85573349127344"/>
      <point x="254.30967018044626" y="369.9764194928268"/>
    </contour>
    <contour>
      <point x="260" y="-3" type="curve" smooth="yes"/>
      <point x="274" y="-3"/>
      <point x="286" y="9"/>
      <point x="286" y="23" type="curve" smooth="yes"/>
      <point x="286" y="37"/>
      <point x="274" y="49"/>
      <point x="260" y="49" type="curve" smooth="yes"/>
      <point x="246" y="49"/>
      <point x="234" y="37"/>
      <point x="234" y="23" type="curve" smooth="yes"/>
      <point x="234" y="9"/>
      <point x="246" y="-3"/>
    </contour>
  </outline>
</glyph>
<glyph name="at" format="2">
  <advance width="1032"/>
  <unicode hex="0040"/>
  <outline>
    <contour>
      <point x="513" y="-197" type="curve" smooth="yes"/>
      <point x="571.3530210533627" y="-197.0"/>
      <point x="646.7314174369963" y="-183.75804140978926"/>
      <point x="705.0992288284175" y="-153.59456095126149" type="curve"/>
      <point x="707.8804637489438" y="-152.15726660741015"/>
      <point x="709.019363460787" y="-148.7935677867707"/>
      <point x="707.7478787234171" y="-145.93272712768854" type="curve"/>
      <point x="704.6429873661025" y="-138.9467215737306" type="line"/>
      <point x="703.2192986608535" y="-135.74342198692048"/>
      <point x="699.3665434204199" y="-134.44275834984958"/>
      <point x="696.2475909029581" y="-136.04280615105102" type="curve"/>
      <point x="641.8528783740926" y="-163.9477324657428"/>
      <point x="569.9680005960422" y="-177.0"/>
      <point x="513" y="-177" type="curve" smooth="yes"/>
      <point x="258" y="-177"/>
      <point x="79" y="0"/>
      <point x="79" y="254" type="curve" smooth="yes"/>
      <point x="79" y="511"/>
      <point x="260" y="684"/>
      <point x="517" y="684" type="curve" smooth="yes"/>
      <point x="772" y="684"/>
      <point x="953" y="515"/>
      <point x="953" y="259" type="curve" smooth="yes"/>
      <point x="953" y="103"/>
      <point x="902" y="16"/>
      <point x="834" y="16" type="curve" smooth="yes"/>
      <point x="793" y="16"/>
      <point x="762" y="39"/>
      <point x="762" y="99" type="curve" smooth="yes"/>
      <point x="762" y="517" type="line"/>
      <point x="742" y="517" type="line"/>
      <point x="742" y="330" type="line"/>
      <point x="752" y="260" type="line"/>
      <point x="742" y="190" type="line"/>
      <point x="742" y="89" type="line" smooth="yes"/>
      <point x="742" y="32"/>
      <point x="779" y="-3"/>
      <point x="834" y="-3" type="curve" smooth="yes"/>
      <point x="914" y="-3"/>
      <point x="973" y="90"/>
      <point x="973" y="259" type="curve" smooth="yes"/>
      <point x="973" y="526"/>
      <point x="782" y="703"/>
      <point x="517" y="703" type="curve" smooth="yes"/>
      <point x="250" y="703"/>
      <point x="59" y="523"/>
      <point x="59" y="254" type="curve" smooth="yes"/>
      <point x="59" y="-12"/>
      <point x="246" y="-197"/>
    </contour>
    <contour>
      <point x="511" y="-3" type="curve" smooth="yes"/>
      <point x="653" y="-3"/>
      <point x="759" y="106"/>
      <point x="759" y="259" type="curve" smooth="yes"/>
      <point x="759" y="412"/>
      <point x="653" y="520"/>
      <point x="511" y="520" type="curve" smooth="yes"/>
      <point x="369" y="520"/>
      <point x="260" y="412"/>
      <point x="260" y="259" type="curve" smooth="yes"/>
      <point x="260" y="106"/>
      <point x="369" y="-3"/>
    </contour>
    <contour>
      <point x="511" y="16" type="curve" smooth="yes"/>
      <point x="379" y="16"/>
      <point x="280" y="116"/>
      <point x="280" y="259" type="curve" smooth="yes"/>
      <point x="280" y="402"/>
      <point x="379" y="501"/>
      <point x="511" y="501" type="curve" smooth="yes"/>
      <point x="643" y="501"/>
      <point x="742" y="402"/>
      <point x="742" y="259" type="curve" smooth="yes"/>
      <point x="742" y="116"/>
      <point x="643" y="16"/>
    </contour>
  </outline>
</glyph>
<glyph name="A" format="2">
  <advance width="688"/>
  <unicode hex="0041"/>
  <anchor x="344" y="0" name="bottom"/>
  <anchor x="679" y="0" name="ogonek"/>
  <anchor x="344" y="700" name="top"/>
  <anchor x="106" y="700" name="topleft"/>
  <outline>
    <contour>
      <point x="12.958810067980751" y="8.526667838727773" type="line"/>
      <point x="11.112394249931237" y="4.549772230621124"/>
      <point x="14.016237316721934" y="0.0"/>
      <point x="18.40086387447134" y="0.0" type="curve"/>
      <point x="28.167661436434987" y="0.0" type="line"/>
      <point x="30.504548073157782" y="0.0"/>
      <point x="32.628819060014216" y="1.3568209370653679"/>
      <point x="33.611451020218205" y="3.477074125644327" type="curve"/>
      <point x="347.10780559423324" y="679.9171578121626" type="line"/>
      <point x="347.99064683333944" y="681.822089697174"/>
      <point x="346.5995652264218" y="684.0"/>
      <point x="344.5" y="684.0" type="curve"/>
      <point x="343.5" y="684.0" type="line"/>
      <point x="341.4004347735782" y="684.0"/>
      <point x="340.00935316666056" y="681.822089697174"/>
      <point x="340.89219440576676" y="679.9171578121626" type="curve"/>
      <point x="654.3885489797818" y="3.477074125644327" type="line"/>
      <point x="655.3711809399858" y="1.3568209370653679"/>
      <point x="657.4954519268422" y="0.0"/>
      <point x="659.832338563565" y="0.0" type="curve"/>
      <point x="669.5991361255286" y="0.0" type="line"/>
      <point x="673.9837626832781" y="0.0"/>
      <point x="676.8876057500688" y="4.549772230621124"/>
      <point x="675.0411899320193" y="8.526667838727773" type="curve"/>
      <point x="355.61261850344783" y="696.5266678387278" type="line"/>
      <point x="354.6291575155928" y="698.6448915048771"/>
      <point x="352.50595909929444" y="700.0"/>
      <point x="350.17056469695723" y="700.0" type="curve"/>
      <point x="337.82943530304277" y="700.0" type="line"/>
      <point x="335.49404090070556" y="700.0"/>
      <point x="333.3708424844072" y="698.6448915048771"/>
      <point x="332.38738149655217" y="696.5266678387278" type="curve"/>
    </contour>
    <contour>
      <point x="120.5" y="219.55" type="line"/>
      <point x="118.45558382051549" y="215.6656092589794"/>
      <point x="121.27236205671156" y="211.0"/>
      <point x="125.66190974911275" y="211.0" type="curve"/>
      <point x="561.3380902508873" y="211.0" type="line"/>
      <point x="565.7276379432884" y="211.0"/>
      <point x="568.5444161794845" y="215.6656092589794"/>
      <point x="566.5" y="219.55" type="curve"/>
      <point x="562.6871165278969" y="226.79447859699573" type="line"/>
      <point x="561.6495844890962" y="228.76578947071724"/>
      <point x="559.6052829537621" y="230.0"/>
      <point x="557.3776071936051" y="230.0" type="curve"/>
      <point x="129.6223928063949" y="230.0" type="line"/>
      <point x="127.39471704623797" y="230.0"/>
      <point x="125.35041551090382" y="228.76578947071724"/>
      <point x="124.31288347210302" y="226.79447859699573" type="curve"/>
    </contour>
  </outline>
</glyph>
<glyph name="B" format="2">
  <advance width="748"/>
  <unicode hex="0042"/>
  <anchor x="377" y="0" name="bottom"/>
  <anchor x="377" y="700" name="top"/>
  <outline>
    <contour>
      <point x="133.0" y="5.999999999999999" type="line"/>
      <point x="133.0" y="2.6862915010152384"/>
      <point x="135.68629150101523" y="0.0"/>
      <point x="139.0" y="0.0" type="curve"/>
      <point x="430" y="0" type="line" smooth="yes"/>
      <point x="600" y="0"/>
      <point x="683" y="65"/>
      <point x="683" y="183" type="curve" smooth="yes"/>
      <point x="683" y="301"/>
      <point x="602" y="363"/>
      <point x="441" y="363" type="curve"/>
      <point x="424" y="350" type="line"/>
      <point x="554" y="350"/>
      <point x="645" y="406"/>
      <point x="645" y="523" type="curve" smooth="yes"/>
      <point x="645" y="640"/>
      <point x="554" y="700"/>
      <point x="410" y="700" type="curve" smooth="yes"/>
      <point x="139.0" y="700.0" type="line"/>
      <point x="135.68629150101523" y="700.0"/>
      <point x="133.0" y="697.3137084989847"/>
      <point x="133.0" y="694.0" type="curve"/>
    </contour>
    <contour>
      <point x="159.0" y="19.0" type="line"/>
      <point x="155.68629150101523" y="19.0"/>
      <point x="153.0" y="21.686291501015237"/>
      <point x="153.0" y="25.0" type="curve"/>
      <point x="153.0" y="675.0" type="line"/>
      <point x="153.0" y="678.3137084989847"/>
      <point x="155.68629150101523" y="681.0"/>
      <point x="159.0" y="681.0" type="curve"/>
      <point x="414" y="681" type="line" smooth="yes"/>
      <point x="547" y="681"/>
      <point x="625" y="627"/>
      <point x="625" y="523" type="curve" smooth="yes"/>
      <point x="625" y="419"/>
      <point x="547" y="365"/>
      <point x="414" y="365" type="curve" smooth="yes"/>
      <point x="154.0" y="365.0" type="line"/>
      <point x="150.68629150101523" y="365.0"/>
      <point x="148.0" y="362.31370849898474"/>
      <point x="148.0" y="359.0" type="curve"/>
      <point x="148.0" y="352.0" type="line"/>
      <point x="148.0" y="348.68629150101526"/>
      <point x="150.68629150101523" y="346.0"/>
      <point x="154.0" y="346.0" type="curve"/>
      <point x="434" y="346" type="line" smooth="yes"/>
      <point x="583" y="346"/>
      <point x="663" y="296"/>
      <point x="663" y="183" type="curve" smooth="yes"/>
      <point x="663" y="70"/>
      <point x="583" y="19"/>
      <point x="434" y="19" type="curve" smooth="yes"/>
    </contour>
  </outline>
</glyph>
<glyph name="D" format="2">
  <advance width="826"/>
  <unicode hex="0044"/>
  <anchor x="396" y="0" name="bottom"/>
  <anchor x="200" y="356" name="center"/>
  <anchor x="391" y="699" name="top"/>
  <outline>
    <contour>
      <point x="133.0" y="5.999999999999999" type="line"/>
      <point x="133.0" y="2.6862915010152384"/>
      <point x="135.68629150101523" y="0.0"/>
      <point x="139.0" y="0.0" type="curve"/>
      <point x="398" y="0" type="line" smooth="yes"/>
      <point x="619" y="0"/>
      <point x="767" y="148"/>
      <point x="767" y="350" type="curve" smooth="yes"/>
      <point x="767" y="552"/>
      <point x="619" y="700"/>
      <point x="398" y="700" type="curve" smooth="yes"/>
      <point x="139.0" y="700.0" type="line"/>
      <point x="135.68629150101523" y="700.0"/>
      <point x="133.0" y="697.3137084989847"/>
      <point x="133.0" y="694.0" type="curve"/>
    </contour>
    <contour>
      <point x="159.0" y="19.0" type="line"/>
      <point x="155.68629150101523" y="19.0"/>
      <point x="153.0" y="21.68629150101524"/>
      <point x="153.0" y="25.0" type="curve"/>
      <point x="153.0" y="675.0" type="line"/>
      <point x="153.0" y="678.3137084989847"/>
      <point x="155.68629150101523" y="681.0"/>
      <point x="159.0" y="681.0" type="curve"/>
      <point x="396" y="681" type="line" smooth="yes"/>
      <point x="610" y="681"/>
      <point x="747" y="541"/>
      <point x="747" y="350" type="curve" smooth="yes"/>
      <point x="747" y="159"/>
      <point x="610" y="19"/>
      <point x="396" y="19" type="curve" smooth="yes"/>
    </contour>
  </outline>
</glyph>
<glyph name="E" format="2">
  <advance width="668"/>
  <unicode hex="0045"/>
  <anchor x="376" y="0" name="bottom"/>
  <anchor x="599" y="0" name="ogonek"/>
  <anchor x="359" y="700" name="top"/>
  <anchor x="41" y="700" name="topleft"/>
  <outline>
    <contour>
      <point x="148" y="365" type="line"/>
      <point x="148" y="346" type="line"/>
      <point x="533.0" y="346.0" type="line"/>
      <point x="536.3137084989847" y="346.0"/>
      <point x="539.0" y="348.68629150101526"/>
      <point x="539.0" y="352.0" type="curve"/>
      <point x="539.0" y="359.0" type="line"/>
      <point x="539.0" y="362.31370849898474"/>
      <point x="536.3137084989847" y="365.0"/>
      <point x="533.0" y="365.0" type="curve"/>
    </contour>
    <contour>
      <point x="159.0" y="19.0" type="line"/>
      <point x="155.68629150101523" y="19.0"/>
      <point x="153.0" y="21.68629150101524"/>
      <point x="153.0" y="25.0" type="curve"/>
      <point x="153.0" y="675.0" type="line"/>
      <point x="153.0" y="678.3137084989847"/>
      <point x="155.68629150101523" y="681.0"/>
      <point x="159.0" y="681.0" type="curve"/>
      <point x="578.0" y="681.0" type="line"/>
      <point x="581.3137084989847" y="681.0"/>
      <point x="584.0" y="683.6862915010153"/>
      <point x="584.0" y="687.0" type="curve"/>
      <point x="584.0" y="694.0" type="line"/>
      <point x="584.0" y="697.3137084989847"/>
      <point x="581.3137084989847" y="700.0"/>
      <point x="578.0" y="700.0" type="curve"/>
      <point x="139.0" y="700.0" type="line"/>
      <point x="135.68629150101523" y="700.0"/>
      <point x="133.0" y="697.3137084989847"/>
      <point x="133.0" y="694.0" type="curve"/>
      <point x="133.0" y="5.999999999999999" type="line"/>
      <point x="133.0" y="2.6862915010152384"/>
      <point x="135.68629150101523" y="0.0"/>
      <point x="139.0" y="0.0" type="curve"/>
      <point x="593.0" y="0.0" type="line"/>
      <point x="596.3137084989847" y="0.0"/>
      <point x="599.0" y="2.6862915010152384"/>
      <point x="599.0" y="5.999999999999999" type="curve"/>
      <point x="599.0" y="13.0" type="line"/>
      <point x="599.0" y="16.31370849898476"/>
      <point x="596.3137084989847" y="19.0"/>
      <point x="593.0" y="19.0" type="curve"/>
    </contour>
  </outline>
</glyph>
<glyph name="F" format="2">
  <advance width="629"/>
  <unicode hex="0046"/>
  <outline>
    <contour>
      <point x="148" y="345" type="line"/>
      <point x="148" y="326" type="line"/>
      <point x="533.0" y="326.0" type="line"/>
      <point x="536.3137084989847" y="326.0"/>
      <point x="539.0" y="328.68629150101526"/>
      <point x="539.0" y="332.0" type="curve"/>
      <point x="539.0" y="339.0" type="line"/>
      <point x="539.0" y="342.31370849898474"/>
      <point x="536.3137084989847" y="345.0"/>
      <point x="533.0" y="345.0" type="curve"/>
    </contour>
    <contour>
      <point x="147.0" y="0.0" type="line"/>
      <point x="150.31370849898477" y="0.0"/>
      <point x="153.0" y="2.6862915010152384"/>
      <point x="153.0" y="5.999999999999999" type="curve"/>
      <point x="153.0" y="675.0" type="line"/>
      <point x="153.0" y="678.3137084989847"/>
      <point x="155.68629150101523" y="681.0"/>
      <point x="159.0" y="681.0" type="curve"/>
      <point x="578.0" y="681.0" type="line"/>
      <point x="581.3137084989847" y="681.0"/>
      <point x="584.0" y="683.6862915010153"/>
      <point x="584.0" y="687.0" type="curve"/>
      <point x="584.0" y="694.0" type="line"/>
      <point x="584.0" y="697.3137084989847"/>
      <point x="581.3137084989847" y="700.0"/>
      <point x="578.0" y="700.0" type="curve"/>
      <point x="139.0" y="700.0" type="line"/>
      <point x="135.68629150101523" y="700.0"/>
      <point x="133.0" y="697.3137084989847"/>
      <point x="133.0" y="694.0" type="curve"/>
      <point x="133.0" y="5.999999999999999" type="line"/>
      <point x="133.0" y="2.6862915010152384"/>
      <point x="135.68629150101523" y="0.0"/>
      <point x="139.0" y="0.0" type="curve"/>
    </contour>
  </outline>
</glyph>
<glyph name="H" format="2">
  <advance width="816"/>
  <unicode hex="0048"/>
  <anchor x="408" y="0" name="bottom"/>
  <anchor x="408" y="538" name="center"/>
  <anchor x="408" y="700" name="top"/>
  <outline>
    <contour>
      <point x="669.0" y="700.0" type="line"/>
      <point x="665.6862915010153" y="700.0"/>
      <point x="663.0" y="697.3137084989847"/>
      <point x="663.0" y="694.0" type="curve"/>
      <point x="663.0" y="5.999999999999999" type="line"/>
      <point x="663.0" y="2.6862915010152384"/>
      <point x="665.6862915010153" y="0.0"/>
      <point x="669.0" y="0.0" type="curve"/>
      <point x="677.0" y="0.0" type="line"/>
      <point x="680.3137084989847" y="0.0"/>
      <point x="683.0" y="2.6862915010152384"/>
      <point x="683.0" y="5.999999999999999" type="curve"/>
      <point x="683.0" y="694.0" type="line"/>
      <point x="683.0" y="697.3137084989847"/>
      <point x="680.3137084989847" y="700.0"/>
      <point x="677.0" y="700.0" type="curve"/>
    </contour>
    <contour>
      <point x="147.0" y="0.0" type="line"/>
      <point x="150.31370849898477" y="0.0"/>
      <point x="153.0" y="2.6862915010152384"/>
      <point x="153.0" y="5.999999999999999" type="curve"/>
      <point x="153.0" y="694.0" type="line"/>
      <point x="153.0" y="697.3137084989847"/>
      <point x="150.31370849898477" y="700.0"/>
      <point x="147.0" y="700.0" type="curve"/>
      <point x="139.0" y="700.0" type="line"/>
      <point x="135.68629150101523" y="700.0"/>
      <point x="133.0" y="697.3137084989847"/>
      <point x="133.0" y="694.0" type="curve"/>
      <point x="133.0" y="5.999999999999999" type="line"/>
      <point x="133.0" y="2.6862915010152384"/>
      <point x="135.68629150101523" y="0.0"/>
      <point x="139.0" y="0.0" type="curve"/>
    </contour>
    <contour>
      <point x="668" y="346" type="line"/>
      <point x="668" y="365" type="line"/>
      <point x="148" y="365" type="line"/>
      <point x="148" y="346" type="line"/>
    </contour>
  </outline>
</glyph>
<glyph name="I" format="2">
  <advance width="286"/>
  <unicode hex="0049"/>
  <anchor x="143" y="0" name="bottom"/>
  <anchor x="153" y="0" name="ogonek"/>
  <anchor x="143" y="700" name="top"/>
  <anchor x="41" y="699" name="topleft"/>
  <outline>
    <contour>
      <point x="133.0" y="5.999999999999999" type="line"/>
      <point x="133.0" y="2.6862915010152384"/>
      <point x="135.68629150101523" y="0.0"/>
      <point x="139.0" y="0.0" type="curve"/>
      <point x="147.0" y="0.0" type="line"/>
      <point x="150.31370849898477" y="0.0"/>
      <point x="153.0" y="2.6862915010152384"/>
      <point x="153.0" y="5.999999999999999" type="curve"/>
      <point x="153.0" y="694.0" type="line"/>
      <point x="153.0" y="697.3137084989847"/>
      <point x="150.31370849898477" y="700.0"/>
      <point x="147.0" y="700.0" type="curve"/>
      <point x="139.0" y="700.0" type="line"/>
      <point x="135.68629150101523" y="700.0"/>
      <point x="133.0" y="697.3137084989847"/>
      <point x="133.0" y="694.0" type="curve"/>
    </contour>
  </outline>
</glyph>
<glyph name="J" format="2">
  <advance width="477"/>
  <unicode hex="004A"/>
  <anchor x="209" y="700" name="top"/>
  <outline>
    <contour>
      <point x="178" y="-3" type="curve" smooth="yes"/>
      <point x="292" y="-3"/>
      <point x="350" y="63"/>
      <point x="350" y="194" type="curve" smooth="yes"/>
      <point x="350.0" y="694.0" type="line"/>
      <point x="350.0" y="697.3137084989847"/>
      <point x="347.31370849898474" y="700.0"/>
      <point x="344.0" y="700.0" type="curve"/>
      <point x="74.0" y="700.0" type="line"/>
      <point x="70.68629150101523" y="700.0"/>
      <point x="68.0" y="697.3137084989847"/>
      <point x="68.0" y="694.0" type="curve"/>
      <point x="68.0" y="687.0" type="line"/>
      <point x="68.0" y="683.6862915010153"/>
      <point x="70.68629150101523" y="681.0"/>
      <point x="74.0" y="681.0" type="curve"/>
      <point x="324.0" y="681.0" type="line"/>
      <point x="327.31370849898474" y="681.0"/>
      <point x="330.0" y="678.3137084989847"/>
      <point x="330.0" y="675.0" type="curve"/>
      <point x="330" y="196" type="line" smooth="yes"/>
      <point x="330" y="74"/>
      <point x="281" y="16"/>
      <point x="179" y="16" type="curve" smooth="yes"/>
      <point x="113" y="16"/>
      <point x="56" y="49"/>
      <point x="18" y="108" type="curve"/>
      <point x="4" y="96" type="line"/>
      <point x="41" y="34"/>
      <point x="107" y="-3"/>
    </contour>
  </outline>
</glyph>
<glyph name="K" format="2">
  <advance width="693"/>
  <unicode hex="004B"/>
  <anchor x="370" y="0" name="bottom"/>
  <anchor x="370" y="700" name="top"/>
  <outline>
    <contour>
      <point x="149" y="182" type="line"/>
      <point x="328" y="366" type="line"/>
      <point x="340" y="377" type="line"/>
      <point x="645.530882687102" y="691.2881372864139" type="line"/>
      <point x="648.694507378708" y="694.542439118862"/>
      <point x="646.3886122995928" y="700.0"/>
      <point x="641.85" y="700.0" type="curve"/>
      <point x="629.5325637096768" y="700.0" type="line"/>
      <point x="627.913354304782" y="700.0"/>
      <point x="626.3628828180359" y="699.3455553632964"/>
      <point x="625.2333910888626" y="698.185345239815" type="curve"/>
      <point x="149" y="209" type="line"/>
    </contour>
    <contour>
      <point x="133.0" y="5.999999999999999" type="line"/>
      <point x="133.0" y="2.6862915010152384"/>
      <point x="135.68629150101523" y="0.0"/>
      <point x="139.0" y="0.0" type="curve"/>
      <point x="147.0" y="0.0" type="line"/>
      <point x="150.31370849898477" y="0.0"/>
      <point x="153.0" y="2.6862915010152384"/>
      <point x="153.0" y="5.999999999999999" type="curve"/>
      <point x="153.0" y="694.0" type="line"/>
      <point x="153.0" y="697.3137084989847"/>
      <point x="150.31370849898477" y="700.0"/>
      <point x="147.0" y="700.0" type="curve"/>
      <point x="139.0" y="700.0" type="line"/>
      <point x="135.68629150101523" y="700.0"/>
      <point x="133.0" y="697.3137084989847"/>
      <point x="133.0" y="694.0" type="curve"/>
    </contour>
    <contour>
      <point x="648.2087747611556" y="2.027903648781769" type="line"/>
      <point x="649.34770031829" y="0.7384894294434763"/>
      <point x="650.9853230496435" y="0.0"/>
      <point x="652.7057126722946" y="0.0" type="curve"/>
      <point x="664.85" y="0.0" type="line"/>
      <point x="669.5667216044354" y="0.0"/>
      <point x="672.074903875955" y="5.567499966311874"/>
      <point x="668.9497273312332" y="9.100308234258126" type="curve"/>
      <point x="332" y="390" type="line"/>
      <point x="317" y="377" type="line"/>
    </contour>
  </outline>
</glyph>
<glyph name="L" format="2">
  <advance width="580"/>
  <unicode hex="004C"/>
  <guideline x="466" y="20" angle="90"/>
  <anchor x="362" y="0" name="bottom"/>
  <anchor x="143" y="360" name="center"/>
  <anchor x="433" y="360" name="dot"/>
  <anchor x="143" y="700" name="top"/>
  <anchor x="446" y="700" name="topright"/>
  <outline>
    <contour>
      <point x="133.0" y="5.999999999999999" type="line"/>
      <point x="133.0" y="2.6862915010152384"/>
      <point x="135.68629150101523" y="0.0"/>
      <point x="139.0" y="0.0" type="curve"/>
      <point x="564.0" y="0.0" type="line"/>
      <point x="567.3137084989847" y="0.0"/>
      <point x="570.0" y="2.6862915010152384"/>
      <point x="570.0" y="5.999999999999999" type="curve"/>
      <point x="570.0" y="13.0" type="line"/>
      <point x="570.0" y="16.313708498984763"/>
      <point x="567.3137084989847" y="19.0"/>
      <point x="564.0" y="19.0" type="curve"/>
      <point x="159.0" y="19.0" type="line"/>
      <point x="155.68629150101523" y="19.0"/>
      <point x="153.0" y="21.686291501015237"/>
      <point x="153.0" y="25.0" type="curve"/>
      <point x="153.0" y="694.0" type="line"/>
      <point x="153.0" y="697.3137084989847"/>
      <point x="150.31370849898477" y="700.0"/>
      <point x="147.0" y="700.0" type="curve"/>
      <point x="139.0" y="700.0" type="line"/>
      <point x="135.68629150101523" y="700.0"/>
      <point x="133.0" y="697.3137084989847"/>
      <point x="133.0" y="694.0" type="curve"/>
    </contour>
  </outline>
</glyph>
<glyph name="M" format="2">
  <advance width="956"/>
  <unicode hex="004D"/>
  <anchor x="478" y="0" name="bottom"/>
  <anchor x="478" y="700" name="top"/>
  <outline>
    <contour>
      <point x="133.0" y="5.999999999999999" type="line"/>
      <point x="133.0" y="2.6862915010152384"/>
      <point x="135.68629150101523" y="0.0"/>
      <point x="139.0" y="0.0" type="curve"/>
      <point x="147.0" y="0.0" type="line"/>
      <point x="150.31370849898477" y="0.0"/>
      <point x="153.0" y="2.6862915010152384"/>
      <point x="153.0" y="5.999999999999999" type="curve"/>
      <point x="153.0" y="666.95" type="line"/>
      <point x="153.0" y="669.1867532368148"/>
      <point x="151.18675323681472" y="671.0"/>
      <point x="148.95" y="671.0" type="curve"/>
      <point x="148.05" y="671.0" type="line"/>
      <point x="146.2469404927862" y="671.0"/>
      <point x="145.11772928259646" y="669.050789177911"/>
      <point x="146.01465219441678" y="667.4866431243707" type="curve"/>
      <point x="470.2709296031306" y="102.01533008234549" type="line"/>
      <point x="471.3403933507024" y="100.15028964450677"/>
      <point x="473.3259891394944" y="99.0"/>
      <point x="475.47590275221097" y="99.0" type="curve"/>
      <point x="480.518819701264" y="99.0" type="line"/>
      <point x="482.67155701436985" y="99.0"/>
      <point x="484.6593094140667" y="100.15328741543163"/>
      <point x="485.72771806381394" y="102.0221857263045" type="curve"/>
      <point x="809.2133114357827" y="667.87466098247" type="line"/>
      <point x="810.0093467162363" y="669.2671141335999"/>
      <point x="809.0039320265579" y="671.0"/>
      <point x="807.4" y="671.0" type="curve"/>
      <point x="806.6" y="671.0" type="line"/>
      <point x="804.6117749006091" y="671.0"/>
      <point x="803.0" y="669.3882250993909"/>
      <point x="803.0" y="667.4" type="curve"/>
      <point x="803.0" y="5.999999999999999" type="line"/>
      <point x="803.0" y="2.6862915010152384"/>
      <point x="805.6862915010153" y="0.0"/>
      <point x="809.0" y="0.0" type="curve"/>
      <point x="817.0" y="0.0" type="line"/>
      <point x="820.3137084989847" y="0.0"/>
      <point x="823.0" y="2.6862915010152384"/>
      <point x="823.0" y="5.999999999999999" type="curve"/>
      <point x="823.0" y="694.0" type="line"/>
      <point x="823.0" y="697.3137084989847"/>
      <point x="820.3137084989847" y="700.0"/>
      <point x="817.0" y="700.0" type="curve"/>
      <point x="809.4849053601856" y="700.0" type="line"/>
      <point x="807.3301759856076" y="700.0"/>
      <point x="805.3409032560937" y="698.8445954670076"/>
      <point x="804.2732436906304" y="696.972975385382" type="curve"/>
      <point x="476.0067583851329" y="121.51787162694986" type="line"/>
      <point x="475.1121976534683" y="119.94969588650164"/>
      <point x="476.24461526106853" y="118.0"/>
      <point x="478.05" y="118.0" type="curve"/>
      <point x="478.95" y="118.0" type="line"/>
      <point x="480.7540438031672" y="118.0"/>
      <point x="481.8846116976737" y="119.94941739325503"/>
      <point x="480.9886862304831" y="121.51526911068721" type="curve"/>
      <point x="151.72809600292953" y="696.979724102988" type="line"/>
      <point x="150.6593926968348" y="698.8475478992257"/>
      <point x="148.6722407698614" y="700.0"/>
      <point x="146.52028991302257" y="700.0" type="curve"/>
      <point x="139.0" y="700.0" type="line"/>
      <point x="135.68629150101523" y="700.0"/>
      <point x="133.0" y="697.3137084989847"/>
      <point x="133.0" y="694.0" type="curve"/>
    </contour>
  </outline>
</glyph>
<glyph name="N" format="2">
  <advance width="816"/>
  <unicode hex="004E"/>
  <anchor x="408" y="0" name="bottom"/>
  <anchor x="408" y="700" name="top"/>
  <outline>
    <contour>
      <point x="133.0" y="5.999999999999999" type="line"/>
      <point x="133.0" y="2.6862915010152384"/>
      <point x="135.68629150101523" y="0.0"/>
      <point x="139.0" y="0.0" type="curve"/>
      <point x="147.0" y="0.0" type="line"/>
      <point x="150.31370849898477" y="0.0"/>
      <point x="153.0" y="2.6862915010152384"/>
      <point x="153.0" y="5.999999999999999" type="curve"/>
      <point x="153" y="677" type="line"/>
      <point x="142" y="677" type="line"/>
      <point x="664.1984877728905" y="2.3275262934219128" type="line"/>
      <point x="665.3348174469088" y="0.8594057031350133"/>
      <point x="667.0867593990935" y="0.0"/>
      <point x="668.9432677334886" y="0.0" type="curve"/>
      <point x="677.0" y="0.0" type="line"/>
      <point x="680.3137084989847" y="0.0"/>
      <point x="683.0" y="2.6862915010152384"/>
      <point x="683.0" y="5.999999999999999" type="curve"/>
      <point x="683.0" y="694.0" type="line"/>
      <point x="683.0" y="697.3137084989847"/>
      <point x="680.3137084989847" y="700.0"/>
      <point x="677.0" y="700.0" type="curve"/>
      <point x="669.0" y="700.0" type="line"/>
      <point x="665.6862915010153" y="700.0"/>
      <point x="663.0" y="697.3137084989847"/>
      <point x="663.0" y="694.0" type="curve"/>
      <point x="663" y="23" type="line"/>
      <point x="674" y="23" type="line"/>
      <point x="151.8015122271094" y="697.6724737065781" type="line"/>
      <point x="150.6651825530912" y="699.140594296865"/>
      <point x="148.91324060090656" y="700.0"/>
      <point x="147.0567322665114" y="700.0" type="curve"/>
      <point x="139.0" y="700.0" type="line"/>
      <point x="135.68629150101523" y="700.0"/>
      <point x="133.0" y="697.3137084989847"/>
      <point x="133.0" y="694.0" type="curve"/>
    </contour>
  </outline>
</glyph>
<glyph name="P" format="2">
  <advance width="710"/>
  <unicode hex="0050"/>
  <outline>
    <contour>
      <point x="133.0" y="5.999999999999999" type="line"/>
      <point x="133.0" y="2.6862915010152384"/>
      <point x="135.68629150101523" y="0.0"/>
      <point x="139.0" y="0.0" type="curve"/>
      <point x="147.0" y="0.0" type="line"/>
      <point x="150.31370849898477" y="0.0"/>
      <point x="153.0" y="2.6862915010152384"/>
      <point x="153.0" y="5.999999999999999" type="curve"/>
      <point x="153.0" y="243.27243507238896" type="line"/>
      <point x="153.0" y="245.38604898601673"/>
      <point x="150.44455073113645" y="246.44455073113645"/>
      <point x="148.95" y="244.95" type="curve"/>
      <point x="148.05" y="244.05" type="line"/>
      <point x="146.55544926886355" y="242.55544926886355"/>
      <point x="147.61395101398327" y="240.0"/>
      <point x="149.72756492761104" y="240.0" type="curve"/>
      <point x="370" y="240" type="line" smooth="yes"/>
      <point x="542" y="240"/>
      <point x="645" y="325"/>
      <point x="645" y="470" type="curve" smooth="yes"/>
      <point x="645" y="615"/>
      <point x="542" y="700"/>
      <point x="370" y="700" type="curve" smooth="yes"/>
      <point x="139.0" y="700.0" type="line"/>
      <point x="135.68629150101523" y="700.0"/>
      <point x="133.0" y="697.3137084989847"/>
      <point x="133.0" y="694.0" type="curve"/>
    </contour>
    <contour>
      <point x="148.95" y="254.6" type="line"/>
      <point x="150.5192783186372" y="253.20508593898916"/>
      <point x="153.0" y="254.31909386108788"/>
      <point x="153.0" y="256.4187175604565" type="curve"/>
      <point x="153.0" y="683.5812824395434" type="line"/>
      <point x="153.0" y="685.6809061389122"/>
      <point x="150.5192783186372" y="686.7949140610109"/>
      <point x="148.95" y="685.4" type="curve"/>
      <point x="148.05" y="684.6" type="line"/>
      <point x="146.63412089510047" y="683.3414407956449"/>
      <point x="147.524335098925" y="681.0"/>
      <point x="149.41871756045654" y="681.0" type="curve"/>
      <point x="372" y="681" type="line" smooth="yes"/>
      <point x="536" y="681"/>
      <point x="625" y="604"/>
      <point x="625" y="470" type="curve" smooth="yes"/>
      <point x="625" y="336"/>
      <point x="536" y="259"/>
      <point x="372" y="259" type="curve" smooth="yes"/>
      <point x="149.41871756045654" y="259.0" type="line"/>
      <point x="147.524335098925" y="259.0"/>
      <point x="146.63412089510047" y="256.65855920435513"/>
      <point x="148.05" y="255.4" type="curve"/>
    </contour>
  </outline>
</glyph>
<glyph name="Q" format="2">
  <advance width="836"/>
  <unicode hex="0051"/>
  <anchor x="418" y="700" name="top"/>
  <outline>
    <contour>
      <point x="418" y="-3" type="curve" smooth="yes"/>
      <point x="623" y="-3"/>
      <point x="777" y="148"/>
      <point x="777" y="350" type="curve" smooth="yes"/>
      <point x="777" y="552"/>
      <point x="623" y="703"/>
      <point x="418" y="703" type="curve" smooth="yes"/>
      <point x="213" y="703"/>
      <point x="59" y="552"/>
      <point x="59" y="350" type="curve" smooth="yes"/>
      <point x="59" y="148"/>
      <point x="213" y="-3"/>
    </contour>
    <contour>
      <point x="648" y="-124" type="curve" smooth="yes"/>
      <point x="709.2271863192495" y="-124.0"/>
      <point x="762.8982762019718" y="-99.44268658128632"/>
      <point x="803.5056681676253" y="-52.16392690403945" type="curve"/>
      <point x="805.5157249807415" y="-49.823638882456684"/>
      <point x="805.3376924040301" y="-46.33769240403016"/>
      <point x="803.1562620916068" y="-44.15626209160682" type="curve"/>
      <point x="797.6458307947781" y="-38.64583079477811" type="line"/>
      <point x="795.1510250496535" y="-36.15102504965346"/>
      <point x="791.0573153905717" y="-36.34165973892074"/>
      <point x="788.7325634287492" y="-38.99564536959326" type="curve"/>
      <point x="749.6641203313791" y="-83.59699996394785"/>
      <point x="703.9501688699629" y="-105.0"/>
      <point x="648" y="-105" type="curve" smooth="yes"/>
      <point x="585" y="-105"/>
      <point x="519" y="-67"/>
      <point x="451" y="8" type="curve"/>
      <point x="425" y="3" type="line"/>
      <point x="509" y="-85"/>
      <point x="577" y="-124"/>
    </contour>
    <contour>
      <point x="418" y="16" type="curve" smooth="yes"/>
      <point x="225" y="16"/>
      <point x="79" y="161"/>
      <point x="79" y="350" type="curve" smooth="yes"/>
      <point x="79" y="539"/>
      <point x="225" y="684"/>
      <point x="418" y="684" type="curve" smooth="yes"/>
      <point x="611" y="684"/>
      <point x="757" y="539"/>
      <point x="757" y="350" type="curve" smooth="yes"/>
      <point x="757" y="161"/>
      <point x="611" y="16"/>
    </contour>
  </outline>
</glyph>
<glyph name="R" format="2">
  <advance width="716"/>
  <unicode hex="0052"/>
  <anchor x="366" y="0" name="bottom"/>
  <anchor x="366" y="700" name="top"/>
  <outline>
    <contour>
      <point x="133.0" y="5.999999999999999" type="line"/>
      <point x="133.0" y="2.6862915010152384"/>
      <point x="135.68629150101523" y="0.0"/>
      <point x="139.0" y="0.0" type="curve"/>
      <point x="147.0" y="0.0" type="line"/>
      <point x="150.31370849898477" y="0.0"/>
      <point x="153.0" y="2.6862915010152384"/>
      <point x="153.0" y="5.999999999999999" type="curve"/>
      <point x="153.0" y="243.27243507238896" type="line"/>
      <point x="153.0" y="245.38604898601673"/>
      <point x="150.44455073113645" y="246.44455073113645"/>
      <point x="148.95" y="244.95" type="curve"/>
      <point x="148.05" y="244.05" type="line"/>
      <point x="146.55544926886355" y="242.55544926886355"/>
      <point x="147.61395101398327" y="240.0"/>
      <point x="149.72756492761104" y="240.0" type="curve"/>
      <point x="370" y="240" type="line" smooth="yes"/>
      <point x="542" y="240"/>
      <point x="645" y="325"/>
      <point x="645" y="470" type="curve" smooth="yes"/>
      <point x="645" y="615"/>
      <point x="542" y="700"/>
      <point x="370" y="700" type="curve" smooth="yes"/>
      <point x="139.0" y="700.0" type="line"/>
      <point x="135.68629150101523" y="700.0"/>
      <point x="133.0" y="697.3137084989847"/>
      <point x="133.0" y="694.0" type="curve"/>
    </contour>
    <contour>
      <point x="628.2041092330803" y="2.492657130041518" type="line"/>
      <point x="629.3317551578883" y="0.9275092344064254"/>
      <point x="631.143164270312" y="0.0"/>
      <point x="633.0722244733506" y="0.0" type="curve"/>
      <point x="643.75" y="0.0" type="line"/>
      <point x="648.4461367538983" y="0.0"/>
      <point x="651.1688924121837" y="5.317493591832488"/>
      <point x="648.4237321188278" y="9.127716075506704" type="curve"/>
      <point x="473.7958907669197" y="251.50734286995848" type="line"/>
      <point x="472.66824484211173" y="253.07249076559359"/>
      <point x="470.85683572968793" y="254.0"/>
      <point x="468.92777552664944" y="254.0" type="curve"/>
      <point x="458.25" y="254.0" type="line"/>
      <point x="453.55386324610174" y="254.0"/>
      <point x="450.8311075878163" y="248.6825064081675"/>
      <point x="453.57626788117216" y="244.8722839244933" type="curve"/>
    </contour>
    <contour>
      <point x="148.95" y="254.6" type="line"/>
      <point x="150.5192783186372" y="253.20508593898916"/>
      <point x="153.0" y="254.31909386108788"/>
      <point x="153.0" y="256.4187175604565" type="curve"/>
      <point x="153.0" y="683.5812824395434" type="line"/>
      <point x="153.0" y="685.6809061389122"/>
      <point x="150.5192783186372" y="686.7949140610109"/>
      <point x="148.95" y="685.4" type="curve"/>
      <point x="148.05" y="684.6" type="line"/>
      <point x="146.63412089510047" y="683.3414407956449"/>
      <point x="147.524335098925" y="681.0"/>
      <point x="149.41871756045654" y="681.0" type="curve"/>
      <point x="372" y="681" type="line" smooth="yes"/>
      <point x="536" y="681"/>
      <point x="625" y="604"/>
      <point x="625" y="470" type="curve" smooth="yes"/>
      <point x="625" y="336"/>
      <point x="536" y="259"/>
      <point x="372" y="259" type="curve" smooth="yes"/>
      <point x="149.41871756045654" y="259.0" type="line"/>
      <point x="147.524335098925" y="259.0"/>
      <point x="146.63412089510047" y="256.65855920435513"/>
      <point x="148.05" y="255.4" type="curve"/>
    </contour>
  </outline>
</glyph>
<glyph name="T" format="2">
  <advance width="548"/>
  <unicode hex="0054"/>
  <anchor x="274" y="0" name="bottom"/>
  <anchor x="274" y="356" name="center"/>
  <anchor x="274" y="700" name="top"/>
  <outline>
    <contour>
      <point x="264.0" y="5.999999999999999" type="line"/>
      <point x="264.0" y="2.6862915010152384"/>
      <point x="266.68629150101526" y="0.0"/>
      <point x="270.0" y="0.0" type="curve"/>
      <point x="278.0" y="0.0" type="line"/>
      <point x="281.31370849898474" y="0.0"/>
      <point x="284.0" y="2.6862915010152384"/>
      <point x="284.0" y="5.999999999999999" type="curve"/>
      <point x="284.0" y="675.0" type="line"/>
      <point x="284.0" y="678.3137084989847"/>
      <point x="286.68629150101526" y="681.0"/>
      <point x="290.0" y="681.0" type="curve"/>
      <point x="538.0" y="681.0" type="line"/>
      <point x="541.3137084989847" y="681.0"/>
      <point x="544.0" y="683.6862915010153"/>
      <point x="544.0" y="687.0" type="curve"/>
      <point x="544.0" y="694.0" type="line"/>
      <point x="544.0" y="697.3137084989847"/>
      <point x="541.3137084989847" y="700.0"/>
      <point x="538.0" y="700.0" type="curve"/>
      <point x="10.0" y="700.0" type="line"/>
      <point x="6.686291501015239" y="700.0"/>
      <point x="4.0" y="697.3137084989847"/>
      <point x="4.0" y="694.0" type="curve"/>
      <point x="4.0" y="687.0" type="line"/>
      <point x="4.0" y="683.6862915010153"/>
      <point x="6.686291501015239" y="681.0"/>
      <point x="10.0" y="681.0" type="curve"/>
      <point x="258.0" y="681.0" type="line"/>
      <point x="261.31370849898474" y="681.0"/>
      <point x="264.0" y="678.3137084989847"/>
      <point x="264.0" y="675.0" type="curve"/>
    </contour>
  </outline>
</glyph>
<glyph name="U" format="2">
  <advance width="794"/>
  <unicode hex="0055"/>
  <anchor x="397" y="0" name="bottom"/>
  <anchor x="583" y="0" name="ogonek"/>
  <anchor x="397" y="700" name="top"/>
  <anchor x="672" y="700" name="topright"/>
  <outline>
    <contour>
      <point x="397" y="-3" type="curve" smooth="yes"/>
      <point x="564" y="-3"/>
      <point x="667" y="95"/>
      <point x="667" y="293" type="curve" smooth="yes"/>
      <point x="667.0" y="694.0" type="line"/>
      <point x="667.0" y="697.3137084989847"/>
      <point x="664.3137084989847" y="700.0"/>
      <point x="661.0" y="700.0" type="curve"/>
      <point x="653.0" y="700.0" type="line"/>
      <point x="649.6862915010153" y="700.0"/>
      <point x="647.0" y="697.3137084989847"/>
      <point x="647.0" y="694.0" type="curve"/>
      <point x="647" y="294" type="line" smooth="yes"/>
      <point x="647" y="107"/>
      <point x="556" y="16"/>
      <point x="397" y="16" type="curve" smooth="yes"/>
      <point x="238" y="16"/>
      <point x="147" y="107"/>
      <point x="147" y="294" type="curve" smooth="yes"/>
      <point x="147.0" y="694.0" type="line"/>
      <point x="147.0" y="697.3137084989847"/>
      <point x="144.31370849898477" y="700.0"/>
      <point x="141.0" y="700.0" type="curve"/>
      <point x="133.0" y="700.0" type="line"/>
      <point x="129.68629150101523" y="700.0"/>
      <point x="127.0" y="697.3137084989847"/>
      <point x="127.0" y="694.0" type="curve"/>
      <point x="127" y="293" type="line" smooth="yes"/>
      <point x="127" y="95"/>
      <point x="230" y="-3"/>
    </contour>
  </outline>
</glyph>
<glyph name="V" format="2">
  <advance width="670"/>
  <unicode hex="0056"/>
  <outline>
    <contour>
      <point x="323.40798462878774" y="3.537811936027212" type="line"/>
      <point x="324.3768815482906" y="1.384707670465279"/>
      <point x="326.51845050545154" y="0.0"/>
      <point x="328.8795136598384" y="0.0" type="curve"/>
      <point x="341.1204863401616" y="0.0" type="line"/>
      <point x="343.48154949454846" y="0.0"/>
      <point x="345.6231184517094" y="1.384707670465279"/>
      <point x="346.59201537121226" y="3.537811936027212" type="curve"/>
      <point x="656.1920153712123" y="691.5378119360272" type="line"/>
      <point x="657.9787204339241" y="695.5082676309424"/>
      <point x="655.0744309202412" y="700.0"/>
      <point x="650.7204863401616" y="700.0" type="curve"/>
      <point x="640.8836545650947" y="700.0" type="line"/>
      <point x="638.5204756290949" y="700.0"/>
      <point x="636.3774000023233" y="698.6128390931242"/>
      <point x="635.409732272628" y="696.4568627833147" type="curve"/>
      <point x="331.842647087486" y="20.105441719349976" type="line"/>
      <point x="330.97765626966753" y="18.178230907011756"/>
      <point x="332.38757233730865" y="16.0"/>
      <point x="334.5" y="16.0" type="curve"/>
      <point x="335.5" y="16.0" type="line"/>
      <point x="337.61242766269135" y="16.0"/>
      <point x="339.02234373033247" y="18.178230907011756"/>
      <point x="338.157352912514" y="20.105441719349976" type="curve"/>
      <point x="34.59026772737191" y="696.4568627833147" type="line"/>
      <point x="33.6225999976767" y="698.6128390931242"/>
      <point x="31.479524370905125" y="700.0"/>
      <point x="29.11634543490528" y="700.0" type="curve"/>
      <point x="19.27951365983839" y="700.0" type="line"/>
      <point x="14.925569079758768" y="700.0"/>
      <point x="12.021279566075911" y="695.5082676309424"/>
      <point x="13.807984628787754" y="691.5378119360272" type="curve"/>
    </contour>
  </outline>
</glyph>
<glyph name="W" format="2">
  <advance width="1080"/>
  <unicode hex="0057"/>
  <anchor x="540" y="0" name="bottom"/>
  <anchor x="540" y="700" name="top"/>
  <outline>
    <contour>
      <point x="283.6100386100386" y="4.0540540540540535" type="line"/>
      <point x="284.44151550536884" y="1.6289131093408895"/>
      <point x="286.72199385844607" y="0.0"/>
      <point x="289.2857142857143" y="0.0" type="curve"/>
      <point x="300.74133564519207" y="0.0" type="line"/>
      <point x="303.29186701598275" y="0.0"/>
      <point x="305.56364679869085" y="1.6124579304320887"/>
      <point x="306.4052667753309" y="4.0201302686682645" type="curve"/>
      <point x="542" y="678" type="line"/>
      <point x="538" y="678" type="line"/>
      <point x="773.5947332246691" y="4.0201302686682645" type="line"/>
      <point x="774.4363532013092" y="1.6124579304320887"/>
      <point x="776.7081329840173" y="0.0"/>
      <point x="779.2586643548079" y="0.0" type="curve"/>
      <point x="790.7142857142857" y="0.0" type="line"/>
      <point x="793.2780061415539" y="0.0"/>
      <point x="795.5584844946312" y="1.6289131093408895"/>
      <point x="796.3899613899614" y="4.0540540540540535" type="curve"/>
      <point x="1032.2756756756758" y="692.0540540540541" type="line"/>
      <point x="1033.6109004850816" y="695.9484597481542"/>
      <point x="1030.7169431623342" y="700.0"/>
      <point x="1026.6" y="700.0" type="curve"/>
      <point x="1018.2887638825337" y="700.0" type="line"/>
      <point x="1015.7235592599109" y="700.0"/>
      <point x="1013.4421051034319" y="698.3692303023395"/>
      <point x="1012.6117799728135" y="695.9421260743779" type="curve"/>
      <point x="780" y="16" type="line"/>
      <point x="790" y="16" type="line"/>
      <point x="551.408236393623" y="695.9865262781744" type="line"/>
      <point x="550.5646442158035" y="698.3907639849604"/>
      <point x="548.2945781628757" y="700.0"/>
      <point x="545.7466365008257" y="700.0" type="curve"/>
      <point x="534.2533634991743" y="700.0" type="line"/>
      <point x="531.7054218371243" y="700.0"/>
      <point x="529.4353557841965" y="698.3907639849604"/>
      <point x="528.591763606377" y="695.9865262781744" type="curve"/>
      <point x="290" y="16" type="line"/>
      <point x="301" y="16" type="line"/>
      <point x="68.38822002718649" y="695.9421260743779" type="line"/>
      <point x="67.55789489656806" y="698.3692303023395"/>
      <point x="65.27644074008919" y="700.0"/>
      <point x="62.711236117466356" y="700.0" type="curve"/>
      <point x="53.4" y="700.0" type="line"/>
      <point x="49.28305683766557" y="700.0"/>
      <point x="46.38909951491856" y="695.9484597481542"/>
      <point x="47.72432432432432" y="692.0540540540541" type="curve"/>
    </contour>
  </outline>
</glyph>
<glyph name="X" format="2">
  <advance width="621"/>
  <unicode hex="0058"/>
  <outline>
    <contour>
      <point x="31.50235195748021" y="8.62319076798451" type="line"/>
      <point x="28.82803484132148" y="5.076605345121673"/>
      <point x="31.35812649893733" y="0.0"/>
      <point x="35.8" y="0.0" type="curve"/>
      <point x="46.005121199386764" y="0.0" type="line"/>
      <point x="47.89078075063126" y="0.0"/>
      <point x="49.666743188930035" y="0.886465376191066"/>
      <point x="50.80019869211268" y="2.393445988377087" type="curve"/>
      <point x="311.3770506947697" y="348.8422151282733" type="line"/>
      <point x="312.045110986868" y="349.7304316529949"/>
      <point x="311.41141043213884" y="351.0"/>
      <point x="310.3" y="351.0" type="curve"/>
      <point x="309.7" y="351.0" type="line"/>
      <point x="308.58858956786116" y="351.0"/>
      <point x="307.954889013132" y="349.7304316529949"/>
      <point x="308.6229493052303" y="348.8422151282733" type="curve"/>
      <point x="569.1998013078874" y="2.393445988377087" type="line"/>
      <point x="570.33325681107" y="0.886465376191066"/>
      <point x="572.1092192493687" y="0.0"/>
      <point x="573.9948788006133" y="0.0" type="curve"/>
      <point x="584.75" y="0.0" type="line"/>
      <point x="589.376860892223" y="0.0"/>
      <point x="592.0122597506745" y="5.288090330627354"/>
      <point x="589.2264629996621" y="8.982299065665424" type="curve"/>
      <point x="322.1675318401081" y="363.1256642989871" type="line"/>
      <point x="321.4711212383744" y="364.0491653143296"/>
      <point x="320.0" y="363.556651136491"/>
      <point x="320.0" y="362.4" type="curve"/>
      <point x="320.0" y="361.6" type="line"/>
      <point x="320.0" y="360.44801630862446"/>
      <point x="321.46697542203515" y="359.9597874778751"/>
      <point x="322.1573024251191" y="360.88202120855755" type="curve"/>
      <point x="569.5280927246428" y="691.3539363743274" type="line"/>
      <point x="572.1963897086295" y="694.9186143763721"/>
      <point x="569.6527225439065" y="700.0"/>
      <point x="565.2" y="700.0" type="curve"/>
      <point x="555.0091967979515" y="700.0" type="line"/>
      <point x="553.1154771012857" y="700.0"/>
      <point x="551.3329029529558" y="699.1059805967891"/>
      <point x="550.2003877125092" y="697.5882245163546" type="curve"/>
      <point x="309.6147010323595" y="375.16396408844906" type="line"/>
      <point x="308.9482820877165" y="374.27085345362"/>
      <point x="309.5856567782663" y="373.0"/>
      <point x="310.7" y="373.0" type="curve"/>
      <point x="311.3" y="373.0" type="line"/>
      <point x="312.4143432217337" y="373.0"/>
      <point x="313.0517179122835" y="374.27085345362"/>
      <point x="312.3852989676405" y="375.16396408844906" type="curve"/>
      <point x="71.79961228749083" y="697.5882245163546" type="line"/>
      <point x="70.66709704704424" y="699.1059805967891"/>
      <point x="68.88452289871431" y="700.0"/>
      <point x="66.99080320204853" y="700.0" type="curve"/>
      <point x="56.25" y="700.0" type="line"/>
      <point x="51.6117820160924" y="700.0"/>
      <point x="48.96217216282285" y="694.7069051415572"/>
      <point x="51.74166763563401" y="690.9937567493074" type="curve"/>
      <point x="299.6853327131942" y="359.7639956804432" type="line"/>
      <point x="301.06602377483887" y="357.9195203625705"/>
      <point x="304.0" y="358.89600412197694"/>
      <point x="304.0" y="361.2" type="curve"/>
      <point x="304.0" y="362.8" type="line"/>
      <point x="304.0" y="365.1132282025721"/>
      <point x="301.05782313307736" y="366.09818838436786"/>
      <point x="299.66509869501317" y="364.251206154677" type="curve"/>
    </contour>
  </outline>
</glyph>
<glyph name="Y" format="2">
  <advance width="610"/>
  <unicode hex="0059"/>
  <anchor x="305" y="0" name="bottom"/>
  <anchor x="305" y="240" name="center"/>
  <anchor x="305" y="700" name="top"/>
  <outline>
    <contour>
      <point x="295.0" y="5.999999999999999" type="line"/>
      <point x="295.0" y="2.6862915010152384"/>
      <point x="297.68629150101526" y="0.0"/>
      <point x="301.0" y="0.0" type="curve"/>
      <point x="309.0" y="0.0" type="line"/>
      <point x="312.31370849898474" y="0.0"/>
      <point x="315.0" y="2.6862915010152384"/>
      <point x="315.0" y="5.999999999999999" type="curve"/>
      <point x="315" y="245" type="line"/>
      <point x="310" y="230" type="line"/>
      <point x="594.5651391650676" y="691.1917772675233" type="line"/>
      <point x="596.9393309815098" y="695.0396053838261"/>
      <point x="594.1713458166647" y="700.0"/>
      <point x="589.65" y="700.0" type="curve"/>
      <point x="580.3468824867457" y="700.0" type="line"/>
      <point x="578.2665138078098" y="700.0"/>
      <point x="576.3346099967921" y="698.9223574948045"/>
      <point x="575.241644003516" y="697.152227788303" type="curve"/>
      <point x="301" y="253" type="line"/>
      <point x="309" y="253" type="line"/>
      <point x="34.75835599648407" y="697.152227788303" type="line"/>
      <point x="33.665390003207946" y="698.9223574948045"/>
      <point x="31.733486192190117" y="700.0"/>
      <point x="29.653117513254266" y="700.0" type="curve"/>
      <point x="20.35" y="700.0" type="line"/>
      <point x="15.828654183335292" y="700.0"/>
      <point x="13.06066901849022" y="695.0396053838261"/>
      <point x="15.434860834932387" y="691.1917772675233" type="curve"/>
      <point x="300" y="230" type="line"/>
      <point x="295" y="245" type="line"/>
    </contour>
  </outline>
</glyph>
<glyph name="Z" format="2">
  <advance width="639"/>
  <unicode hex="005A"/>
  <anchor x="335" y="0" name="bottom"/>
  <anchor x="325" y="700" name="top"/>
  <outline>
    <contour>
      <point x="50.0" y="5.999999999999999" type="line"/>
      <point x="50.0" y="2.6862915010152384"/>
      <point x="52.68629150101524" y="0.0"/>
      <point x="56.0" y="0.0" type="curve"/>
      <point x="594.0" y="0.0" type="line"/>
      <point x="597.3137084989847" y="0.0"/>
      <point x="600.0" y="2.6862915010152384"/>
      <point x="600.0" y="5.999999999999999" type="curve"/>
      <point x="600.0" y="13.0" type="line"/>
      <point x="600.0" y="16.313708498984763"/>
      <point x="597.3137084989847" y="19.0"/>
      <point x="594.0" y="19.0" type="curve"/>
      <point x="75.18198051533946" y="19.0" type="line"/>
      <point x="73.50255649305583" y="19.0"/>
      <point x="72.21249357707113" y="17.512544960502076"/>
      <point x="72.45" y="15.85" type="curve"/>
      <point x="72.55" y="15.15" type="line"/>
      <point x="72.71772691412771" y="13.975911601106029"/>
      <point x="74.21594247871738" y="13.582841950051833"/>
      <point x="74.938456561425" y="14.52336801903099" type="curve"/>
      <point x="588.7581083671629" y="683.3833789769837" type="line"/>
      <point x="589.5634296052481" y="684.4316984996749"/>
      <point x="590.0" y="685.7166312195583"/>
      <point x="590.0" y="687.0385677226349" type="curve"/>
      <point x="590.0" y="694.0" type="line"/>
      <point x="590.0" y="697.3137084989847"/>
      <point x="587.3137084989847" y="700.0"/>
      <point x="584.0" y="700.0" type="curve"/>
      <point x="61.0" y="700.0" type="line"/>
      <point x="57.68629150101524" y="700.0"/>
      <point x="55.0" y="697.3137084989847"/>
      <point x="55.0" y="694.0" type="curve"/>
      <point x="55.0" y="687.0" type="line"/>
      <point x="55.0" y="683.6862915010153"/>
      <point x="57.68629150101524" y="681.0"/>
      <point x="61.0" y="681.0" type="curve"/>
      <point x="564.8180194846606" y="681.0" type="line"/>
      <point x="566.4974435069441" y="681.0"/>
      <point x="567.7875064229289" y="682.487455039498"/>
      <point x="567.55" y="684.15" type="curve"/>
      <point x="567.45" y="684.85" type="line"/>
      <point x="567.2822730858722" y="686.0240883988939"/>
      <point x="565.7840575212826" y="686.4171580499482"/>
      <point x="565.061543438575" y="685.476631980969" type="curve"/>
      <point x="51.241891632837124" y="16.61662102301622" type="line"/>
      <point x="50.436570394751946" y="15.568301500325068"/>
      <point x="50.0" y="14.283368780441714"/>
      <point x="50.0" y="12.961432277365095" type="curve"/>
    </contour>
  </outline>
</glyph>
<glyph name="bracketleft" format="2">
  <advance width="288"/>
  <unicode hex="005B"/>
  <outline>
    <contour>
      <point x="133.0" y="-188.0" type="line"/>
      <point x="133.0" y="-191.31370849898477"/>
      <point x="135.68629150101523" y="-194.0"/>
      <point x="139.0" y="-194.0" type="curve"/>
      <point x="257.0" y="-194.0" type="line"/>
      <point x="260.31370849898474" y="-194.0"/>
      <point x="263.0" y="-191.31370849898477"/>
      <point x="263.0" y="-188.0" type="curve"/>
      <point x="263.0" y="-181.0" type="line"/>
      <point x="263.0" y="-177.68629150101523"/>
      <point x="260.31370849898474" y="-175.0"/>
      <point x="257.0" y="-175.0" type="curve"/>
      <point x="159.0" y="-175.0" type="line"/>
      <point x="155.68629150101523" y="-175.0"/>
      <point x="153.0" y="-172.31370849898477"/>
      <point x="153.0" y="-169.0" type="curve"/>
      <point x="153.0" y="717.0" type="line"/>
      <point x="153.0" y="720.3137084989847"/>
      <point x="155.68629150101523" y="723.0"/>
      <point x="159.0" y="723.0" type="curve"/>
      <point x="257.0" y="723.0" type="line"/>
      <point x="260.31370849898474" y="723.0"/>
      <point x="263.0" y="725.6862915010153"/>
      <point x="263.0" y="729.0" type="curve"/>
      <point x="263.0" y="736.0" type="line"/>
      <point x="263.0" y="739.3137084989847"/>
      <point x="260.31370849898474" y="742.0"/>
      <point x="257.0" y="742.0" type="curve"/>
      <point x="139.0" y="742.0" type="line"/>
      <point x="135.68629150101523" y="742.0"/>
      <point x="133.0" y="739.3137084989847"/>
      <point x="133.0" y="736.0" type="curve"/>
    </contour>
  </outline>
</glyph>
<glyph name="backslash" format="2">
  <advance width="300"/>
  <unicode hex="005C"/>
  <outline>
    <contour>
      <point x="311.54057164317675" y="-100.0" type="line"/>
      <point x="315.6743797461775" y="-100.0"/>
      <point x="318.5698713360598" y="-95.91763272293444"/>
      <point x="317.2031592549183" y="-92.01629096403958" type="curve"/>
      <point x="-8.59301908903072" y="837.9837090359604" type="line"/>
      <point x="-9.435777299339277" y="840.3894006544775"/>
      <point x="-11.706568928504842" y="842.0"/>
      <point x="-14.25560670077228" y="842.0" type="curve"/>
      <point x="-21.54057164317677" y="842.0" type="line"/>
      <point x="-25.674379746177554" y="842.0"/>
      <point x="-28.569871336059837" y="837.9176327229345"/>
      <point x="-27.203159254918326" y="834.0162909640396" type="curve"/>
      <point x="298.59301908903075" y="-95.98370903596042" type="line"/>
      <point x="299.4357772993393" y="-98.38940065447757"/>
      <point x="301.70656892850485" y="-100.0"/>
      <point x="304.25560670077226" y="-100.0" type="curve"/>
    </contour>
  </outline>
</glyph>
<glyph name="bracketright" format="2">
  <advance width="288"/>
  <unicode hex="005D"/>
  <outline>
    <contour>
      <point x="149.0" y="-194.0" type="line"/>
      <point x="152.31370849898477" y="-194.0"/>
      <point x="155.0" y="-191.31370849898477"/>
      <point x="155.0" y="-188.0" type="curve"/>
      <point x="155.0" y="736.0" type="line"/>
      <point x="155.0" y="739.3137084989847"/>
      <point x="152.31370849898477" y="742.0"/>
      <point x="149.0" y="742.0" type="curve"/>
      <point x="31.0" y="742.0" type="line"/>
      <point x="27.686291501015237" y="742.0"/>
      <point x="25.0" y="739.3137084989847"/>
      <point x="25.0" y="736.0" type="curve"/>
      <point x="25.0" y="729.0" type="line"/>
      <point x="25.0" y="725.6862915010153"/>
      <point x="27.686291501015237" y="723.0"/>
      <point x="31.0" y="723.0" type="curve"/>
      <point x="129.0" y="723.0" type="line"/>
      <point x="132.31370849898477" y="723.0"/>
      <point x="135.0" y="720.3137084989847"/>
      <point x="135.0" y="717.0" type="curve"/>
      <point x="135.0" y="-169.0" type="line"/>
      <point x="135.0" y="-172.31370849898477"/>
      <point x="132.31370849898477" y="-175.0"/>
      <point x="129.0" y="-175.0" type="curve"/>
      <point x="31.0" y="-175.0" type="line"/>
      <point x="27.686291501015237" y="-175.0"/>
      <point x="25.0" y="-177.68629150101523"/>
      <point x="25.0" y="-181.0" type="curve"/>
      <point x="25.0" y="-188.0" type="line"/>
      <point x="25.0" y="-191.31370849898477"/>
      <point x="27.686291501015237" y="-194.0"/>
      <point x="31.0" y="-194.0" type="curve"/>
    </contour>
  </outline>
</glyph>
<glyph name="asciicircum" format="2">
  <advance width="562"/>
  <unicode hex="005E"/>
  <outline>
    <contour>
      <point x="102.46571549497332" y="153.30961025110562" type="line"/>
      <point x="100.81728463142528" y="149.3572321572185"/>
      <point x="103.72101636340246" y="145.0"/>
      <point x="108.00337750054823" y="145.0" type="curve"/>
      <point x="116.98679417463995" y="145.0" type="line"/>
      <point x="119.41564779596466" y="145.0"/>
      <point x="121.60491103965792" y="146.4643273338061"/>
      <point x="122.532255581806" y="148.70917967059137" type="curve"/>
      <point x="285" y="542" type="line"/>
      <point x="277" y="542" type="line"/>
      <point x="439.467744418194" y="148.70917967059137" type="line"/>
      <point x="440.3950889603421" y="146.4643273338061"/>
      <point x="442.5843522040353" y="145.0"/>
      <point x="445.01320582536005" y="145.0" type="curve"/>
      <point x="453.9966224994518" y="145.0" type="line"/>
      <point x="458.27898363659756" y="145.0"/>
      <point x="461.1827153685747" y="149.3572321572185"/>
      <point x="459.5342845050267" y="153.30961025110562" type="curve"/>
      <point x="292" y="555" type="line"/>
      <point x="270" y="555" type="line"/>
    </contour>
  </outline>
</glyph>
<glyph name="underscore" format="2">
  <advance width="500"/>
  <unicode hex="005F"/>
  <outline>
    <contour>
      <point x="0.0" y="-13.0" type="line"/>
      <point x="0.0" y="-16.31370849898476"/>
      <point x="2.6862915010152384" y="-19.0"/>
      <point x="5.999999999999999" y="-19.0" type="curve"/>
      <point x="494.0" y="-19.0" type="line"/>
      <point x="497.31370849898474" y="-19.0"/>
      <point x="500.0" y="-16.31370849898476"/>
      <point x="500.0" y="-13.0" type="curve"/>
      <point x="500.0" y="-5.999999999999999" type="line"/>
      <point x="500.0" y="-2.6862915010152384"/>
      <point x="497.31370849898474" y="0.0"/>
      <point x="494.0" y="0.0" type="curve"/>
      <point x="5.999999999999999" y="0.0" type="line"/>
      <point x="2.6862915010152384" y="0.0"/>
      <point x="0.0" y="-2.6862915010152384"/>
      <point x="0.0" y="-5.999999999999999" type="curve"/>
    </contour>
  </outline>
</glyph>
<glyph name="a" format="2">
  <advance width="574"/>
  <unicode hex="0061"/>
  <anchor x="283" y="0" name="bottom"/>
  <anchor x="465" y="0" name="ogonek"/>
  <anchor x="273" y="517" name="top"/>
  <outline>
    <contour>
      <point x="445.0" y="5.999999999999999" type="line"/>
      <point x="445.0" y="2.6862915010152384"/>
      <point x="447.68629150101526" y="0.0"/>
      <point x="451.0" y="0.0" type="curve"/>
      <point x="459.0" y="0.0" type="line"/>
      <point x="462.31370849898474" y="0.0"/>
      <point x="465.0" y="2.6862915010152384"/>
      <point x="465.0" y="5.999999999999999" type="curve"/>
      <point x="465" y="339" type="line" smooth="yes"/>
      <point x="465" y="457"/>
      <point x="400" y="520"/>
      <point x="280" y="520" type="curve" smooth="yes"/>
      <point x="204.33953040596407" y="520.0"/>
      <point x="132.44270753065928" y="491.7726496095166"/>
      <point x="83.4760212479004" y="447.1829187504352" type="curve"/>
      <point x="80.98976699809867" y="444.9189017980579"/>
      <point x="80.95421617194148" y="441.0457838280585"/>
      <point x="83.33194964684031" y="438.6680503531597" type="curve"/>
      <point x="88.8526873829994" y="433.1473126170006" type="line"/>
      <point x="91.15827181729581" y="430.8417281827042"/>
      <point x="94.87799289362697" y="430.80554092471493"/>
      <point x="97.29032210532972" y="432.99919243343396" type="curve"/>
      <point x="142.1456320884118" y="473.78836745196077"/>
      <point x="206.41198918164673" y="501.0"/>
      <point x="281" y="501" type="curve" smooth="yes"/>
      <point x="388" y="501"/>
      <point x="445" y="446"/>
      <point x="445" y="338" type="curve" smooth="yes"/>
      <point x="445" y="140" type="line"/>
      <point x="445" y="123" type="line"/>
    </contour>
    <contour>
      <point x="248" y="-3" type="curve" smooth="yes"/>
      <point x="356" y="-3"/>
      <point x="427" y="52"/>
      <point x="455" y="135" type="curve"/>
      <point x="445" y="148" type="line"/>
      <point x="411" y="64"/>
      <point x="348" y="16"/>
      <point x="248" y="16" type="curve" smooth="yes"/>
      <point x="145" y="16"/>
      <point x="85" y="65"/>
      <point x="85" y="143" type="curve" smooth="yes"/>
      <point x="85" y="212"/>
      <point x="131" y="262"/>
      <point x="248" y="262" type="curve" smooth="yes"/>
      <point x="456" y="262" type="line"/>
      <point x="456" y="281" type="line"/>
      <point x="249" y="281" type="line" smooth="yes"/>
      <point x="111" y="281"/>
      <point x="65" y="216"/>
      <point x="65" y="142" type="curve" smooth="yes"/>
      <point x="65" y="55"/>
      <point x="132" y="-3"/>
    </contour>
  </outline>
</glyph>
<glyph name="b" format="2">
  <advance width="671"/>
  <unicode hex="0062"/>
  <outline>
    <contour>
      <point x="366" y="-3" type="curve" smooth="yes"/>
      <point x="508" y="-3"/>
      <point x="617" y="106"/>
      <point x="617" y="259" type="curve" smooth="yes"/>
      <point x="617" y="412"/>
      <point x="508" y="520"/>
      <point x="366" y="520" type="curve" smooth="yes"/>
      <point x="224" y="520"/>
      <point x="118" y="412"/>
      <point x="118" y="259" type="curve" smooth="yes"/>
      <point x="118" y="106"/>
      <point x="224" y="-3"/>
    </contour>
    <contour>
      <point x="115.0" y="5.999999999999999" type="line"/>
      <point x="115.0" y="2.6862915010152384"/>
      <point x="117.68629150101523" y="0.0"/>
      <point x="121.0" y="0.0" type="curve"/>
      <point x="129.0" y="0.0" type="line"/>
      <point x="132.31370849898477" y="0.0"/>
      <point x="135.0" y="2.6862915010152384"/>
      <point x="135.0" y="5.999999999999999" type="curve"/>
      <point x="135" y="190" type="line"/>
      <point x="125" y="260" type="line"/>
      <point x="135" y="330" type="line"/>
      <point x="135.0" y="736.0" type="line"/>
      <point x="135.0" y="739.3137084989847"/>
      <point x="132.31370849898477" y="742.0"/>
      <point x="129.0" y="742.0" type="curve"/>
      <point x="121.0" y="742.0" type="line"/>
      <point x="117.68629150101523" y="742.0"/>
      <point x="115.0" y="739.3137084989847"/>
      <point x="115.0" y="736.0" type="curve"/>
    </contour>
    <contour>
      <point x="366" y="16" type="curve" smooth="yes"/>
      <point x="234" y="16"/>
      <point x="135" y="116"/>
      <point x="135" y="259" type="curve" smooth="yes"/>
      <point x="135" y="402"/>
      <point x="234" y="501"/>
      <point x="366" y="501" type="curve" smooth="yes"/>
      <point x="498" y="501"/>
      <point x="597" y="402"/>
      <point x="597" y="259" type="curve" smooth="yes"/>
      <point x="597" y="116"/>
      <point x="498" y="16"/>
    </contour>
  </outline>
</glyph>
<glyph name="e" format="2">
  <advance width="587"/>
  <unicode hex="0065"/>
  <guideline x="438" y="80" angle="90"/>
  <anchor x="294" y="0" name="bottom"/>
  <anchor x="493" y="0" name="ogonek"/>
  <anchor x="294" y="517" name="top"/>
  <outline>
    <contour>
      <point x="312" y="-3" type="curve" smooth="yes"/>
      <point x="384.1446707138539" y="-3.0"/>
      <point x="452.4874031425285" y="24.56405256754963"/>
      <point x="498.4951171739528" y="77.8388496914418" type="curve"/>
      <point x="500.51276310246817" y="80.17519001550326"/>
      <point x="500.33578089467545" y="83.6642191053245"/>
      <point x="498.1529637696407" y="85.84703623035931" type="curve"/>
      <point x="492.8627516685996" y="91.13724833140037" type="line"/>
      <point x="490.29097003592597" y="93.70902996407403"/>
      <point x="486.0458582721641" y="93.41409615992475"/>
      <point x="483.74138688996044" y="90.60028501115879" type="curve"/>
      <point x="442.5180557043889" y="40.26567475086024"/>
      <point x="378.65897062628255" y="16.0"/>
      <point x="312" y="16" type="curve" smooth="yes"/>
      <point x="175" y="16"/>
      <point x="73" y="116"/>
      <point x="73" y="259" type="curve" smooth="yes"/>
      <point x="73" y="263" type="line" smooth="yes"/>
      <point x="73" y="399"/>
      <point x="166" y="501"/>
      <point x="293" y="501" type="curve" smooth="yes"/>
      <point x="420" y="501"/>
      <point x="514" y="399"/>
      <point x="514" y="263" type="curve"/>
      <point x="522" y="278" type="line"/>
      <point x="65" y="278" type="line"/>
      <point x="65" y="259" type="line"/>
      <point x="533" y="259" type="line"/>
      <point x="533" y="261"/>
      <point x="533" y="262"/>
      <point x="533" y="264" type="curve" smooth="yes"/>
      <point x="533" y="414"/>
      <point x="429" y="520"/>
      <point x="293" y="520" type="curve" smooth="yes"/>
      <point x="156" y="520"/>
      <point x="54" y="412"/>
      <point x="54" y="259" type="curve" smooth="yes"/>
      <point x="54" y="106"/>
      <point x="163" y="-3"/>
    </contour>
  </outline>
</glyph>
<glyph name="f" format="2">
  <advance width="311"/>
  <unicode hex="0066"/>
  <outline>
    <contour>
      <point x="123.0" y="5.999999999999999" type="line"/>
      <point x="123.0" y="2.6862915010152384"/>
      <point x="125.68629150101523" y="0.0"/>
      <point x="129.0" y="0.0" type="curve"/>
      <point x="137.0" y="0.0" type="line"/>
      <point x="140.31370849898477" y="0.0"/>
      <point x="143.0" y="2.6862915010152384"/>
      <point x="143.0" y="5.999999999999999" type="curve"/>
      <point x="143" y="503" type="line"/>
      <point x="143" y="514" type="line"/>
      <point x="143" y="613" type="line" smooth="yes"/>
      <point x="143" y="686"/>
      <point x="179" y="726"/>
      <point x="249" y="726" type="curve" smooth="yes"/>
      <point x="279.8783374809004" y="726.0"/>
      <point x="309.00557904704533" y="716.3689724688446"/>
      <point x="330.64692902690854" y="697.9261739310376" type="curve"/>
      <point x="333.12766367781967" y="695.812087266616"/>
      <point x="336.84040844473225" y="695.8404084447322"/>
      <point x="339.1451217493448" y="698.1451217493449" type="curve"/>
      <point x="344.8430603933298" y="703.8430603933298" type="line"/>
      <point x="347.1524684813882" y="706.1524684813883"/>
      <point x="347.20186579331" y="709.900903088457"/>
      <point x="344.7914733060855" y="712.1047042346385" type="curve"/>
      <point x="320.49914232837943" y="734.3149737802983"/>
      <point x="282.913942886727" y="745.0"/>
      <point x="248" y="745" type="curve" smooth="yes"/>
      <point x="168" y="745"/>
      <point x="123" y="694"/>
      <point x="123" y="618" type="curve" smooth="yes"/>
    </contour>
    <contour>
      <point x="23.0" y="504.0" type="line"/>
      <point x="23.0" y="500.68629150101526"/>
      <point x="25.68629150101524" y="498.0"/>
      <point x="29.0" y="498.0" type="curve"/>
      <point x="312.0" y="498.0" type="line"/>
      <point x="315.31370849898474" y="498.0"/>
      <point x="318.0" y="500.68629150101526"/>
      <point x="318.0" y="504.0" type="curve"/>
      <point x="318.0" y="511.0" type="line"/>
      <point x="318.0" y="514.3137084989847"/>
      <point x="315.31370849898474" y="517.0"/>
      <point x="312.0" y="517.0" type="curve"/>
      <point x="29.0" y="517.0" type="line"/>
      <point x="25.68629150101524" y="517.0"/>
      <point x="23.0" y="514.3137084989847"/>
      <point x="23.0" y="511.0" type="curve"/>
    </contour>
  </outline>
</glyph>
<glyph name="g" format="2">
  <advance width="677"/>
  <unicode hex="0067"/>
  <anchor x="315" y="517" name="top"/>
  <outline>
    <contour>
      <point x="323" y="-197" type="curve" smooth="yes"/>
      <point x="483" y="-197"/>
      <point x="562" y="-121"/>
      <point x="562" y="46" type="curve" smooth="yes"/>
      <point x="562.0" y="511.0" type="line"/>
      <point x="562.0" y="514.3137084989847"/>
      <point x="559.3137084989847" y="517.0"/>
      <point x="556.0" y="517.0" type="curve"/>
      <point x="548.0" y="517.0" type="line"/>
      <point x="544.6862915010153" y="517.0"/>
      <point x="542.0" y="514.3137084989847"/>
      <point x="542.0" y="511.0" type="curve"/>
      <point x="542" y="329" type="line"/>
      <point x="552" y="269" type="line"/>
      <point x="542" y="209" type="line"/>
      <point x="542" y="43" type="line" smooth="yes"/>
      <point x="542" y="-110"/>
      <point x="472" y="-178"/>
      <point x="323" y="-178" type="curve" smooth="yes"/>
      <point x="238.32150497025805" y="-178.0"/>
      <point x="165.01113918427674" y="-150.52702099424508"/>
      <point x="112.28955470781521" y="-101.11345422219073" type="curve"/>
      <point x="109.88805109285828" y="-98.8626330374825"/>
      <point x="106.1249551884392" y="-98.8750448115608"/>
      <point x="103.79757300901716" y="-101.20242699098284" type="curve"/>
      <point x="98.04168318391868" y="-106.95831681608132" type="line"/>
      <point x="95.77850640522064" y="-109.22149359477936"/>
      <point x="95.68343918096632" y="-112.86982117325091"/>
      <point x="97.9039295955704" y="-115.17489396644582" type="curve"/>
      <point x="147.4857661917767" y="-166.6453897735303"/>
      <point x="231.44855681757963" y="-197.0"/>
    </contour>
    <contour>
      <point x="308" y="17" type="curve" smooth="yes"/>
      <point x="453" y="17"/>
      <point x="559" y="123"/>
      <point x="559" y="269" type="curve" smooth="yes"/>
      <point x="559" y="416"/>
      <point x="453" y="520"/>
      <point x="308" y="520" type="curve" smooth="yes"/>
      <point x="163" y="520"/>
      <point x="54" y="416"/>
      <point x="54" y="269" type="curve" smooth="yes"/>
      <point x="54" y="122"/>
      <point x="163" y="17"/>
    </contour>
    <contour>
      <point x="308" y="36" type="curve" smooth="yes"/>
      <point x="173" y="36"/>
      <point x="74" y="132"/>
      <point x="74" y="269" type="curve" smooth="yes"/>
      <point x="74" y="406"/>
      <point x="173" y="501"/>
      <point x="308" y="501" type="curve" smooth="yes"/>
      <point x="443" y="501"/>
      <point x="542" y="406"/>
      <point x="542" y="269" type="curve" smooth="yes"/>
      <point x="542" y="132"/>
      <point x="443" y="36"/>
    </contour>
  </outline>
</glyph>
<glyph name="h" format="2">
  <advance width="668"/>
  <unicode hex="0068"/>
  <anchor x="335" y="0" name="bottom"/>
  <anchor x="189" y="630" name="center"/>
  <anchor x="125" y="742" name="top"/>
  <anchor x="228" y="517" name="topright"/>
  <outline>
    <contour>
      <point x="352" y="520" type="curve" smooth="yes"/>
      <point x="240" y="520"/>
      <point x="163" y="463"/>
      <point x="133" y="373" type="curve"/>
      <point x="135" y="370" type="line"/>
      <point x="135.0" y="736.0" type="line"/>
      <point x="135.0" y="739.3137084989847"/>
      <point x="132.31370849898477" y="742.0"/>
      <point x="129.0" y="742.0" type="curve"/>
      <point x="121.0" y="742.0" type="line"/>
      <point x="117.68629150101523" y="742.0"/>
      <point x="115.0" y="739.3137084989847"/>
      <point x="115.0" y="736.0" type="curve"/>
      <point x="115.0" y="5.999999999999999" type="line"/>
      <point x="115.0" y="2.6862915010152384"/>
      <point x="117.68629150101523" y="0.0"/>
      <point x="121.0" y="0.0" type="curve"/>
      <point x="129.0" y="0.0" type="line"/>
      <point x="132.31370849898477" y="0.0"/>
      <point x="135.0" y="2.6862915010152384"/>
      <point x="135.0" y="5.999999999999999" type="curve"/>
      <point x="135" y="281" type="line" smooth="yes"/>
      <point x="135" y="412"/>
      <point x="217" y="501"/>
      <point x="353" y="501" type="curve" smooth="yes"/>
      <point x="470" y="501"/>
      <point x="539" y="433"/>
      <point x="539" y="305" type="curve" smooth="yes"/>
      <point x="539.0" y="5.999999999999999" type="line"/>
      <point x="539.0" y="2.6862915010152384"/>
      <point x="541.6862915010153" y="0.0"/>
      <point x="545.0" y="0.0" type="curve"/>
      <point x="553.0" y="0.0" type="line"/>
      <point x="556.3137084989847" y="0.0"/>
      <point x="559.0" y="2.6862915010152384"/>
      <point x="559.0" y="5.999999999999999" type="curve"/>
      <point x="559" y="305" type="line" smooth="yes"/>
      <point x="559" y="445"/>
      <point x="479" y="520"/>
    </contour>
  </outline>
</glyph>
<glyph name="k" format="2">
  <advance width="570"/>
  <unicode hex="006B"/>
  <anchor x="307" y="0" name="bottom"/>
  <anchor x="125" y="742" name="top"/>
  <anchor x="223" y="517" name="topright"/>
  <outline>
    <contour>
      <point x="128" y="154" type="line"/>
      <point x="288" y="299" type="line"/>
      <point x="304" y="311" type="line"/>
      <point x="519.3748130782681" y="508.18760664054764" type="line"/>
      <point x="522.7874649729943" y="511.3120790419414"/>
      <point x="520.5769342702971" y="517.0"/>
      <point x="515.95" y="517.0" type="curve"/>
      <point x="502.3237902404442" y="517.0" type="line"/>
      <point x="500.82870431281367" y="517.0"/>
      <point x="499.3874794586161" y="516.441815958255"/>
      <point x="498.28241601481864" y="515.4347823360847" type="curve"/>
      <point x="128" y="178" type="line"/>
    </contour>
    <contour>
      <point x="115.0" y="5.999999999999999" type="line"/>
      <point x="115.0" y="2.6862915010152384"/>
      <point x="117.68629150101523" y="0.0"/>
      <point x="121.0" y="0.0" type="curve"/>
      <point x="129.0" y="0.0" type="line"/>
      <point x="132.31370849898477" y="0.0"/>
      <point x="135.0" y="2.6862915010152384"/>
      <point x="135.0" y="5.999999999999999" type="curve"/>
      <point x="135.0" y="736.0" type="line"/>
      <point x="135.0" y="739.3137084989847"/>
      <point x="132.31370849898477" y="742.0"/>
      <point x="129.0" y="742.0" type="curve"/>
      <point x="121.0" y="742.0" type="line"/>
      <point x="117.68629150101523" y="742.0"/>
      <point x="115.0" y="739.3137084989847"/>
      <point x="115.0" y="736.0" type="curve"/>
    </contour>
    <contour>
      <point x="524.1984219841364" y="2.263139325712961" type="line"/>
      <point x="525.3367796974362" y="0.8331362478487843"/>
      <point x="527.0648836449174" y="0.0"/>
      <point x="528.8926601865465" y="0.0" type="curve"/>
      <point x="540.3" y="0.0" type="line"/>
      <point x="545.0204673767794" y="0.0"/>
      <point x="547.6483493803461" y="5.456831729407267"/>
      <point x="544.7051974683002" y="9.147450793718782" type="curve"/>
      <point x="300" y="316" type="line"/>
      <point x="284" y="304" type="line"/>
    </contour>
  </outline>
</glyph>
<glyph name="l" format="2">
  <advance width="250"/>
  <unicode hex="006C"/>
  <anchor x="125" y="0" name="bottom"/>
  <anchor x="125" y="350" name="center"/>
  <anchor x="251" y="350" name="dot"/>
  <anchor x="125" y="742" name="top"/>
  <anchor x="235" y="742" name="topright"/>
  <outline>
    <contour>
      <point x="115.0" y="5.999999999999999" type="line"/>
      <point x="115.0" y="2.6862915010152384"/>
      <point x="117.68629150101523" y="0.0"/>
      <point x="121.0" y="0.0" type="curve"/>
      <point x="129.0" y="0.0" type="line"/>
      <point x="132.31370849898477" y="0.0"/>
      <point x="135.0" y="2.6862915010152384"/>
      <point x="135.0" y="5.999999999999999" type="curve"/>
      <point x="135.0" y="736.0" type="line"/>
      <point x="135.0" y="739.3137084989847"/>
      <point x="132.31370849898477" y="742.0"/>
      <point x="129.0" y="742.0" type="curve"/>
      <point x="121.0" y="742.0" type="line"/>
      <point x="117.68629150101523" y="742.0"/>
      <point x="115.0" y="739.3137084989847"/>
      <point x="115.0" y="736.0" type="curve"/>
    </contour>
  </outline>
</glyph>
<glyph name="m" format="2">
  <advance width="1068"/>
  <unicode hex="006D"/>
  <anchor x="537" y="0" name="bottom"/>
  <outline>
    <contour>
      <point x="758" y="520" type="curve" smooth="yes"/>
      <point x="643" y="520"/>
      <point x="565" y="455"/>
      <point x="540" y="360" type="curve"/>
      <point x="543" y="359" type="line"/>
      <point x="525" y="465"/>
      <point x="453" y="520"/>
      <point x="346" y="520" type="curve" smooth="yes"/>
      <point x="238" y="520"/>
      <point x="162" y="463"/>
      <point x="133" y="374" type="curve"/>
      <point x="134.1" y="372.35" type="line"/>
      <point x="134.36961176316186" y="371.9455823552572"/>
      <point x="135.0" y="372.13644855568464"/>
      <point x="135.0" y="372.6224980739588" type="curve"/>
      <point x="135.0" y="511.0" type="line"/>
      <point x="135.0" y="514.3137084989847"/>
      <point x="132.31370849898477" y="517.0"/>
      <point x="129.0" y="517.0" type="curve"/>
      <point x="121.0" y="517.0" type="line"/>
      <point x="117.68629150101523" y="517.0"/>
      <point x="115.0" y="514.3137084989847"/>
      <point x="115.0" y="511.0" type="curve"/>
      <point x="115.0" y="5.999999999999999" type="line"/>
      <point x="115.0" y="2.6862915010152384"/>
      <point x="117.68629150101523" y="0.0"/>
      <point x="121.0" y="0.0" type="curve"/>
      <point x="129.0" y="0.0" type="line"/>
      <point x="132.31370849898477" y="0.0"/>
      <point x="135.0" y="2.6862915010152384"/>
      <point x="135.0" y="5.999999999999999" type="curve"/>
      <point x="135" y="281" type="line" smooth="yes"/>
      <point x="135" y="412"/>
      <point x="215" y="501"/>
      <point x="347" y="501" type="curve" smooth="yes"/>
      <point x="460" y="501"/>
      <point x="527" y="433"/>
      <point x="527" y="305" type="curve" smooth="yes"/>
      <point x="527.0" y="5.999999999999999" type="line"/>
      <point x="527.0" y="2.6862915010152384"/>
      <point x="529.6862915010153" y="0.0"/>
      <point x="533.0" y="0.0" type="curve"/>
      <point x="541.0" y="0.0" type="line"/>
      <point x="544.3137084989847" y="0.0"/>
      <point x="547.0" y="2.6862915010152384"/>
      <point x="547.0" y="5.999999999999999" type="curve"/>
      <point x="547" y="281" type="line" smooth="yes"/>
      <point x="547" y="412"/>
      <point x="627" y="501"/>
      <point x="759" y="501" type="curve" smooth="yes"/>
      <point x="872" y="501"/>
      <point x="939" y="433"/>
      <point x="939" y="305" type="curve" smooth="yes"/>
      <point x="939.0" y="5.999999999999999" type="line"/>
      <point x="939.0" y="2.6862915010152384"/>
      <point x="941.6862915010153" y="0.0"/>
      <point x="945.0" y="0.0" type="curve"/>
      <point x="953.0" y="0.0" type="line"/>
      <point x="956.3137084989847" y="0.0"/>
      <point x="959.0" y="2.6862915010152384"/>
      <point x="959.0" y="5.999999999999999" type="curve"/>
      <point x="959" y="305" type="line" smooth="yes"/>
      <point x="959" y="445"/>
      <point x="882" y="520"/>
    </contour>
  </outline>
</glyph>
<glyph name="n" format="2">
  <advance width="668"/>
  <unicode hex="006E"/>
  <anchor x="335" y="0" name="bottom"/>
  <anchor x="335" y="517" name="top"/>
  <outline>
    <contour>
      <point x="352" y="520" type="curve" smooth="yes"/>
      <point x="240" y="520"/>
      <point x="163" y="463"/>
      <point x="133" y="373" type="curve"/>
      <point x="135" y="370" type="line"/>
      <point x="135.0" y="511.0" type="line"/>
      <point x="135.0" y="514.3137084989847"/>
      <point x="132.31370849898477" y="517.0"/>
      <point x="129.0" y="517.0" type="curve"/>
      <point x="121.0" y="517.0" type="line"/>
      <point x="117.68629150101523" y="517.0"/>
      <point x="115.0" y="514.3137084989847"/>
      <point x="115.0" y="511.0" type="curve"/>
      <point x="115.0" y="5.999999999999999" type="line"/>
      <point x="115.0" y="2.6862915010152384"/>
      <point x="117.68629150101523" y="0.0"/>
      <point x="121.0" y="0.0" type="curve"/>
      <point x="129.0" y="0.0" type="line"/>
      <point x="132.31370849898477" y="0.0"/>
      <point x="135.0" y="2.6862915010152384"/>
      <point x="135.0" y="5.999999999999999" type="curve"/>
      <point x="135" y="281" type="line" smooth="yes"/>
      <point x="135" y="412"/>
      <point x="217" y="501"/>
      <point x="353" y="501" type="curve" smooth="yes"/>
      <point x="470" y="501"/>
      <point x="539" y="433"/>
      <point x="539" y="305" type="curve" smooth="yes"/>
      <point x="539.0" y="5.999999999999999" type="line"/>
      <point x="539.0" y="2.6862915010152384"/>
      <point x="541.6862915010153" y="0.0"/>
      <point x="545.0" y="0.0" type="curve"/>
      <point x="553.0" y="0.0" type="line"/>
      <point x="556.3137084989847" y="0.0"/>
      <point x="559.0" y="2.6862915010152384"/>
      <point x="559.0" y="5.999999999999999" type="curve"/>
      <point x="559" y="305" type="line" smooth="yes"/>
      <point x="559" y="445"/>
      <point x="479" y="520"/>
    </contour>
  </outline>
</glyph>
<glyph name="p" format="2">
  <advance width="671"/>
  <unicode hex="0070"/>
  <anchor x="366" y="0" name="bottom"/>
  <anchor x="366" y="517" name="top"/>
  <outline>
    <contour>
      <point x="366" y="-3" type="curve" smooth="yes"/>
      <point x="508" y="-3"/>
      <point x="617" y="105"/>
      <point x="617" y="258" type="curve" smooth="yes"/>
      <point x="617" y="411"/>
      <point x="508" y="520"/>
      <point x="366" y="520" type="curve" smooth="yes"/>
      <point x="224" y="520"/>
      <point x="118" y="411"/>
      <point x="118" y="258" type="curve" smooth="yes"/>
      <point x="118" y="105"/>
      <point x="224" y="-3"/>
    </contour>
    <contour>
      <point x="115.0" y="-188.0" type="line"/>
      <point x="115.0" y="-191.31370849898477"/>
      <point x="117.68629150101523" y="-194.0"/>
      <point x="121.0" y="-194.0" type="curve"/>
      <point x="129.0" y="-194.0" type="line"/>
      <point x="132.31370849898477" y="-194.0"/>
      <point x="135.0" y="-191.31370849898477"/>
      <point x="135.0" y="-188.0" type="curve"/>
      <point x="135" y="187" type="line"/>
      <point x="125" y="257" type="line"/>
      <point x="135" y="327" type="line"/>
      <point x="135.0" y="511.0" type="line"/>
      <point x="135.0" y="514.3137084989847"/>
      <point x="132.31370849898477" y="517.0"/>
      <point x="129.0" y="517.0" type="curve"/>
      <point x="121.0" y="517.0" type="line"/>
      <point x="117.68629150101523" y="517.0"/>
      <point x="115.0" y="514.3137084989847"/>
      <point x="115.0" y="511.0" type="curve"/>
    </contour>
    <contour>
      <point x="366" y="16" type="curve" smooth="yes"/>
      <point x="234" y="16"/>
      <point x="135" y="115"/>
      <point x="135" y="258" type="curve" smooth="yes"/>
      <point x="135" y="401"/>
      <point x="234" y="501"/>
      <point x="366" y="501" type="curve" smooth="yes"/>
      <point x="498" y="501"/>
      <point x="597" y="401"/>
      <point x="597" y="258" type="curve" smooth="yes"/>
      <point x="597" y="115"/>
      <point x="498" y="16"/>
    </contour>
  </outline>
</glyph>
<glyph name="r" format="2">
  <advance width="383"/>
  <unicode hex="0072"/>
  <anchor x="125" y="0" name="bottom"/>
  <anchor x="227" y="517" name="top"/>
  <outline>
    <contour>
      <point x="115.0" y="5.999999999999999" type="line"/>
      <point x="115.0" y="2.6862915010152384"/>
      <point x="117.68629150101523" y="0.0"/>
      <point x="121.0" y="0.0" type="curve"/>
      <point x="129.0" y="0.0" type="line"/>
      <point x="132.31370849898477" y="0.0"/>
      <point x="135.0" y="2.6862915010152384"/>
      <point x="135.0" y="5.999999999999999" type="curve"/>
      <point x="135" y="278" type="line" smooth="yes"/>
      <point x="135" y="415"/>
      <point x="208" y="500"/>
      <point x="332" y="500" type="curve" smooth="yes"/>
      <point x="334" y="500"/>
      <point x="336" y="500"/>
      <point x="338" y="500" type="curve"/>
      <point x="338" y="520" type="line"/>
      <point x="232" y="520"/>
      <point x="161" y="468"/>
      <point x="133" y="377" type="curve"/>
      <point x="134.1" y="375.35" type="line"/>
      <point x="134.36961176316186" y="374.9455823552572"/>
      <point x="135.0" y="375.13644855568464"/>
      <point x="135.0" y="375.6224980739588" type="curve"/>
      <point x="135.0" y="511.0" type="line"/>
      <point x="135.0" y="514.3137084989847"/>
      <point x="132.31370849898477" y="517.0"/>
      <point x="129.0" y="517.0" type="curve"/>
      <point x="121.0" y="517.0" type="line"/>
      <point x="117.68629150101523" y="517.0"/>
      <point x="115.0" y="514.3137084989847"/>
      <point x="115.0" y="511.0" type="curve"/>
    </contour>
  </outline>
</glyph>
<glyph name="s" format="2">
  <advance width="463"/>
  <unicode hex="0073"/>
  <anchor x="232" y="0" name="bottom"/>
  <anchor x="232" y="517" name="top"/>
  <outline>
    <contour>
      <point x="234" y="-3" type="curve" smooth="yes"/>
      <point x="363" y="-3"/>
      <point x="426" y="53"/>
      <point x="426" y="131" type="curve" smooth="yes"/>
      <point x="426" y="326"/>
      <point x="73" y="209"/>
      <point x="73" y="387" type="curve" smooth="yes"/>
      <point x="73" y="451"/>
      <point x="121" y="501"/>
      <point x="235" y="501" type="curve" smooth="yes"/>
      <point x="290.72731574882437" y="501.0"/>
      <point x="348.3009654575591" y="485.30616134076223"/>
      <point x="389.0940875158963" y="454.80547743230136" type="curve"/>
      <point x="391.8124144973748" y="452.7730065686262"/>
      <point x="395.6888124913162" y="453.2517499884216"/>
      <point x="397.7253011803032" y="455.9670682404042" type="curve"/>
      <point x="402.55371478410586" y="462.4049530454745" type="line"/>
      <point x="404.4808841006853" y="464.97451213424705"/>
      <point x="404.0490178892015" y="468.61577213189224"/>
      <point x="401.488837778382" y="470.55538376457105" type="curve"/>
      <point x="361.90226108601786" y="500.5464708470591"/>
      <point x="296.5984134808241" y="520.0"/>
      <point x="235" y="520" type="curve" smooth="yes"/>
      <point x="107" y="520"/>
      <point x="52" y="456"/>
      <point x="52" y="387" type="curve" smooth="yes"/>
      <point x="52" y="186"/>
      <point x="406" y="304"/>
      <point x="406" y="131" type="curve" smooth="yes"/>
      <point x="406" y="63"/>
      <point x="357" y="16"/>
      <point x="234" y="16" type="curve" smooth="yes"/>
      <point x="154.59442441184046" y="16.0"/>
      <point x="87.08726523365769" y="45.288409624558184"/>
      <point x="48.99104523879382" y="79.34769699099559" type="curve"/>
      <point x="46.293636504979084" y="81.75927008727969"/>
      <point x="42.07709760227513" y="81.43613013636684"/>
      <point x="39.90615045336679" y="78.54153393782238" type="curve"/>
      <point x="35.04427209052777" y="72.05902945403703" type="line"/>
      <point x="33.286823740338804" y="69.7157649871184"/>
      <point x="33.4691691379167" y="66.43591862735397"/>
      <point x="35.5656385753408" y="64.39035538867078" type="curve"/>
      <point x="75.67889218072025" y="25.251126600313672"/>
      <point x="152.485185540334" y="-3.0"/>
    </contour>
  </outline>
</glyph>
<glyph name="t" format="2">
  <advance width="388"/>
  <unicode hex="0074"/>
  <anchor x="241" y="0" name="bottom"/>
  <anchor x="171" y="307" name="center"/>
  <anchor x="133" y="630" name="top"/>
  <anchor x="248" y="742" name="topright"/>
  <outline>
    <contour>
      <point x="248" y="-3" type="curve" smooth="yes"/>
      <point x="285" y="-3"/>
      <point x="325" y="9"/>
      <point x="349" y="34" type="curve"/>
      <point x="335" y="48" type="line"/>
      <point x="313" y="27"/>
      <point x="282" y="16"/>
      <point x="249" y="16" type="curve" smooth="yes"/>
      <point x="179" y="16"/>
      <point x="143" y="56"/>
      <point x="143" y="129" type="curve" smooth="yes"/>
      <point x="143.0" y="624.0" type="line"/>
      <point x="143.0" y="627.3137084989847"/>
      <point x="140.31370849898477" y="630.0"/>
      <point x="137.0" y="630.0" type="curve"/>
      <point x="129.0" y="630.0" type="line"/>
      <point x="125.68629150101523" y="630.0"/>
      <point x="123.0" y="627.3137084989847"/>
      <point x="123.0" y="624.0" type="curve"/>
      <point x="123" y="124" type="line" smooth="yes"/>
      <point x="123" y="48"/>
      <point x="166" y="-3"/>
    </contour>
    <contour>
      <point x="23.0" y="504.0" type="line"/>
      <point x="23.0" y="500.68629150101526"/>
      <point x="25.686291501015237" y="498.0"/>
      <point x="29.0" y="498.0" type="curve"/>
      <point x="312.0" y="498.0" type="line"/>
      <point x="315.31370849898474" y="498.0"/>
      <point x="318.0" y="500.68629150101526"/>
      <point x="318.0" y="504.0" type="curve"/>
      <point x="318.0" y="511.0" type="line"/>
      <point x="318.0" y="514.3137084989847"/>
      <point x="315.31370849898474" y="517.0"/>
      <point x="312.0" y="517.0" type="curve"/>
      <point x="29.0" y="517.0" type="line"/>
      <point x="25.686291501015237" y="517.0"/>
      <point x="23.0" y="514.3137084989847"/>
      <point x="23.0" y="511.0" type="curve"/>
    </contour>
  </outline>
</glyph>
<glyph name="u" format="2">
  <advance width="664"/>
  <unicode hex="0075"/>
  <anchor x="329" y="0" name="bottom"/>
  <anchor x="549" y="0" name="ogonek"/>
  <anchor x="329" y="517" name="top"/>
  <anchor x="540" y="517" name="topright"/>
  <outline>
    <contour>
      <point x="321" y="-3" type="curve" smooth="yes"/>
      <point x="428" y="-3"/>
      <point x="502" y="53"/>
      <point x="531" y="143" type="curve"/>
      <point x="529" y="146" type="line"/>
      <point x="529.0" y="5.999999999999999" type="line"/>
      <point x="529.0" y="2.6862915010152384"/>
      <point x="531.6862915010153" y="0.0"/>
      <point x="535.0" y="0.0" type="curve"/>
      <point x="543.0" y="0.0" type="line"/>
      <point x="546.3137084989847" y="0.0"/>
      <point x="549.0" y="2.6862915010152384"/>
      <point x="549.0" y="5.999999999999999" type="curve"/>
      <point x="549.0" y="511.0" type="line"/>
      <point x="549.0" y="514.3137084989847"/>
      <point x="546.3137084989847" y="517.0"/>
      <point x="543.0" y="517.0" type="curve"/>
      <point x="535.0" y="517.0" type="line"/>
      <point x="531.6862915010153" y="517.0"/>
      <point x="529.0" y="514.3137084989847"/>
      <point x="529.0" y="511.0" type="curve"/>
      <point x="529" y="236" type="line" smooth="yes"/>
      <point x="529" y="105"/>
      <point x="450" y="16"/>
      <point x="320" y="16" type="curve" smooth="yes"/>
      <point x="199" y="16"/>
      <point x="129" y="84"/>
      <point x="129" y="212" type="curve" smooth="yes"/>
      <point x="129.0" y="511.0" type="line"/>
      <point x="129.0" y="514.3137084989847"/>
      <point x="126.31370849898477" y="517.0"/>
      <point x="123.0" y="517.0" type="curve"/>
      <point x="115.0" y="517.0" type="line"/>
      <point x="111.68629150101523" y="517.0"/>
      <point x="109.0" y="514.3137084989847"/>
      <point x="109.0" y="511.0" type="curve"/>
      <point x="109" y="212" type="line" smooth="yes"/>
      <point x="109" y="72"/>
      <point x="190" y="-3"/>
    </contour>
  </outline>
</glyph>
<glyph name="v" format="2">
  <advance width="508"/>
  <unicode hex="0076"/>
  <anchor x="254" y="0" name="bottom"/>
  <anchor x="254" y="517" name="top"/>
  <outline>
    <contour>
      <point x="242.39292443067876" y="3.4910002913406677" type="line"/>
      <point x="243.37245352016876" y="1.3631997061880292"/>
      <point x="245.50070917345758" y="0.0"/>
      <point x="247.84314648688414" y="0.0" type="curve"/>
      <point x="260.1568535131159" y="0.0" type="line"/>
      <point x="262.49929082654245" y="0.0"/>
      <point x="264.62754647983127" y="1.3631997061880292"/>
      <point x="265.60707556932124" y="3.4910002913406677" type="curve"/>
      <point x="498.08289761961134" y="508.4910002913407" type="line"/>
      <point x="499.9128754352412" y="512.4662042017635"/>
      <point x="497.00886853620074" y="517.0"/>
      <point x="492.632675563406" y="517.0" type="curve"/>
      <point x="482.8609381099739" y="517.0" type="line"/>
      <point x="480.5093787184983" y="517.0"/>
      <point x="478.3745917009302" y="515.6262865745324"/>
      <point x="477.40022738721603" y="513.4860889771602" type="curve"/>
      <point x="250" y="14" type="line"/>
      <point x="258" y="14" type="line"/>
      <point x="30.59977261278395" y="513.4860889771602" type="line"/>
      <point x="29.62540829906979" y="515.6262865745324"/>
      <point x="27.4906212815017" y="517.0"/>
      <point x="25.139061890026074" y="517.0" type="curve"/>
      <point x="15.367324436593984" y="517.0" type="line"/>
      <point x="10.991131463799226" y="517.0"/>
      <point x="8.087124564758781" y="512.4662042017635"/>
      <point x="9.917102380388627" y="508.4910002913407" type="curve"/>
    </contour>
  </outline>
</glyph>
<glyph name="w" format="2">
  <advance width="838"/>
  <unicode hex="0077"/>
  <anchor x="419" y="0" name="bottom"/>
  <anchor x="419" y="517" name="top"/>
  <outline>
    <contour>
      <point x="209.52013513426206" y="3.8446740481734336" type="line"/>
      <point x="210.4117439648415" y="1.5282832672208433"/>
      <point x="212.6375881374044" y="0.0"/>
      <point x="215.11965029554014" y="0.0" type="curve"/>
      <point x="223.89815673030543" y="0.0" type="line"/>
      <point x="226.3713648971303" y="0.0"/>
      <point x="228.59117493034918" y="1.5175521407932155"/>
      <point x="229.4889197125815" y="3.8220722518844283" type="curve"/>
      <point x="422" y="498" type="line"/>
      <point x="415" y="498" type="line"/>
      <point x="607.5110802874185" y="3.8220722518844283" type="line"/>
      <point x="608.4088250696508" y="1.5175521407932155"/>
      <point x="610.6286351028697" y="0.0"/>
      <point x="613.1018432696945" y="0.0" type="curve"/>
      <point x="622.8803497044598" y="0.0" type="line"/>
      <point x="625.3624118625955" y="0.0"/>
      <point x="627.5882560351585" y="1.5282832672208433"/>
      <point x="628.4798648657379" y="3.8446740481734336" type="curve"/>
      <point x="822.8609093531654" y="508.84467404817343" type="line"/>
      <point x="824.3737102316841" y="512.7749155265359"/>
      <point x="821.4727318150526" y="517.0"/>
      <point x="817.2613941918873" y="517.0" type="curve"/>
      <point x="809.1396749411247" y="517.0" type="line"/>
      <point x="806.6476788001953" y="517.0"/>
      <point x="804.4150898766183" y="515.4596345965393"/>
      <point x="803.5304552196178" y="513.129942279936" type="curve"/>
      <point x="614" y="14" type="line"/>
      <point x="622" y="14" type="line"/>
      <point x="429.48138322533805" y="513.1590940085307" type="line"/>
      <point x="428.5887465994963" y="515.4735075281102"/>
      <point x="426.36390653532425" y="517.0"/>
      <point x="423.8833198939415" y="517.0" type="curve"/>
      <point x="413.1166801060585" y="517.0" type="line"/>
      <point x="410.63609346467575" y="517.0"/>
      <point x="408.4112534005037" y="515.4735075281102"/>
      <point x="407.51861677466195" y="513.1590940085307" type="curve"/>
      <point x="215" y="14" type="line"/>
      <point x="223" y="14" type="line"/>
      <point x="33.46954478038216" y="513.129942279936" type="line"/>
      <point x="32.58491012338169" y="515.4596345965393"/>
      <point x="30.352321199804724" y="517.0"/>
      <point x="27.860325058875336" y="517.0" type="curve"/>
      <point x="20.738605808112663" y="517.0" type="line"/>
      <point x="16.527268184947367" y="517.0"/>
      <point x="13.626289768315969" y="512.7749155265359"/>
      <point x="15.139090646834598" y="508.84467404817343" type="curve"/>
    </contour>
  </outline>
</glyph>
<glyph name="x" format="2">
  <advance width="498"/>
  <unicode hex="0078"/>
  <outline>
    <contour>
      <point x="34.895513934538656" y="8.889003744997703" type="line"/>
      <point x="32.08656954483614" y="5.2679948634854465"/>
      <point x="34.667219849869305" y="0.0"/>
      <point x="39.25" y="0.0" type="curve"/>
      <point x="50.05541568247784" y="0.0" type="line"/>
      <point x="51.912669546837975" y="0.0"/>
      <point x="53.665227902485015" y="0.8600926415967832"/>
      <point x="54.80149433278462" y="2.3292047939033487" type="curve"/>
      <point x="249.62345179771376" y="254.22022050613495" type="line"/>
      <point x="250.18477052316024" y="254.94596592893444"/>
      <point x="249.66748849052794" y="256.0"/>
      <point x="248.75" y="256.0" type="curve"/>
      <point x="248.25" y="256.0" type="line"/>
      <point x="247.33251150947206" y="256.0"/>
      <point x="246.81522947683976" y="254.94596592893444"/>
      <point x="247.37654820228624" y="254.22022050613495" type="curve"/>
      <point x="442.1985056672154" y="2.3292047939033487" type="line"/>
      <point x="443.334772097515" y="0.8600926415967832"/>
      <point x="445.08733045316205" y="0.0"/>
      <point x="446.9445843175222" y="0.0" type="curve"/>
      <point x="458.3" y="0.0" type="line"/>
      <point x="463.0489369326192" y="0.0"/>
      <point x="465.71168116941845" y="5.47061233994745"/>
      <point x="462.7819198543527" y="9.208111587671594" type="curve"/>
      <point x="259.34296902888906" y="268.73537128557615" type="line"/>
      <point x="258.1503003871144" y="270.2568597865316"/>
      <point x="255.71054617442178" y="269.52655409306124"/>
      <point x="255.55" y="267.6" type="curve"/>
      <point x="255.45" y="266.4" type="line"/>
      <point x="255.31656958330748" y="264.79883499969"/>
      <point x="257.34683667523103" y="264.00395094429575"/>
      <point x="258.3360011812258" y="265.27008151196907" type="curve"/>
      <point x="448.351044346699" y="508.4893367637747" type="line"/>
      <point x="451.0529490008076" y="511.9477747210337"/>
      <point x="448.5887449076135" y="517.0"/>
      <point x="444.2" y="517.0" type="curve"/>
      <point x="433.9312885167472" y="517.0" type="line"/>
      <point x="432.08156807958375" y="517.0"/>
      <point x="430.33524336331425" y="516.1468364021146"/>
      <point x="429.19836260672724" y="514.6877381048905" type="curve"/>
      <point x="246.21264286293433" y="279.839755546012" type="line"/>
      <point x="245.31267225278947" y="278.6847130517084"/>
      <point x="246.13573558987065" y="277.0"/>
      <point x="247.6" y="277.0" type="curve"/>
      <point x="248.4" y="277.0" type="line"/>
      <point x="249.86426441012935" y="277.0"/>
      <point x="250.68732774721053" y="278.6847130517084"/>
      <point x="249.78735713706567" y="279.839755546012" type="curve"/>
      <point x="66.80163739327278" y="514.6877381048905" type="line"/>
      <point x="65.66475663668572" y="516.1468364021146"/>
      <point x="63.918431920416225" y="517.0"/>
      <point x="62.06871148325282" y="517.0" type="curve"/>
      <point x="51.25" y="517.0" type="line"/>
      <point x="46.687414402117646" y="517.0"/>
      <point x="44.13162874432808" y="511.7415634163097"/>
      <point x="46.950492459233914" y="508.15391868824776" type="curve"/>
      <point x="236.0341038597959" y="267.50204963298705" type="line"/>
      <point x="236.77365953649647" y="266.56079695355"/>
      <point x="238.28071330793665" y="266.96499315555656"/>
      <point x="238.45" y="268.15" type="curve"/>
      <point x="238.55" y="268.85" type="line"/>
      <point x="238.67231287644253" y="269.7061901350977"/>
      <point x="237.5797706077918" y="270.1691829635989"/>
      <point x="237.04965413484857" y="269.4858100695678" type="curve"/>
    </contour>
  </outline>
</glyph>
<glyph name="y" format="2">
  <advance width="508"/>
  <unicode hex="0079"/>
  <guideline x="365" y="266" angle="65.5217"/>
  <anchor x="342" y="0" name="bottom"/>
  <anchor x="239" y="517" name="top"/>
  <outline>
    <contour>
      <point x="81" y="-197" type="curve" smooth="yes"/>
      <point x="142" y="-197"/>
      <point x="188" y="-168"/>
      <point x="227" y="-83" type="curve" smooth="yes"/>
      <point x="498.10419954614366" y="508.50007173704074" type="line"/>
      <point x="499.92576005407875" y="512.4743855725354"/>
      <point x="497.0216812778478" y="517.0"/>
      <point x="492.64981060877795" y="517.0" type="curve"/>
      <point x="482.8609381099739" y="517.0" type="line"/>
      <point x="480.5093787184983" y="517.0"/>
      <point x="478.37459170093024" y="515.6262865745323"/>
      <point x="477.40022738721603" y="513.4860889771602" type="curve"/>
      <point x="250" y="14" type="line"/>
      <point x="245" y="7" type="line"/>
      <point x="207" y="-77" type="line" smooth="yes"/>
      <point x="171" y="-155"/>
      <point x="132" y="-178"/>
      <point x="82" y="-178" type="curve" smooth="yes"/>
      <point x="41" y="-178"/>
      <point x="12" y="-165"/>
      <point x="-16" y="-135" type="curve"/>
      <point x="-31" y="-151" type="line"/>
      <point x="-3" y="-182"/>
      <point x="36" y="-197"/>
    </contour>
    <contour>
      <point x="244.00115002436206" y="-0.1383012875027454" type="line"/>
      <point x="245.83208365576115" y="-4.11662621498721"/>
      <point x="251.5666025699301" y="-3.8705484168608626"/>
      <point x="253.05" y="0.2500000000000018" type="curve"/>
      <point x="257.1731673929639" y="11.703242758232996" type="line"/>
      <point x="257.70329206425305" y="13.175811289591746"/>
      <point x="257.6370436316824" y="14.797236040453102"/>
      <point x="256.9885536445094" y="16.22164854502959" type="curve"/>
      <point x="30.59977261278395" y="513.4860889771602" type="line"/>
      <point x="29.62540829906979" y="515.6262865745323"/>
      <point x="27.4906212815017" y="517.0"/>
      <point x="25.139061890026074" y="517.0" type="curve"/>
      <point x="15.366295818621936" y="517.0" type="line"/>
      <point x="10.990362053123386" y="517.0"/>
      <point x="8.086350612773785" y="512.4666949648372"/>
      <point x="9.915823503902242" y="508.49154399152104" type="curve"/>
    </contour>
  </outline>
</glyph>
<glyph name="z" format="2">
  <advance width="491"/>
  <unicode hex="007A"/>
  <anchor x="255" y="0" name="bottom"/>
  <anchor x="245" y="517" name="top"/>
  <outline>
    <contour>
      <point x="46.0" y="5.999999999999999" type="line"/>
      <point x="46.0" y="2.6862915010152384"/>
      <point x="48.68629150101524" y="0.0"/>
      <point x="52.0" y="0.0" type="curve"/>
      <point x="437.0" y="0.0" type="line"/>
      <point x="440.31370849898474" y="0.0"/>
      <point x="443.0" y="2.6862915010152384"/>
      <point x="443.0" y="5.999999999999999" type="curve"/>
      <point x="443.0" y="13.0" type="line"/>
      <point x="443.0" y="16.313708498984763"/>
      <point x="440.31370849898474" y="19.0"/>
      <point x="437.0" y="19.0" type="curve"/>
      <point x="63.03738353924943" y="19.0" type="line"/>
      <point x="61.53344294822434" y="19.0"/>
      <point x="61.05483464173868" y="16.97258267913066"/>
      <point x="62.4" y="16.3" type="curve"/>
      <point x="64.53455270217361" y="15.232723648913195" type="line"/>
      <point x="67.12219317219223" y="13.938903413903885"/>
      <point x="70.26460070411362" y="14.675852965613984"/>
      <point x="72.00723573553414" y="16.98519857635824" type="curve"/>
      <point x="436.78940146036075" y="500.3957108783643" type="line"/>
      <point x="437.57501589274295" y="501.4368096790009"/>
      <point x="438.0" y="502.70554576682747"/>
      <point x="438.0" y="504.00979909691875" type="curve"/>
      <point x="438.0" y="511.0" type="line"/>
      <point x="438.0" y="514.3137084989847"/>
      <point x="435.31370849898474" y="517.0"/>
      <point x="432.0" y="517.0" type="curve"/>
      <point x="57.0" y="517.0" type="line"/>
      <point x="53.68629150101524" y="517.0"/>
      <point x="51.0" y="514.3137084989847"/>
      <point x="51.0" y="511.0" type="curve"/>
      <point x="51.0" y="504.0" type="line"/>
      <point x="51.0" y="500.68629150101526"/>
      <point x="53.68629150101524" y="498.0"/>
      <point x="57.0" y="498.0" type="curve"/>
      <point x="418.5" y="498.0" type="line"/>
      <point x="419.94151844011225" y="498.0"/>
      <point x="420.5532147520898" y="499.8350889359327"/>
      <point x="419.4" y="500.7" type="curve"/>
      <point x="418.6" y="501.3" type="line"/>
      <point x="416.6100661218893" y="502.792450408583"/>
      <point x="413.78772479120545" y="502.3934889509471"/>
      <point x="412.2894338360842" y="500.40794890472944" type="curve"/>
      <point x="47.21059853963923" y="16.60428912163572" type="line"/>
      <point x="46.424984107257025" y="15.563190320999146"/>
      <point x="46.0" y="14.294454233172523"/>
      <point x="46.0" y="12.99020090308127" type="curve"/>
    </contour>
  </outline>
</glyph>
<glyph name="braceleft" format="2">
  <advance width="300"/>
  <unicode hex="007B"/>
  <outline>
    <contour>
      <point x="250" y="-194" type="curve" smooth="yes"/>
      <point x="269.0" y="-194.0" type="line"/>
      <point x="272.31370849898474" y="-194.0"/>
      <point x="275.0" y="-191.31370849898477"/>
      <point x="275.0" y="-188.0" type="curve"/>
      <point x="275.0" y="-181.0" type="line"/>
      <point x="275.0" y="-177.68629150101523"/>
      <point x="272.31370849898474" y="-175.0"/>
      <point x="269.0" y="-175.0" type="curve"/>
      <point x="243" y="-175" type="line" smooth="yes"/>
      <point x="189" y="-175"/>
      <point x="165" y="-145"/>
      <point x="165" y="-92" type="curve" smooth="yes"/>
      <point x="165" y="212" type="line" smooth="yes"/>
      <point x="165" y="252"/>
      <point x="153" y="267"/>
      <point x="128" y="276" type="curve"/>
      <point x="128" y="272" type="line"/>
      <point x="153" y="281"/>
      <point x="165" y="296"/>
      <point x="165" y="336" type="curve" smooth="yes"/>
      <point x="165" y="640" type="line" smooth="yes"/>
      <point x="165" y="693"/>
      <point x="189" y="723"/>
      <point x="243" y="723" type="curve" smooth="yes"/>
      <point x="269.0" y="723.0" type="line"/>
      <point x="272.31370849898474" y="723.0"/>
      <point x="275.0" y="725.6862915010153"/>
      <point x="275.0" y="729.0" type="curve"/>
      <point x="275.0" y="736.0" type="line"/>
      <point x="275.0" y="739.3137084989847"/>
      <point x="272.31370849898474" y="742.0"/>
      <point x="269.0" y="742.0" type="curve"/>
      <point x="250" y="742" type="line" smooth="yes"/>
      <point x="181" y="742"/>
      <point x="145" y="710"/>
      <point x="145" y="640" type="curve" smooth="yes"/>
      <point x="145" y="336" type="line" smooth="yes"/>
      <point x="145" y="299"/>
      <point x="129" y="284"/>
      <point x="100" y="284" type="curve" smooth="yes"/>
      <point x="71.0" y="284.0" type="line"/>
      <point x="67.68629150101523" y="284.0"/>
      <point x="65.0" y="281.31370849898474"/>
      <point x="65.0" y="278.0" type="curve"/>
      <point x="65.0" y="271.0" type="line"/>
      <point x="65.0" y="267.68629150101526"/>
      <point x="67.68629150101523" y="265.0"/>
      <point x="71.0" y="265.0" type="curve"/>
      <point x="100" y="265" type="line" smooth="yes"/>
      <point x="129" y="265"/>
      <point x="145" y="249"/>
      <point x="145" y="212" type="curve" smooth="yes"/>
      <point x="145" y="-92" type="line" smooth="yes"/>
      <point x="145" y="-162"/>
      <point x="181" y="-194"/>
    </contour>
  </outline>
</glyph>
<glyph name="bar" format="2">
  <advance width="286"/>
  <unicode hex="007C"/>
  <outline>
    <contour>
      <point x="133.0" y="-188.0" type="line"/>
      <point x="133.0" y="-191.31370849898477"/>
      <point x="135.68629150101523" y="-194.0"/>
      <point x="139.0" y="-194.0" type="curve"/>
      <point x="147.0" y="-194.0" type="line"/>
      <point x="150.31370849898477" y="-194.0"/>
      <point x="153.0" y="-191.31370849898477"/>
      <point x="153.0" y="-188.0" type="curve"/>
      <point x="153.0" y="736.0" type="line"/>
      <point x="153.0" y="739.3137084989847"/>
      <point x="150.31370849898477" y="742.0"/>
      <point x="147.0" y="742.0" type="curve"/>
      <point x="139.0" y="742.0" type="line"/>
      <point x="135.68629150101523" y="742.0"/>
      <point x="133.0" y="739.3137084989847"/>
      <point x="133.0" y="736.0" type="curve"/>
    </contour>
  </outline>
</glyph>
<glyph name="asciitilde" format="2">
  <advance width="560"/>
  <unicode hex="007E"/>
  <outline>
    <contour>
      <point x="382" y="286" type="curve" smooth="yes"/>
      <point x="442.31187168304587" y="286.0"/>
      <point x="484.6443168696475" y="330.47542343857253"/>
      <point x="490.5869304021088" y="404.6979461895608" type="curve"/>
      <point x="490.8610288492404" y="408.1214025723638"/>
      <point x="488.11883500272495" y="411.0"/>
      <point x="484.68442332622567" y="411.0" type="curve"/>
      <point x="473" y="411" type="line"/>
      <point x="470" y="346"/>
      <point x="437" y="304"/>
      <point x="382" y="304" type="curve" smooth="yes"/>
      <point x="300" y="304"/>
      <point x="273" y="414"/>
      <point x="178" y="414" type="curve" smooth="yes"/>
      <point x="117.68812831695413" y="414.0"/>
      <point x="75.3556831303525" y="369.52457656142747"/>
      <point x="69.41306959789117" y="295.3020538104392" type="curve"/>
      <point x="69.13897115075956" y="291.8785974276362"/>
      <point x="71.88116499727508" y="289.0"/>
      <point x="75.31557667377434" y="289.0" type="curve"/>
      <point x="87" y="289" type="line"/>
      <point x="90" y="354"/>
      <point x="123" y="396"/>
      <point x="178" y="396" type="curve" smooth="yes"/>
      <point x="260" y="396"/>
      <point x="287" y="286"/>
    </contour>
  </outline>
</glyph>
<glyph name="exclamdown" format="2">
  <advance width="242"/>
  <unicode hex="00A1"/>
  <outline>
    <contour>
      <point x="128.04927794834683" y="323.0496877371197" type="line"/>
      <point x="128.02199672562438" y="326.3438953808556"/>
      <point x="125.34380429866731" y="329.0"/>
      <point x="122.04948369114268" y="329.0" type="curve"/>
      <point x="119.95051630885732" y="329.0" type="line"/>
      <point x="116.65619570133269" y="329.0"/>
      <point x="113.97800327437561" y="326.3438953808556"/>
      <point x="113.95072205165316" y="323.0496877371197" type="curve"/>
      <point x="110.05010093364075" y="-147.9503122628803" type="line"/>
      <point x="110.022498321821" y="-151.28332764011427"/>
      <point x="112.71676551904132" y="-154.0"/>
      <point x="116.0498951908449" y="-154.0" type="curve"/>
      <point x="125.9501048091551" y="-154.0" type="line"/>
      <point x="129.2832344809587" y="-154.0"/>
      <point x="131.977501678179" y="-151.28332764011427"/>
      <point x="131.94989906635925" y="-147.9503122628803" type="curve"/>
    </contour>
    <contour>
      <point x="121" y="520" type="curve" smooth="yes"/>
      <point x="107" y="520"/>
      <point x="95" y="508"/>
      <point x="95" y="494" type="curve" smooth="yes"/>
      <point x="95" y="480"/>
      <point x="107" y="468"/>
      <point x="121" y="468" type="curve" smooth="yes"/>
      <point x="135" y="468"/>
      <point x="147" y="480"/>
      <point x="147" y="494" type="curve" smooth="yes"/>
      <point x="147" y="508"/>
      <point x="135" y="520"/>
    </contour>
  </outline>
</glyph>
<glyph name="sterling" format="2">
  <advance width="618"/>
  <unicode hex="00A3"/>
  <outline>
    <contour>
      <point x="150" y="10" type="line"/>
      <point x="170" y="10" type="line"/>
      <point x="170" y="479" type="line" smooth="yes"/>
      <point x="170" y="607"/>
      <point x="240" y="684"/>
      <point x="395" y="684" type="curve" smooth="yes"/>
      <point x="466.79383531027725" y="684.0"/>
      <point x="531.0575686650261" y="667.9985333445021"/>
      <point x="582.3119950000762" y="629.6031941253076" type="curve"/>
      <point x="584.9366572923054" y="627.6370263959644"/>
      <point x="588.6605401407238" y="628.0437417116601"/>
      <point x="590.728525144253" y="630.588954023696" type="curve"/>
      <point x="596.1700219890093" y="637.2861809095499" type="line"/>
      <point x="598.2776632264623" y="639.8802008941074"/>
      <point x="597.8637392485467" y="643.7028989888018"/>
      <point x="595.1906269932985" y="645.7092793457974" type="curve"/>
      <point x="542.6831475163042" y="685.1202600149217"/>
      <point x="472.60572954448435" y="703.0"/>
      <point x="395" y="703" type="curve" smooth="yes"/>
      <point x="228" y="703"/>
      <point x="150" y="613"/>
      <point x="150" y="482" type="curve" smooth="yes"/>
    </contour>
    <contour>
      <point x="30.0" y="5.999999999999999" type="line"/>
      <point x="30.0" y="2.6862915010152384"/>
      <point x="32.68629150101524" y="0.0"/>
      <point x="36.0" y="0.0" type="curve"/>
      <point x="584.0" y="0.0" type="line"/>
      <point x="587.3137084989847" y="0.0"/>
      <point x="590.0" y="2.6862915010152384"/>
      <point x="590.0" y="5.999999999999999" type="curve"/>
      <point x="590.0" y="13.0" type="line"/>
      <point x="590.0" y="16.31370849898476"/>
      <point x="587.3137084989847" y="19.0"/>
      <point x="584.0" y="19.0" type="curve"/>
      <point x="36.0" y="19.0" type="line"/>
      <point x="32.68629150101524" y="19.0"/>
      <point x="30.0" y="16.31370849898476"/>
      <point x="30.0" y="13.0" type="curve"/>
    </contour>
    <contour>
      <point x="30.0" y="347.0" type="line"/>
      <point x="30.0" y="343.68629150101526"/>
      <point x="32.68629150101524" y="341.0"/>
      <point x="36.0" y="341.0" type="curve"/>
      <point x="463.0" y="341.0" type="line"/>
      <point x="466.31370849898474" y="341.0"/>
      <point x="469.0" y="343.68629150101526"/>
      <point x="469.0" y="347.0" type="curve"/>
      <point x="469.0" y="353.0" type="line"/>
      <point x="469.0" y="356.31370849898474"/>
      <point x="466.31370849898474" y="359.0"/>
      <point x="463.0" y="359.0" type="curve"/>
      <point x="36.0" y="359.0" type="line"/>
      <point x="32.68629150101524" y="359.0"/>
      <point x="30.0" y="356.31370849898474"/>
      <point x="30.0" y="353.0" type="curve"/>
    </contour>
  </outline>
</glyph>
<glyph name="currency" format="2">
  <advance width="700"/>
  <unicode hex="00A4"/>
  <outline>
    <contour>
      <point x="159" y="494" type="line"/>
      <point x="174" y="508" type="line"/>
      <point x="57.242640687119284" y="624.7573593128807" type="line"/>
      <point x="54.89949493661167" y="627.1005050633883"/>
      <point x="51.10050506338834" y="627.1005050633883"/>
      <point x="48.757359312880716" y="624.7573593128807" type="curve"/>
      <point x="43.225072892240014" y="619.2250728922401" type="line"/>
      <point x="40.888799065914114" y="616.8887990659142"/>
      <point x="40.880945533027216" y="613.1033799208642"/>
      <point x="43.20750524859409" y="610.7574322076676" type="curve"/>
    </contour>
    <contour>
      <point x="48.757359312880716" y="10.242640687119284" type="line"/>
      <point x="51.10050506338834" y="7.899494936611664"/>
      <point x="54.89949493661167" y="7.899494936611664"/>
      <point x="57.242640687119284" y="10.242640687119284" type="curve"/>
      <point x="169.60853972899247" y="122.60853972899247" type="line"/>
      <point x="172.0090017589797" y="125.0090017589797"/>
      <point x="171.94157008264332" y="128.9212012561996"/>
      <point x="169.45980854403325" y="131.23751202556898" type="curve"/>
      <point x="159" y="141" type="line"/>
      <point x="43.20750524859409" y="24.242567792332373" type="line"/>
      <point x="40.880945533027216" y="21.896620079135776"/>
      <point x="40.888799065914114" y="18.11120093408589"/>
      <point x="43.225072892240014" y="15.774927107759986" type="curve"/>
    </contour>
    <contour>
      <point x="642.7573593128807" y="10.242640687119284" type="line"/>
      <point x="645.1005050633883" y="7.899494936611664"/>
      <point x="648.8994949366117" y="7.899494936611664"/>
      <point x="651.2426406871193" y="10.242640687119284" type="curve"/>
      <point x="656.7749271077599" y="15.774927107759986" type="line"/>
      <point x="659.1112009340858" y="18.11120093408589"/>
      <point x="659.1190544669728" y="21.896620079135776"/>
      <point x="656.7924947514059" y="24.242567792332373" type="curve"/>
      <point x="541" y="141" type="line"/>
      <point x="526" y="127" type="line"/>
    </contour>
    <contour>
      <point x="541" y="494" type="line"/>
      <point x="656.7924947514059" y="610.7574322076676" type="line"/>
      <point x="659.1190544669728" y="613.1033799208642"/>
      <point x="659.1112009340858" y="616.8887990659142"/>
      <point x="656.7749271077599" y="619.2250728922401" type="curve"/>
      <point x="651.2426406871193" y="624.7573593128807" type="line"/>
      <point x="648.8994949366117" y="627.1005050633883"/>
      <point x="645.1005050633883" y="627.1005050633883"/>
      <point x="642.7573593128807" y="624.7573593128807" type="curve"/>
      <point x="526" y="508" type="line"/>
    </contour>
    <contour>
      <point x="350" y="46" type="curve" smooth="yes"/>
      <point x="506" y="46"/>
      <point x="633" y="168"/>
      <point x="633" y="316" type="curve" smooth="yes"/>
      <point x="633" y="466"/>
      <point x="506" y="589"/>
      <point x="350" y="589" type="curve" smooth="yes"/>
      <point x="196" y="589"/>
      <point x="70" y="466"/>
      <point x="70" y="316" type="curve" smooth="yes"/>
      <point x="70" y="168"/>
      <point x="196" y="46"/>
    </contour>
    <contour>
      <point x="350" y="66" type="curve" smooth="yes"/>
      <point x="207" y="66"/>
      <point x="90" y="179"/>
      <point x="90" y="316" type="curve" smooth="yes"/>
      <point x="90" y="455"/>
      <point x="207" y="569"/>
      <point x="350" y="569" type="curve" smooth="yes"/>
      <point x="495" y="569"/>
      <point x="613" y="455"/>
      <point x="613" y="316" type="curve" smooth="yes"/>
      <point x="613" y="179"/>
      <point x="495" y="66"/>
    </contour>
  </outline>
</glyph>
<glyph name="yen" format="2">
  <advance width="670"/>
  <unicode hex="00A5"/>
  <outline>
    <contour>
      <point x="325.0" y="5.999999999999999" type="line"/>
      <point x="325.0" y="2.6862915010152384"/>
      <point x="327.68629150101526" y="0.0"/>
      <point x="331.0" y="0.0" type="curve"/>
      <point x="339.0" y="0.0" type="line"/>
      <point x="342.31370849898474" y="0.0"/>
      <point x="345.0" y="2.6862915010152384"/>
      <point x="345.0" y="5.999999999999999" type="curve"/>
      <point x="345" y="303" type="line"/>
      <point x="340" y="288" type="line"/>
      <point x="653.6512102319728" y="691.8259331736649" type="line"/>
      <point x="656.2363392630044" y="695.1542868011182"/>
      <point x="653.8643599723404" y="700.0"/>
      <point x="649.65" y="700.0" type="curve"/>
      <point x="639.9233470607879" y="700.0" type="line"/>
      <point x="638.0781310678028" y="700.0"/>
      <point x="636.3355389157629" y="699.1509663923637"/>
      <point x="635.1983170547425" y="697.6978495699486" type="curve"/>
      <point x="331" y="309" type="line"/>
      <point x="339" y="309" type="line"/>
      <point x="34.80168294525757" y="697.6978495699486" type="line"/>
      <point x="33.66446108423714" y="699.1509663923637"/>
      <point x="31.92186893219722" y="700.0"/>
      <point x="30.076652939212053" y="700.0" type="curve"/>
      <point x="20.35" y="700.0" type="line"/>
      <point x="16.135640027659655" y="700.0"/>
      <point x="13.763660736995572" y="695.1542868011182"/>
      <point x="16.348789768027274" y="691.8259331736649" type="curve"/>
      <point x="330" y="288" type="line"/>
      <point x="325" y="303" type="line"/>
    </contour>
    <contour>
      <point x="85.0" y="163.0" type="line"/>
      <point x="85.0" y="159.68629150101523"/>
      <point x="87.68629150101523" y="157.0"/>
      <point x="91.0" y="157.0" type="curve"/>
      <point x="579.0" y="157.0" type="line"/>
      <point x="582.3137084989847" y="157.0"/>
      <point x="585.0" y="159.68629150101523"/>
      <point x="585.0" y="163.0" type="curve"/>
      <point x="585.0" y="169.0" type="line"/>
      <point x="585.0" y="172.31370849898477"/>
      <point x="582.3137084989847" y="175.0"/>
      <point x="579.0" y="175.0" type="curve"/>
      <point x="91.0" y="175.0" type="line"/>
      <point x="87.68629150101523" y="175.0"/>
      <point x="85.0" y="172.31370849898477"/>
      <point x="85.0" y="169.0" type="curve"/>
    </contour>
    <contour>
      <point x="85.0" y="301.0" type="line"/>
      <point x="85.0" y="297.68629150101526"/>
      <point x="87.68629150101523" y="295.0"/>
      <point x="91.0" y="295.0" type="curve"/>
      <point x="579.0" y="295.0" type="line"/>
      <point x="582.3137084989847" y="295.0"/>
      <point x="585.0" y="297.68629150101526"/>
      <point x="585.0" y="301.0" type="curve"/>
      <point x="585.0" y="307.0" type="line"/>
      <point x="585.0" y="310.31370849898474"/>
      <point x="582.3137084989847" y="313.0"/>
      <point x="579.0" y="313.0" type="curve"/>
      <point x="91.0" y="313.0" type="line"/>
      <point x="87.68629150101523" y="313.0"/>
      <point x="85.0" y="310.31370849898474"/>
      <point x="85.0" y="307.0" type="curve"/>
    </contour>
  </outline>
</glyph>
<glyph name="brokenbar" format="2">
  <advance width="286"/>
  <unicode hex="00A6"/>
  <outline>
    <contour>
      <point x="133.0" y="398.0" type="line"/>
      <point x="133.0" y="394.68629150101526"/>
      <point x="135.68629150101523" y="392.0"/>
      <point x="139.0" y="392.0" type="curve"/>
      <point x="147.0" y="392.0" type="line"/>
      <point x="150.31370849898477" y="392.0"/>
      <point x="153.0" y="394.68629150101526"/>
      <point x="153.0" y="398.0" type="curve"/>
      <point x="153.0" y="736.0" type="line"/>
      <point x="153.0" y="739.3137084989847"/>
      <point x="150.31370849898477" y="742.0"/>
      <point x="147.0" y="742.0" type="curve"/>
      <point x="139.0" y="742.0" type="line"/>
      <point x="135.68629150101523" y="742.0"/>
      <point x="133.0" y="739.3137084989847"/>
      <point x="133.0" y="736.0" type="curve"/>
    </contour>
    <contour>
      <point x="133.0" y="-188.0" type="line"/>
      <point x="133.0" y="-191.31370849898477"/>
      <point x="135.68629150101523" y="-194.0"/>
      <point x="139.0" y="-194.0" type="curve"/>
      <point x="147.0" y="-194.0" type="line"/>
      <point x="150.31370849898477" y="-194.0"/>
      <point x="153.0" y="-191.31370849898477"/>
      <point x="153.0" y="-188.0" type="curve"/>
      <point x="153.0" y="150.0" type="line"/>
      <point x="153.0" y="153.31370849898477"/>
      <point x="150.31370849898477" y="156.0"/>
      <point x="147.0" y="156.0" type="curve"/>
      <point x="139.0" y="156.0" type="line"/>
      <point x="135.68629150101523" y="156.0"/>
      <point x="133.0" y="153.31370849898477"/>
      <point x="133.0" y="150.0" type="curve"/>
    </contour>
  </outline>
</glyph>
<glyph name="section" format="2">
  <advance width="471"/>
  <unicode hex="00A7"/>
  <outline>
    <contour>
      <point x="315" y="148" type="line"/>
      <point x="380" y="164"/>
      <point x="430" y="213"/>
      <point x="430" y="283" type="curve" smooth="yes"/>
      <point x="430" y="486"/>
      <point x="90" y="382"/>
      <point x="90" y="562" type="curve" smooth="yes"/>
      <point x="90" y="644"/>
      <point x="152" y="684"/>
      <point x="263" y="684" type="curve" smooth="yes"/>
      <point x="318.72731574882437" y="684.0"/>
      <point x="376.3009654575591" y="668.3061613407622"/>
      <point x="417.0940875158963" y="637.8054774323014" type="curve"/>
      <point x="419.8124144973748" y="635.7730065686262"/>
      <point x="423.6888124913162" y="636.2517499884216"/>
      <point x="425.7253011803032" y="638.9670682404043" type="curve"/>
      <point x="430.510742616444" y="645.3476568219254" type="line"/>
      <point x="432.4551887604687" y="647.9402516806249"/>
      <point x="431.99528880782464" y="651.6174521964874"/>
      <point x="429.39309999399956" y="653.5490402181864" type="curve"/>
      <point x="388.98498018727963" y="683.5437276841216"/>
      <point x="324.60275635679136" y="703.0"/>
      <point x="263" y="703" type="curve" smooth="yes"/>
      <point x="141" y="703"/>
      <point x="70" y="653"/>
      <point x="70" y="562" type="curve" smooth="yes"/>
      <point x="70" y="364"/>
      <point x="411" y="467"/>
      <point x="411" y="283" type="curve" smooth="yes"/>
      <point x="411" y="211"/>
      <point x="356" y="170"/>
      <point x="289" y="161" type="curve"/>
    </contour>
    <contour>
      <point x="224" y="-103" type="curve" smooth="yes"/>
      <point x="335" y="-103"/>
      <point x="406" y="-53"/>
      <point x="406" y="36" type="curve" smooth="yes"/>
      <point x="406" y="236"/>
      <point x="65" y="133"/>
      <point x="65" y="317" type="curve" smooth="yes"/>
      <point x="65" y="387"/>
      <point x="119" y="428"/>
      <point x="184" y="438" type="curve"/>
      <point x="160" y="451" type="line"/>
      <point x="96" y="435"/>
      <point x="46" y="387"/>
      <point x="46" y="317" type="curve" smooth="yes"/>
      <point x="46" y="114"/>
      <point x="386" y="218"/>
      <point x="386" y="38" type="curve" smooth="yes"/>
      <point x="386" y="-44"/>
      <point x="326" y="-84"/>
      <point x="224" y="-84" type="curve" smooth="yes"/>
      <point x="154.16163199627636" y="-84.0"/>
      <point x="87.0690311038814" y="-54.711817479160636"/>
      <point x="48.99067594932121" y="-20.652699155554238" type="curve"/>
      <point x="46.29382339890038" y="-18.240504097672318"/>
      <point x="42.07709760227513" y="-18.56386986363316"/>
      <point x="39.90615045336679" y="-21.458466062177614" type="curve"/>
      <point x="35.04427209052777" y="-27.940970545962973" type="line"/>
      <point x="33.286823740338804" y="-30.2842350128816"/>
      <point x="33.469254357304855" y="-33.56398927897616"/>
      <point x="35.565509874930115" y="-35.60977173816653" type="curve"/>
      <point x="75.670304830696" y="-74.7489345740396"/>
      <point x="152.18940786751136" y="-103.0"/>
    </contour>
  </outline>
</glyph>
<glyph name="ordfeminine" format="2">
  <advance width="394"/>
  <unicode hex="00AA"/>
  <outline>
    <contour>
      <point x="293.0" y="440.0" type="line"/>
      <point x="293.0" y="436.68629150101526"/>
      <point x="295.68629150101526" y="434.0"/>
      <point x="299.0" y="434.0" type="curve"/>
      <point x="306.0" y="434.0" type="line"/>
      <point x="309.31370849898474" y="434.0"/>
      <point x="312.0" y="436.68629150101526"/>
      <point x="312.0" y="440.0" type="curve"/>
      <point x="312" y="633" type="line" smooth="yes"/>
      <point x="312" y="706"/>
      <point x="268" y="744"/>
      <point x="189" y="744" type="curve" smooth="yes"/>
      <point x="139" y="744"/>
      <point x="91" y="726"/>
      <point x="59" y="699" type="curve"/>
      <point x="69" y="685" type="line"/>
      <point x="98" y="710"/>
      <point x="140" y="726"/>
      <point x="189" y="726" type="curve" smooth="yes"/>
      <point x="257" y="726"/>
      <point x="292" y="695"/>
      <point x="292" y="633" type="curve" smooth="yes"/>
      <point x="292.0" y="516.2992537267254" type="line"/>
      <point x="292.0" y="516.099875157642"/>
      <point x="292.0099379496232" y="515.9006205037681"/>
      <point x="292.0297768587401" y="515.7022314125993" type="curve"/>
      <point x="292.9702231412599" y="506.29776858740064" type="line"/>
      <point x="292.9900620503768" y="506.09937949623196"/>
      <point x="293.0" y="505.90012484235797"/>
      <point x="293.0" y="505.70074627327466" type="curve"/>
    </contour>
    <contour>
      <point x="167" y="432" type="curve" smooth="yes"/>
      <point x="236" y="432"/>
      <point x="282" y="464"/>
      <point x="299" y="513" type="curve"/>
      <point x="292" y="523" type="line"/>
      <point x="271" y="475"/>
      <point x="232" y="448"/>
      <point x="170" y="448" type="curve" smooth="yes"/>
      <point x="105" y="448"/>
      <point x="68" y="476"/>
      <point x="68" y="520" type="curve" smooth="yes"/>
      <point x="68" y="559"/>
      <point x="97" y="587"/>
      <point x="170" y="587" type="curve" smooth="yes"/>
      <point x="294.0" y="587.0" type="line"/>
      <point x="297.31370849898474" y="587.0"/>
      <point x="300.0" y="589.6862915010153"/>
      <point x="300.0" y="593.0" type="curve"/>
      <point x="300.0" y="596.0" type="line"/>
      <point x="300.0" y="599.3137084989847"/>
      <point x="297.31370849898474" y="602.0"/>
      <point x="294.0" y="602.0" type="curve"/>
      <point x="170" y="602" type="line" smooth="yes"/>
      <point x="80" y="602"/>
      <point x="49" y="564"/>
      <point x="49" y="519" type="curve" smooth="yes"/>
      <point x="49" y="467"/>
      <point x="92" y="432"/>
    </contour>
  </outline>
</glyph>
<glyph name="logicalnot" format="2">
  <advance width="560"/>
  <unicode hex="00AC"/>
  <outline>
    <contour>
      <point x="485.0" y="353.0" type="line"/>
      <point x="485.0" y="356.31370849898474"/>
      <point x="482.31370849898474" y="359.0"/>
      <point x="479.0" y="359.0" type="curve"/>
      <point x="81.0" y="359.0" type="line"/>
      <point x="77.68629150101523" y="359.0"/>
      <point x="75.0" y="356.31370849898474"/>
      <point x="75.0" y="353.0" type="curve"/>
      <point x="75.0" y="346.0" type="line"/>
      <point x="75.0" y="342.68629150101526"/>
      <point x="77.68629150101523" y="340.0"/>
      <point x="81.0" y="340.0" type="curve"/>
      <point x="459.0" y="340.0" type="line"/>
      <point x="462.31370849898474" y="340.0"/>
      <point x="465.0" y="337.31370849898474"/>
      <point x="465.0" y="334.0" type="curve"/>
      <point x="465.0" y="165.0" type="line"/>
      <point x="465.0" y="161.68629150101523"/>
      <point x="467.68629150101526" y="159.0"/>
      <point x="471.0" y="159.0" type="curve"/>
      <point x="479.0" y="159.0" type="line"/>
      <point x="482.31370849898474" y="159.0"/>
      <point x="485.0" y="161.68629150101523"/>
      <point x="485.0" y="165.0" type="curve"/>
    </contour>
  </outline>
</glyph>
<glyph name="registered" format="2">
  <advance width="824"/>
  <unicode hex="00AE"/>
  <outline>
    <contour>
      <point x="411" y="-3" type="curve" smooth="yes"/>
      <point x="610" y="-3"/>
      <point x="765" y="153"/>
      <point x="765" y="352" type="curve" smooth="yes"/>
      <point x="765" y="551"/>
      <point x="614" y="703"/>
      <point x="413" y="703" type="curve" smooth="yes"/>
      <point x="212" y="703"/>
      <point x="59" y="547"/>
      <point x="59" y="350" type="curve" smooth="yes"/>
      <point x="59" y="153"/>
      <point x="212" y="-3"/>
    </contour>
    <contour>
      <point x="560.2262600998595" y="144.73662727450258" type="line"/>
      <point x="561.3323413123368" y="143.0301019752518"/>
      <point x="563.2275496742005" y="142.0"/>
      <point x="565.2611780191983" y="142.0" type="curve"/>
      <point x="575.2" y="142.0" type="line"/>
      <point x="579.8541249709401" y="142.0"/>
      <point x="582.6572865093084" y="147.1573293856385"/>
      <point x="580.1259290941047" y="151.06285225480997" type="curve"/>
      <point x="482.7737399001406" y="301.2633727254974" type="line"/>
      <point x="481.6676586876632" y="302.9698980247482"/>
      <point x="479.77245032579947" y="304.0"/>
      <point x="477.7388219808017" y="304.0" type="curve"/>
      <point x="467.8" y="304.0" type="line"/>
      <point x="463.14587502905994" y="304.0"/>
      <point x="460.3427134906916" y="298.8426706143615"/>
      <point x="462.87407090589534" y="294.93714774519003" type="curve"/>
    </contour>
    <contour>
      <point x="411" y="16" type="curve" smooth="yes"/>
      <point x="223" y="16"/>
      <point x="78" y="164"/>
      <point x="78" y="350" type="curve" smooth="yes"/>
      <point x="78" y="536"/>
      <point x="223" y="684"/>
      <point x="413" y="684" type="curve" smooth="yes"/>
      <point x="603" y="684"/>
      <point x="746" y="540"/>
      <point x="746" y="352" type="curve" smooth="yes"/>
      <point x="746" y="164"/>
      <point x="599" y="16"/>
    </contour>
    <contour>
      <point x="283.0" y="148.0" type="line"/>
      <point x="283.0" y="144.68629150101523"/>
      <point x="285.68629150101526" y="142.0"/>
      <point x="289.0" y="142.0" type="curve"/>
      <point x="297.0" y="142.0" type="line"/>
      <point x="300.31370849898474" y="142.0"/>
      <point x="303.0" y="144.68629150101523"/>
      <point x="303.0" y="148.0" type="curve"/>
      <point x="303.0" y="286.0" type="line"/>
      <point x="303.0" y="289.31370849898474"/>
      <point x="305.68629150101526" y="292.0"/>
      <point x="309.0" y="292.0" type="curve"/>
      <point x="433" y="292" type="line" smooth="yes"/>
      <point x="527" y="292"/>
      <point x="586" y="344"/>
      <point x="586" y="425" type="curve" smooth="yes"/>
      <point x="586" y="506"/>
      <point x="527" y="558"/>
      <point x="433" y="558" type="curve" smooth="yes"/>
      <point x="289.0" y="558.0" type="line"/>
      <point x="285.68629150101526" y="558.0"/>
      <point x="283.0" y="555.3137084989847"/>
      <point x="283.0" y="552.0" type="curve"/>
    </contour>
    <contour>
      <point x="308.0" y="311.0" type="line"/>
      <point x="304.68629150101526" y="311.0"/>
      <point x="302.0" y="313.68629150101526"/>
      <point x="302.0" y="317.0" type="curve"/>
      <point x="302.0" y="533.0" type="line"/>
      <point x="302.0" y="536.3137084989847"/>
      <point x="304.68629150101526" y="539.0"/>
      <point x="308.0" y="539.0" type="curve"/>
      <point x="431" y="539" type="line" smooth="yes"/>
      <point x="516" y="539"/>
      <point x="566" y="497"/>
      <point x="566" y="425" type="curve" smooth="yes"/>
      <point x="566" y="353"/>
      <point x="516" y="311"/>
      <point x="431" y="311" type="curve" smooth="yes"/>
    </contour>
  </outline>
</glyph>
<glyph name="plusminus" format="2">
  <advance width="560"/>
  <unicode hex="00B1"/>
  <outline>
    <contour>
      <point x="75.0" y="5.999999999999999" type="line"/>
      <point x="75.0" y="2.6862915010152384"/>
      <point x="77.68629150101523" y="0.0"/>
      <point x="81.0" y="0.0" type="curve"/>
      <point x="479.0" y="0.0" type="line"/>
      <point x="482.31370849898474" y="0.0"/>
      <point x="485.0" y="2.6862915010152384"/>
      <point x="485.0" y="5.999999999999999" type="curve"/>
      <point x="485.0" y="13.0" type="line"/>
      <point x="485.0" y="16.313708498984763"/>
      <point x="482.31370849898474" y="19.0"/>
      <point x="479.0" y="19.0" type="curve"/>
      <point x="81.0" y="19.0" type="line"/>
      <point x="77.68629150101523" y="19.0"/>
      <point x="75.0" y="16.313708498984763"/>
      <point x="75.0" y="13.0" type="curve"/>
    </contour>
    <contour>
      <point x="270.0" y="156.0" type="line"/>
      <point x="270.0" y="152.68629150101523"/>
      <point x="272.68629150101526" y="150.0"/>
      <point x="276.0" y="150.0" type="curve"/>
      <point x="284.0" y="150.0" type="line"/>
      <point x="287.31370849898474" y="150.0"/>
      <point x="290.0" y="152.68629150101523"/>
      <point x="290.0" y="156.0" type="curve"/>
      <point x="290.0" y="544.0" type="line"/>
      <point x="290.0" y="547.3137084989847"/>
      <point x="287.31370849898474" y="550.0"/>
      <point x="284.0" y="550.0" type="curve"/>
      <point x="276.0" y="550.0" type="line"/>
      <point x="272.68629150101526" y="550.0"/>
      <point x="270.0" y="547.3137084989847"/>
      <point x="270.0" y="544.0" type="curve"/>
    </contour>
    <contour>
      <point x="75.0" y="346.0" type="line"/>
      <point x="75.0" y="342.68629150101526"/>
      <point x="77.68629150101523" y="340.0"/>
      <point x="81.0" y="340.0" type="curve"/>
      <point x="479.0" y="340.0" type="line"/>
      <point x="482.31370849898474" y="340.0"/>
      <point x="485.0" y="342.68629150101526"/>
      <point x="485.0" y="346.0" type="curve"/>
      <point x="485.0" y="353.0" type="line"/>
      <point x="485.0" y="356.31370849898474"/>
      <point x="482.31370849898474" y="359.0"/>
      <point x="479.0" y="359.0" type="curve"/>
      <point x="81.0" y="359.0" type="line"/>
      <point x="77.68629150101523" y="359.0"/>
      <point x="75.0" y="356.31370849898474"/>
      <point x="75.0" y="353.0" type="curve"/>
    </contour>
  </outline>
</glyph>
<glyph name="paragraph" format="2">
  <advance width="600"/>
  <unicode hex="00B6"/>
  <outline>
    <contour>
      <point x="225.0" y="-94.0" type="line"/>
      <point x="225.0" y="-97.31370849898477"/>
      <point x="227.68629150101523" y="-100.0"/>
      <point x="231.0" y="-100.0" type="curve"/>
      <point x="239.0" y="-100.0" type="line"/>
      <point x="242.31370849898477" y="-100.0"/>
      <point x="245.0" y="-97.31370849898477"/>
      <point x="245.0" y="-94.0" type="curve"/>
      <point x="245.0" y="717.0" type="line"/>
      <point x="245.0" y="720.3137084989847"/>
      <point x="247.68629150101523" y="723.0"/>
      <point x="251.0" y="723.0" type="curve"/>
      <point x="441.0" y="723.0" type="line"/>
      <point x="444.31370849898474" y="723.0"/>
      <point x="447.0" y="720.3137084989847"/>
      <point x="447.0" y="717.0" type="curve"/>
      <point x="447.0" y="-94.0" type="line"/>
      <point x="447.0" y="-97.31370849898477"/>
      <point x="449.68629150101526" y="-100.0"/>
      <point x="453.0" y="-100.0" type="curve"/>
      <point x="461.0" y="-100.0" type="line"/>
      <point x="464.31370849898474" y="-100.0"/>
      <point x="467.0" y="-97.31370849898477"/>
      <point x="467.0" y="-94.0" type="curve"/>
      <point x="467.0" y="736.0" type="line"/>
      <point x="467.0" y="739.3137084989847"/>
      <point x="464.31370849898474" y="742.0"/>
      <point x="461.0" y="742.0" type="curve"/>
      <point x="225" y="742" type="line" smooth="yes"/>
      <point x="104" y="742"/>
      <point x="25" y="681"/>
      <point x="25" y="581" type="curve" smooth="yes"/>
      <point x="25.0" y="483.6458457301401"/>
      <point x="101.39513079628355" y="421.10466245605494"/>
      <point x="219.00022630864632" y="419.05211191194775" type="curve"/>
      <point x="222.31343023865153" y="418.9942868789452"/>
      <point x="225.0" y="416.31370849898474"/>
      <point x="225.0" y="413.0" type="curve"/>
    </contour>
  </outline>
</glyph>
<glyph name="questiondown" format="2">
  <advance width="554"/>
  <unicode hex="00BF"/>
  <outline>
    <contour>
      <point x="304" y="-157" type="curve" smooth="yes"/>
      <point x="403.51766461335774" y="-157.0"/>
      <point x="478.2854344917563" y="-126.53859109543481"/>
      <point x="530.1608147056704" y="-71.18828849772885" type="curve"/>
      <point x="532.3400071102895" y="-68.86312078778818"/>
      <point x="532.2358318214142" y="-65.23583182141415"/>
      <point x="529.9824693987555" y="-62.9824693987555" type="curve"/>
      <point x="524.4848851883895" y="-57.484885188389505" type="line"/>
      <point x="522.0492490207573" y="-55.04924902075726"/>
      <point x="518.072331768877" y="-55.164741051561585"/>
      <point x="515.7146728225674" y="-57.67593426894709" type="curve"/>
      <point x="465.15167405636424" y="-111.53167101624514"/>
      <point x="397.3373527882068" y="-138.0"/>
      <point x="304" y="-138" type="curve" smooth="yes"/>
      <point x="177" y="-138"/>
      <point x="109" y="-75"/>
      <point x="109" y="2" type="curve" smooth="yes"/>
      <point x="109.0" y="157.1419607953435"/>
      <point x="299.4118000684677" y="158.00153999674907"/>
      <point x="303.9187120373394" y="323.00055066950137" type="curve"/>
      <point x="304.0091915148865" y="326.31302368529884"/>
      <point x="301.31370849898474" y="329.0"/>
      <point x="298.0" y="329.0" type="curve"/>
      <point x="290.0" y="329.0" type="line"/>
      <point x="286.68629150101526" y="329.0"/>
      <point x="284.0106853915982" y="326.3127890786532"/>
      <point x="283.9058873693051" y="323.00073814444835" type="curve"/>
      <point x="279.0638578393074" y="169.9725790497732"/>
      <point x="89.0" y="167.84729458858646"/>
      <point x="89" y="1" type="curve" smooth="yes"/>
      <point x="89" y="-89"/>
      <point x="172" y="-157"/>
    </contour>
    <contour>
      <point x="294" y="468" type="curve" smooth="yes"/>
      <point x="308" y="468"/>
      <point x="320" y="480"/>
      <point x="320" y="494" type="curve" smooth="yes"/>
      <point x="320" y="508"/>
      <point x="308" y="520"/>
      <point x="294" y="520" type="curve" smooth="yes"/>
      <point x="280" y="520"/>
      <point x="268" y="508"/>
      <point x="268" y="494" type="curve" smooth="yes"/>
      <point x="268" y="480"/>
      <point x="280" y="468"/>
    </contour>
  </outline>
</glyph>
<glyph name="AE" format="2">
  <advance width="1005"/>
  <unicode hex="00C6"/>
  <anchor x="480" y="0" name="bottom"/>
  <anchor x="480" y="700" name="top"/>
  <outline>
    <contour>
      <point x="14.552623813018043" y="8.734464424972202" type="line"/>
      <point x="12.146721950505297" y="4.949899697424064"/>
      <point x="14.865438265666999" y="0.0"/>
      <point x="19.35" y="0.0" type="curve"/>
      <point x="28.702633687647346" y="0.0" type="line"/>
      <point x="30.756050655243246" y="0.0"/>
      <point x="32.66685367920314" y="1.0501029201244936"/>
      <point x="33.76764501411659" y="2.783532953264055" type="curve"/>
      <point x="463.4875649666769" y="679.468924142928" type="line"/>
      <point x="464.71559522134123" y="681.4027189117672"/>
      <point x="462.90262881191734" y="683.8293225176907"/>
      <point x="460.7" y="683.2" type="curve"/>
      <point x="459.3" y="682.8" type="line"/>
      <point x="458.27682537991" y="682.50766439426"/>
      <point x="458.48798123318414" y="681.0"/>
      <point x="459.55209890035246" y="681.0" type="curve"/>
      <point x="469.0" y="681.0" type="line"/>
      <point x="472.31370849898474" y="681.0"/>
      <point x="475.0" y="683.6862915010153"/>
      <point x="475.0" y="687.0" type="curve"/>
      <point x="475.0" y="694.0" type="line"/>
      <point x="475.0" y="697.3137084989847"/>
      <point x="472.31370849898474" y="700.0"/>
      <point x="469.0" y="700.0" type="curve"/>
      <point x="457.295480492152" y="700.0" type="line"/>
      <point x="455.2430928341087" y="700.0"/>
      <point x="453.333098852902" y="698.9509420158009"/>
      <point x="452.23202285448696" y="697.2189123553728" type="curve"/>
    </contour>
    <contour>
      <point x="157.5" y="219.55" type="line"/>
      <point x="155.45558382051547" y="215.6656092589794"/>
      <point x="158.27236205671156" y="211.0"/>
      <point x="162.66190974911274" y="211.0" type="curve"/>
      <point x="469.0" y="211.0" type="line"/>
      <point x="472.31370849898474" y="211.0"/>
      <point x="475.0" y="213.68629150101523"/>
      <point x="475.0" y="217.0" type="curve"/>
      <point x="475.0" y="224.0" type="line"/>
      <point x="475.0" y="227.31370849898477"/>
      <point x="472.31370849898474" y="230.0"/>
      <point x="469.0" y="230.0" type="curve"/>
      <point x="166.6223928063949" y="230.0" type="line"/>
      <point x="164.394717046238" y="230.0"/>
      <point x="162.35041551090382" y="228.76578947071724"/>
      <point x="161.312883472103" y="226.79447859699573" type="curve"/>
    </contour>
    <contour>
      <point x="491.0" y="365.0" type="line"/>
      <point x="487.68629150101526" y="365.0"/>
      <point x="485.0" y="362.31370849898474"/>
      <point x="485.0" y="359.0" type="curve"/>
      <point x="485.0" y="352.0" type="line"/>
      <point x="485.0" y="348.68629150101526"/>
      <point x="487.68629150101526" y="346.0"/>
      <point x="491.0" y="346.0" type="curve"/>
      <point x="870.0" y="346.0" type="line"/>
      <point x="873.3137084989847" y="346.0"/>
      <point x="876.0" y="348.68629150101526"/>
      <point x="876.0" y="352.0" type="curve"/>
      <point x="876.0" y="359.0" type="line"/>
      <point x="876.0" y="362.31370849898474"/>
      <point x="873.3137084989847" y="365.0"/>
      <point x="870.0" y="365.0" type="curve"/>
    </contour>
    <contour>
      <point x="496.0" y="19.0" type="line"/>
      <point x="492.68629150101526" y="19.0"/>
      <point x="490.0" y="21.686291501015237"/>
      <point x="490.0" y="25.0" type="curve"/>
      <point x="490.0" y="675.0" type="line"/>
      <point x="490.0" y="678.3137084989847"/>
      <point x="492.68629150101526" y="681.0"/>
      <point x="496.0" y="681.0" type="curve"/>
      <point x="915.0" y="681.0" type="line"/>
      <point x="918.3137084989847" y="681.0"/>
      <point x="921.0" y="683.6862915010153"/>
      <point x="921.0" y="687.0" type="curve"/>
      <point x="921.0" y="694.0" type="line"/>
      <point x="921.0" y="697.3137084989847"/>
      <point x="918.3137084989847" y="700.0"/>
      <point x="915.0" y="700.0" type="curve"/>
      <point x="476.0" y="700.0" type="line"/>
      <point x="472.68629150101526" y="700.0"/>
      <point x="470.0" y="697.3137084989847"/>
      <point x="470.0" y="694.0" type="curve"/>
      <point x="470.0" y="5.999999999999999" type="line"/>
      <point x="470.0" y="2.6862915010152384"/>
      <point x="472.68629150101526" y="0.0"/>
      <point x="476.0" y="0.0" type="curve"/>
      <point x="930.0" y="0.0" type="line"/>
      <point x="933.3137084989847" y="0.0"/>
      <point x="936.0" y="2.6862915010152384"/>
      <point x="936.0" y="5.999999999999999" type="curve"/>
      <point x="936.0" y="13.0" type="line"/>
      <point x="936.0" y="16.313708498984763"/>
      <point x="933.3137084989847" y="19.0"/>
      <point x="930.0" y="19.0" type="curve"/>
    </contour>
  </outline>
</glyph>
<glyph name="multiply" format="2">
  <advance width="560"/>
  <unicode hex="00D7"/>
  <outline>
    <contour>
      <point x="132.2426406871193" y="216.2426406871193" type="line"/>
      <point x="129.89949493661166" y="213.89949493661166"/>
      <point x="129.89949493661166" y="210.10050506338834"/>
      <point x="132.2426406871193" y="207.7573593128807" type="curve"/>
      <point x="137.7573593128807" y="202.2426406871193" type="line"/>
      <point x="140.10050506338834" y="199.89949493661166"/>
      <point x="143.89949493661166" y="199.89949493661166"/>
      <point x="146.2426406871193" y="202.2426406871193" type="curve"/>
      <point x="427.75735931288074" y="483.75735931288074" type="line"/>
      <point x="430.10050506338837" y="486.10050506338837"/>
      <point x="430.10050506338837" y="489.89949493661163"/>
      <point x="427.75735931288074" y="492.24264068711926" type="curve"/>
      <point x="422.24264068711926" y="497.75735931288074" type="line"/>
      <point x="419.89949493661163" y="500.10050506338837"/>
      <point x="416.10050506338837" y="500.10050506338837"/>
      <point x="413.75735931288074" y="497.75735931288074" type="curve"/>
    </contour>
    <contour>
      <point x="132.2426406871193" y="492.24264068711926" type="line"/>
      <point x="129.89949493661166" y="489.89949493661163"/>
      <point x="129.89949493661166" y="486.10050506338837"/>
      <point x="132.2426406871193" y="483.75735931288074" type="curve"/>
      <point x="413.75735931288074" y="202.2426406871193" type="line"/>
      <point x="416.10050506338837" y="199.89949493661166"/>
      <point x="419.89949493661163" y="199.89949493661166"/>
      <point x="422.24264068711926" y="202.2426406871193" type="curve"/>
      <point x="427.75735931288074" y="207.7573593128807" type="line"/>
      <point x="430.10050506338837" y="210.10050506338834"/>
      <point x="430.10050506338837" y="213.89949493661166"/>
      <point x="427.75735931288074" y="216.2426406871193" type="curve"/>
      <point x="146.2426406871193" y="497.75735931288074" type="line"/>
      <point x="143.89949493661166" y="500.10050506338837"/>
      <point x="140.10050506338834" y="500.10050506338837"/>
      <point x="137.7573593128807" y="497.75735931288074" type="curve"/>
    </contour>
  </outline>
</glyph>
